<?xml version="1.0" standalone="no"?>
<!DOCTYPE svg PUBLIC "-//W3C//DTD SVG 1.1//EN" "http://www.w3.org/Graphics/SVG/1.1/DTD/svg11.dtd" >
<svg xmlns="http://www.w3.org/2000/svg">
<metadata>
This is a custom SVG webfont generated by Font Squirrel.
Copyright   : Copyright C 2005 Markanna Studios Inc Designed by Gayle Sato for MVB Fonts Calliope is a trademark of Markanna Studios Inc dba MVB Fonts wwwmvbfontscom
Designer    : Gayle Sato and MVB Fonts
Foundry URL : wwwmvbfontscom
</metadata>
<defs>
<font id="CalliopeMVBStdRegular" horiz-adv-x="464" >
<font-face units-per-em="1000" ascent="685" descent="-315" />
<missing-glyph horiz-adv-x="182" />
<glyph unicode=" "  horiz-adv-x="182" />
<glyph unicode="&#x09;" horiz-adv-x="182" />
<glyph unicode="&#xa0;" horiz-adv-x="182" />
<glyph unicode="!" horiz-adv-x="267" d="M228 596q0 -7 -6 -39t-14.5 -73.5t-11.5 -58.5q0 -3 -12 -55t-22 -109q0 -6 0.5 -23t-0.5 -24q0 -7 -9.5 -15t-18.5 -8q-13 0 -22 12t-9 23q0 17 14.5 76t18.5 86q2 10 22 221q1 8 9.5 12.5t16.5 4.5q13 0 28.5 -8.5t15.5 -21.5zM150 45q0 -59 -45 -59q-12 0 -21 10.5 t-9 19.5q0 18 20 35q18 23 30 23q9 0 17 -9t8 -20z" />
<glyph unicode="&#x22;" horiz-adv-x="337" d="M338 639q0 -6 -23.5 -49.5t-23.5 -69.5q0 -23 12.5 -34t12.5 -16q0 -9 -10.5 -14.5t-21.5 -5.5q-20 0 -32.5 14.5t-12.5 40.5q0 25 23 93t47 68q9 0 19 -9t10 -18zM193 636q0 -3 -28 -62t-28 -92q0 -8 4.5 -17t4.5 -12q0 -6 -5 -11.5t-11 -5.5q-13 0 -27.5 13t-14.5 25 q0 40 26.5 116t51.5 76q9 0 18 -12t9 -18z" />
<glyph unicode="#" horiz-adv-x="528" d="M500 168q0 -10 -7.5 -17.5t-17.5 -7.5q-8 0 -41.5 5t-46.5 5q-12 0 -17 -7t-7 -24q-2 -15 -11.5 -46.5t-12.5 -43.5q-2 -8 -2 -39q0 -5 -6 -11.5t-14 -6.5q-7 0 -20.5 7.5t-13.5 13.5q0 8 16.5 66t16.5 63q0 22 -20 22q-12 0 -52.5 -2.5t-56.5 -2.5q-19 0 -30 -20 q-3 -4 -24.5 -51.5t-27.5 -58.5q-3 -8 -14 -8q-6 0 -19 8.5t-13 15.5q0 9 20.5 49.5t20.5 52.5q0 6 -7 11q-5 3 -17.5 3.5t-18.5 2.5q-19 5 -19 24q0 22 20 22q2 0 11.5 -1t10.5 -1t6 -0.5t10.5 -1t12.5 0t11 1.5q13 6 30 88q0 10 -12 10q-5 0 -34 -7t-30 -7 q-10 0 -20.5 9.5t-10.5 19.5q0 23 50 29q40 3 69 13q13 5 16 16q7 21 11 66q0 2 2 17t4 26t9 21.5t17 10.5q11 0 22.5 -9.5t11.5 -19.5t-8 -23t-8 -17q0 -15 -14 -79q0 -13 12 -13q65 -5 124 -5q16 0 19 10q15 33 29 92q5 18 21 18q25 0 25 -23q0 -22 -10.5 -52.5 t-10.5 -35.5q0 -6 7 -7.5t19 -2t18 -2.5q9 -3 9 -17q0 -11 -11 -18t-21 -7l-13 2q-14 3 -16 3q-8 0 -13 -9q-3 -5 -14.5 -39t-11.5 -38q0 -15 22 -15q11 0 29 1.5t29 1.5q13 0 23 -9.5t10 -21.5zM362 286q0 13 -34 13q-10 0 -24.5 -2t-25.5 -2q-9 0 -26 2l-18 2 q-13 0 -21 -8q-5 -5 -17 -41.5t-12 -45.5q0 -6 6.5 -10.5t12.5 -4.5q16 0 38.5 3t33.5 3q7 0 15 -1t13 -1q26 0 31 11q5 8 11 31t8 28q1 4 5 13t4 10z" />
<glyph unicode="$" horiz-adv-x="361" d="M338 124q0 -26 -12 -40q-20 -23 -54 -48t-56 -31q-36 -6 -40 -6q-9 0 -14.5 -17.5t-11.5 -69.5q0 -2 1.5 -10t1.5 -15q0 -36 -24 -36q-15 0 -28.5 11.5t-13.5 30.5q0 3 3.5 10.5t5.5 13.5q17 76 17 80q0 9 -9 15q-2 1 -24 13t-34.5 24t-12.5 26q0 18 24 18q13 0 33 -13.5 t27 -13.5q10 0 12 9q4 11 9.5 39t10 53.5t4.5 27.5q3 17 -6 25l-18 14q-18 13 -25 21l-21 25q-14 17 -20 36t-6 41q0 39 41 71.5t86 39.5q13 5 13 14q6 53 25 127q5 15 24 15q10 0 16 -6t6 -15q0 -8 -4 -19t-5 -18q-12 -76 -12 -90q0 -9 16.5 -21t16.5 -25q0 -8 -4.5 -11.5 t-13.5 -5.5t-13 -5q-7 -6 -10 -12q-1 -7 -7.5 -36.5t-11 -56.5t-4.5 -46q0 -15 9 -24.5t31.5 -21.5t30.5 -18q51 -35 51 -69zM187 395q0 4 -3.5 8t-7.5 4q-12 0 -40 -22.5t-28 -43.5q0 -15 20 -40.5t30 -25.5q8 0 10 9q3 10 11 56t8 55zM284 125q0 15 -31 36t-41 21t-12 -12 q-4 -8 -13 -49t-9 -53q0 -13 17 -13q18 0 53.5 23t35.5 47z" />
<glyph unicode="%" horiz-adv-x="706" d="M301 428q0 -28 -18 -61.5t-42 -53.5q-11 -9 -29.5 -18.5t-24.5 -14.5q-19 -13 -55 -13q-35 0 -54 15.5t-19 58.5q0 53 37.5 112t92.5 59q1 0 9 -1.5t13 -1.5t13 4t14 4q5 0 12.5 -3t10.5 -3q40 0 40 -83zM574 561q0 -7 -2.5 -12.5t-12.5 -16.5t-12 -14q-33 -44 -130 -188 l-188 -305q-1 -1 -4.5 -11t-7.5 -15q-8 -10 -21 -34.5t-24.5 -37.5t-25.5 -13q-9 0 -14.5 7t-5.5 15q0 12 5.5 22.5t16 24.5t15.5 24q121 207 319 513q1 1 5.5 7.5t7.5 11.5t9 12l11 13q4 6 10 11t11 8t10 3q10 0 19 -7.5t9 -17.5zM647 201q0 -13 -3 -24.5t-10 -27 t-10 -23.5q-1 -3 -8.5 -12.5t-8.5 -14.5q-14 -27 -48 -52q-32 -23 -76 -23q-38 0 -59 28t-21 62q0 25 26 66q19 31 58.5 59t65.5 28q5 0 12 -2.5t9 -2.5q35 -8 54 -21t19 -40zM259 439q0 12 -6 22t-16 10q-16 1 -40.5 -7.5t-34.5 -18.5q-55 -44 -55 -109q0 -31 29 -31 q40 0 81.5 48t41.5 86zM600 187q0 29 -36 29q-35 0 -70 -41t-35 -79q0 -11 7.5 -21.5t21.5 -10.5q34 0 73 43.5t39 79.5z" />
<glyph unicode="&#x26;" horiz-adv-x="717" d="M730 359q0 -5 -2.5 -9.5t-7 -7.5t-9.5 -5.5t-11.5 -3.5t-10.5 -2t-9 -1l-4 -1l-100 -25q-11 -3 -26 -5t-24 -4t-14 -6q-5 -3 -9 -8t-7 -12.5t-4 -9.5q-57 -94 -64 -109q-6 -10 -6 -21q0 -5 20 -25l24 -23l30 -28l25 -26q14 -14 21 -23t7 -13q0 -13 -10 -21t-19 -8 q-15 0 -42 33q-6 5 -31 31t-40.5 39.5t-19.5 13.5t-8 -4q-36 -42 -70 -64q-20 -13 -50 -26.5t-41 -13.5q-9 0 -23.5 -3.5t-19.5 -3.5q-53 0 -103 51t-50 113q0 48 37 97t90 87q51 37 51 43t-4 32t-4 45q0 60 40.5 118t108.5 58q47 0 69 -33t22 -64q0 -34 -43 -75 q-11 -11 -41.5 -39t-48.5 -46q-7 -7 -7 -21q0 -29 18.5 -69t40.5 -69q18 -18 21 -18q11 0 43 56t32 61q0 4 -5 8.5t-11.5 9t-11.5 13.5t-5 20q0 13 9.5 19.5t19.5 6.5q6 0 21 -8.5t44 -8.5q48 0 142 24q5 1 18 9.5t21 8.5q11 0 26 -10t15 -24zM371 520q0 23 -6 32.5t-20 9.5 q-38 0 -65 -45t-27 -100q0 -28 14 -28q10 0 50 43t49 63q5 11 5 25zM339 121q0 2 -12 18l-31 44l-32 47q-19 41 -19 42q-7 25 -20 25q-12 0 -45.5 -26t-65 -69.5t-31.5 -80.5q0 -41 30 -72t67 -31q38 0 77 23.5t60.5 47t21.5 32.5z" />
<glyph unicode="'" horiz-adv-x="179" d="M204 632q0 -19 -51 -104q-1 -2 -6 -19.5t-10 -29.5q-13 -29 -26 -29q-9 0 -16 8.5t-7 21.5q0 28 20 70q31 108 70 108q10 0 18 -8.5t8 -17.5z" />
<glyph unicode="(" horiz-adv-x="347" d="M341 641q0 -12 -40 -37q-92 -65 -152 -196t-60 -269q0 -225 124 -330q10 -8 29.5 -18.5t28 -20t8.5 -27.5q0 -13 -12.5 -22t-21.5 -9t-36 22q-184 156 -184 419q0 95 27 186t68.5 156.5t76.5 107t64 65.5q15 14 40 14q15 0 27.5 -13.5t12.5 -27.5z" />
<glyph unicode=")" horiz-adv-x="347" d="M314 284q-1 -139 -75.5 -276t-185.5 -244q-2 -2 -8.5 -8t-10 -9.5t-9 -8t-10.5 -6.5t-10 -2q-50 0 -50 33q0 6 2 11t6.5 10t8 8t10.5 8t9 7q40 32 82 80t83.5 112.5t67.5 146t26 161.5q0 164 -138 285q-19 21 -19 40q0 10 10.5 18.5t20.5 8.5q9 0 16.5 -6t16 -17t9.5 -12 q57 -55 103 -149t45 -191z" />
<glyph unicode="*" horiz-adv-x="482" d="M463 442q0 -8 -10.5 -17t-23.5 -9q-5 0 -14 2t-15 2h-71q-13 0 -13 -8t44.5 -61.5t44.5 -64.5q0 -8 -10.5 -16t-19.5 -8q-12 0 -54 60.5t-47 60.5q-11 0 -19 -53q-1 -4 -3 -22t-4 -28t-6 -24t-10 -21t-14 -7t-14.5 9.5t-6.5 20.5q0 10 9 50l17 72q8 32 3 32 q-11 0 -85 -100q-3 -3 -11.5 -14t-13.5 -16t-13.5 -10.5t-16.5 -5.5t-13.5 5.5t-5.5 11.5q0 16 56.5 74.5t56.5 68.5q0 6 -64 11q-14 1 -19.5 1.5t-16 3t-15 8.5t-4.5 16q0 20 22 20q8 0 51 -5.5t67 -5.5q15 0 15 12q0 8 -38.5 66.5t-38.5 67.5q0 10 7.5 16t16.5 6 q16 0 26 -14q7 -7 19 -30l24 -42q10 -19 13 -19q6 0 6 48q0 70 12.5 115t28.5 45q10 0 15.5 -8.5t5.5 -16.5t-7.5 -37t-9.5 -60q-3 -51 -3 -61q0 -13 6 -13q1 0 59 55.5t79 55.5q12 0 19 -5.5t7 -12.5q0 -6 -9 -13q-31 -17 -84 -66q-25 -22 -51.5 -50t-26.5 -38q0 -9 7 -9 q33 -3 90 -3q9 0 22.5 3t21.5 3q11 0 20.5 -10t9.5 -18z" />
<glyph unicode="+" horiz-adv-x="570" d="M538 238q0 -8 -6.5 -16t-14.5 -8q-7 0 -24 1.5t-26 1.5q-12 0 -74 -5t-96 -5q-11 0 -15 -6t-6 -22q-5 -68 -10 -117l2 -17q2 -17 2 -29q0 -46 -34 -46q-25 0 -25 59q0 7 4 66t4 85q0 18 -9.5 23.5t-37.5 8.5q-50 5 -69 5q-1 0 -8 -0.5t-11 -0.5q-14 0 -26 8.5t-12 22.5 q0 25 26 25q6 0 14 -2t13 -2q12 0 53 -3t49 -3q23 0 23 38q0 6 -2 60t-2 85q0 25 4.5 34t17.5 9q40 0 40 -131v-74q3 -26 19 -26q17 0 73 3.5t77 3.5q87 0 87 -26z" />
<glyph unicode="," horiz-adv-x="192" d="M110 -50q-12 -41 -34 -58q-52 -42 -100 -42q-13 0 -24 4q-9 4 -9 13q0 19 40 19q19 0 38.5 14t26.5 32q10 24 10 48t-8 46.5t-16 36.5t-8 17q0 13 14.5 27.5t28.5 14.5q9 0 23.5 -27t21.5 -54q4 -17 4 -42q0 -31 -8 -49z" />
<glyph unicode="-" horiz-adv-x="330" d="M278 248q0 -12 -8.5 -27t-18.5 -16l-59 -8q-51 -6 -72 -8q-3 0 -11 -4t-13 -4q-7 0 -15.5 2t-18 11t-9.5 23q0 12 6.5 22t15.5 11q2 0 8.5 -1.5t9.5 -0.5q4 0 48 7.5t84 11.5q5 1 15 4t14 3q9 1 16.5 -7.5t7.5 -18.5z" />
<glyph unicode="." horiz-adv-x="192" d="M105 34q0 -14 -14 -30t-29 -16q-26 0 -34 7q-15 11 -15 43q0 15 15 28t30 13q14 0 30.5 -16.5t16.5 -28.5z" />
<glyph unicode="/" horiz-adv-x="520" d="M536 618q0 -10 -10 -22q-135 -165 -268 -393q-161 -274 -204 -361q-4 -7 -6 -21.5t-5 -21.5q-8 -31 -38 -31q-9 0 -19.5 7.5t-10.5 19.5q0 14 64 126l357 607q74 123 113 123q11 0 19 -11.5t8 -21.5z" />
<glyph unicode="0" horiz-adv-x="592" d="M555 328q0 -69 -25 -123q-23 -49 -57 -90t-35 -44q-28 -45 -89.5 -81.5t-109.5 -36.5q-46 0 -73.5 14t-53.5 44q-38 42 -52 76t-14 83q0 81 53 166t134 147q49 34 129 34q18 0 45.5 -5t33.5 -5q16 0 23.5 -13t5.5 -28q11 -15 33.5 -39t34.5 -42.5t11 -35.5q0 -2 3 -11 t3 -10zM504 328q0 27 -10 44t-26.5 31.5t-22.5 24.5q-7 14 -6 21q-27 13 -61 13q-6 0 -26 -2.5t-30 -2.5q-3 -1 -11 -7.5t-14 -6.5q-30 0 -75.5 -44.5t-81.5 -114t-36 -129.5q0 -42 12 -71q12 -34 47.5 -56.5t68.5 -22.5q72 0 140.5 73t107.5 158q24 54 24 92z" />
<glyph unicode="1" horiz-adv-x="314" d="M228 380q-46 -170 -57 -230q-20 -103 -20 -128q0 -20 -9.5 -37.5t-21.5 -17.5q-14 0 -26 20t-12 33q0 21 5 31q9 24 22 89t16 76q35 138 41 167q2 4 2 23v22q8 54 18 76q1 6 10.5 10t16.5 4q10 0 27 -10.5t17 -20.5q0 -7 -5 -25.5t-13 -43.5t-11 -38z" />
<glyph unicode="2" horiz-adv-x="522" d="M489 29q0 -12 -13 -19t-27 -7q-3 0 -24 7.5t-46 7.5q-45 0 -147.5 -7t-118.5 -7q-42 0 -72 10q-6 2 -13 12t-7 16q0 8 5.5 15t10.5 9.5t16 6.5t13 5q60 26 126 74.5t101 104.5q41 62 41 127q0 62 -79 62q-8 0 -15.5 -2t-18 -5.5t-20.5 -5.5q-2 0 -7 -1l-11 -1q-5 0 -9 -2 q-34 -17 -42 -17q-12 0 -19.5 11.5t-7.5 18.5q0 18 17 26q19 9 61 16.5t79 7.5q63 0 100 -26q31 -24 31 -79q0 -82 -63 -169q-15 -22 -55.5 -58.5t-70.5 -56.5q-38 -26 -38 -32q0 -10 37 -10q68 0 143 5q15 0 39 6.5t39 6.5q65 0 65 -50z" />
<glyph unicode="3" horiz-adv-x="532" d="M450 101q0 -71 -74 -128t-160 -57q-51 0 -87.5 5.5t-53.5 11t-20 5.5q-2 0 -7.5 -0.5t-9.5 -0.5q-34 0 -34 30q0 12 12 24t22 12q6 0 30.5 -10t28.5 -11q62 -14 89 -14q70 0 134 40.5t64 104.5q0 39 -25.5 61.5t-53.5 22.5q-25 0 -37 -4q-21 -7 -45.5 -19t-40.5 -18.5 t-31 -6.5t-27 7t-12 20q0 8 5.5 17t12.5 12q23 10 53 20q25 13 64 41q34 24 68.5 70t34.5 63q0 31 -49 31q-45 0 -82.5 -11t-38.5 -11q-8 0 -20.5 10t-12.5 19q0 7 10 17.5t22 12.5q3 1 21.5 6.5t27.5 6.5q41 8 73 8q54 0 85 -21.5t31 -54.5q0 -13 -12 -42.5t-29 -51.5 l-18 -24l-18 -22q-6 -8 -6 -11q0 -8 20 -16q45 -21 70.5 -53t25.5 -91z" />
<glyph unicode="4" horiz-adv-x="554" d="M503 146q0 -16 -27 -16q-7 0 -30.5 1.5t-29.5 1.5q-22 0 -25 -19q-30 -150 -30 -198q0 -4 2.5 -9.5t2.5 -7.5q0 -23 -42 -23q-9 0 -20.5 8.5t-11.5 18.5q0 6 16.5 102t16.5 107q0 22 -47 22q-17 0 -61.5 -0.5t-59.5 -0.5q-10 0 -32.5 -2t-31.5 -2q-28 0 -43.5 10.5 t-15.5 28.5t82 109l162 172l23 23l18 20l14 14t12 11t9.5 6t10 4t9.5 1q12 0 25 14.5t26 14.5q15 0 26.5 -12.5t11.5 -30.5q0 -5 -5.5 -22t-7.5 -28q-6 -34 -15 -94l-17 -105q-8 -45 -10 -53q-1 -9 5.5 -14.5t15.5 -5.5q7 0 27 2t27 2q10 0 15 -17.5t5 -32.5zM384 450 q1 6 -4 11t-12 5q-13 0 -73 -62q-35 -35 -108 -116t-73 -89q0 -12 18 -12q10 0 96 0.5t101 0.5q4 0 9.5 5.5t6.5 10.5q29 171 39 246z" />
<glyph unicode="5" horiz-adv-x="574" d="M508 434q0 -11 -11.5 -25t-18.5 -14q-4 0 -14.5 4.5t-14.5 4.5q-32 5 -194 5q-27 0 -37 -4q-5 -1 -8.5 -4.5t-5.5 -9t-3 -10.5t-2 -13.5t-2 -12.5q-1 -5 -5.5 -18.5t-4.5 -20.5q0 -24 35 -27q115 -8 192.5 -60t77.5 -140q0 -110 -79 -166.5t-191 -56.5q-76 0 -128.5 28 t-52.5 57q0 12 7.5 22t17.5 10q5 0 9.5 -3.5t10.5 -10.5t11 -12q19 -15 55.5 -26t75.5 -11q85 0 143.5 41t58.5 107q0 74 -68.5 116t-153.5 42q-15 0 -34.5 -2.5t-23.5 -2.5q-16 0 -28.5 22.5t-12.5 36.5q0 3 3.5 11t8.5 18.5t7 18.5q2 7 8.5 32.5t8.5 35.5l6 28 q4 20 5.5 36t1.5 33q0 7 8.5 13t15.5 6q10 0 17 -9t23 -18.5t49 -9.5h90q12 0 36.5 -2t31.5 -2q4 0 14 2t14 2q9 0 30 -15t21 -26z" />
<glyph unicode="6" horiz-adv-x="561" d="M497 151q0 -56 -66.5 -101t-118.5 -45q-7 0 -22.5 -7t-30.5 -7q-62 0 -106 44.5t-53 122.5q0 7 -5 12t-11.5 8.5t-8.5 5.5q-9 18 -9 41q0 13 14.5 24.5t19.5 32.5q22 91 97 183.5t157 139.5q23 13 29 13q8 0 14.5 -5.5t6.5 -13.5q0 -43 -21 -54q-152 -79 -209 -237 q-2 -5 2 -9t11 -4q5 0 42.5 7t74.5 7q86 0 139.5 -42.5t53.5 -115.5zM445 147q0 46 -41 76t-108 30q-69 0 -112 -20q-8 -4 -18 -14t-11 -20q0 -67 30.5 -106t93.5 -39q70 0 118 28t48 65z" />
<glyph unicode="7" horiz-adv-x="511" d="M484 457q0 -13 -39 -89q-17 -31 -96.5 -154.5t-115.5 -185.5q-1 -2 -10.5 -11.5t-10.5 -15.5q-14 -65 -44 -65q-10 0 -18 13.5t-8 24.5q0 29 145 256q12 20 44 65t53 77.5t21 41.5q0 19 -18 19q-66 0 -130 3.5t-102 6.5t-41 3q-5 0 -19.5 -1.5t-24.5 -1.5q-7 0 -12 7 q-12 21 -12 43q0 10 8 15.5t17 5.5q2 0 41.5 -7t103 -14t122.5 -7q26 0 52.5 1t43 2.5t19.5 1.5q13 0 22 -11.5t9 -22.5z" />
<glyph unicode="8" horiz-adv-x="538" d="M468 413q0 -24 -15 -42t-30 -29t-15 -17q0 -3 11 -22t21.5 -51.5t10.5 -69.5q0 -36 -4 -56q-1 -5 -4 -10.5t-9 -13t-8 -9.5q-19 -40 -65.5 -72.5t-84.5 -36.5q-1 0 -9.5 -4.5t-22 -8.5t-28.5 -4q-60 0 -91 22q-33 13 -49.5 44.5t-16.5 62.5q0 36 17 70.5t38 55.5l37 40 q17 18 17 25q0 6 -13.5 17.5t-27 31t-13.5 46.5q0 53 31 88.5t105 72.5q29 12 92 12q24 0 44 -8q32 -14 57 -61.5t25 -72.5zM417 437q0 22 -13 30q-2 2 -12 7t-13 8q-4 2 -9.5 6.5t-10 7t-9.5 3.5q-3 0 -11.5 -3t-12.5 -3q-42 0 -98.5 -34.5t-56.5 -76.5q0 -24 17.5 -38 t37.5 -14q30 0 74 13t80.5 39t36.5 55zM404 212q0 62 -30 67q-4 1 -15 -1t-16 -2q-3 0 -9 4t-10 4q-9 0 -21.5 -6.5t-15.5 -7.5q-53 -14 -111 -73.5t-58 -110.5q0 -55 69 -61q3 0 14.5 0.5t12.5 0.5h8l4 -1q13 0 27.5 6.5t20.5 7.5q45 15 87.5 70t42.5 103z" />
<glyph unicode="9" horiz-adv-x="521" d="M467 317q0 -165 -106 -313t-232 -176q-5 -1 -21 -6t-29 -8t-18 -3q-13 0 -26.5 12.5t-13.5 22.5q0 12 9 27t23 15q5 0 17.5 -1t16.5 -1q25 0 71 21q133 54 220 255q22 52 27 92q1 6 -4 9t-9 -1q-36 -46 -126 -46q-36 0 -69 6.5t-63 20.5t-48.5 39.5t-18.5 60.5 q0 36 22.5 74t53.5 62q24 19 69 39.5t64 20.5q44 0 91 -46.5t70 -105.5q1 -2 10.5 -15t14.5 -25.5t5 -29.5zM399 354q0 34 -43 81.5t-80 47.5q-8 0 -9 -3q-5 -3 -13 -6t-11 -4q-45 -22 -82 -59t-37 -79q0 -27 35 -44.5t80 -17.5q77 0 139 54q21 18 21 30z" />
<glyph unicode=":" horiz-adv-x="250" d="M176 312q0 -13 -13 -27.5t-26 -14.5q-29 0 -37 8.5t-8 37.5q0 13 13.5 25t27.5 12q13 0 28 -15t15 -26zM118 16q0 -14 -13 -25.5t-27 -11.5q-12 0 -27 14.5t-15 26.5t13 26.5t26 14.5q27 0 35 -9t8 -36z" />
<glyph unicode=";" horiz-adv-x="250" d="M178 308q0 -14 -13.5 -25.5t-27.5 -11.5t-29 14.5t-15 26.5q0 13 13.5 27.5t26.5 14.5q29 0 37 -9t8 -37zM129 43q0 -19 -30.5 -61.5t-55.5 -69.5q-65 -73 -94 -73q-7 0 -13.5 4.5t-6.5 10.5q0 9 20 20q57 37 115 160q1 3 5 11l7 14q2 6 8.5 11t14.5 5q30 0 30 -32z" />
<glyph unicode="&#x3c;" horiz-adv-x="597" d="M473 364q-4 0 -12 1t-12 1q-28 0 -100 -24q-168 -51 -181 -61q-3 -3 -3 -5q0 -4 40 -31.5t62 -40.5q48 -32 170 -103q2 -1 20 -9.5t27.5 -17t9.5 -19.5q0 -13 -11.5 -19.5t-26.5 -6.5t-27 9l-177 115l-121 77q-9 6 -28 15t-28.5 17t-9.5 20q0 10 7 17t15 9.5t23.5 6 t21.5 5.5q10 3 35 16q80 31 198 65q73 20 101 20q20 0 32.5 -11.5t12.5 -22.5t-13.5 -17t-24.5 -6z" />
<glyph unicode="=" horiz-adv-x="514" d="M482 317q0 -15 -15.5 -24t-33.5 -9q-5 0 -14.5 3.5t-18.5 3.5q-13 0 -71.5 -2.5t-92.5 -2.5q-8 0 -22 2.5t-21 2.5t-24 -2.5t-22 -2.5q-44 0 -56 3q-6 3 -15 14t-9 15q0 24 49 24q16 0 43 -3q48 -4 86.5 -4.5t88 1t80.5 1.5q3 0 17 3t23 3q11 0 19.5 -7t8.5 -19zM450 147 q0 -33 -18 -33q-1 0 -10 3t-13 3q-97 5 -121 5q-1 0 -10.5 -2t-11.5 -2q-3 0 -7.5 2t-5.5 2q-11 0 -29 0.5t-29 0.5q-27 0 -65.5 -3t-40.5 -3q-18 0 -30.5 11t-12.5 23q0 10 9.5 17.5t22.5 7.5q2 0 17 -2.5t23 -2.5h299q33 0 33 -27z" />
<glyph unicode="&#x3e;" horiz-adv-x="564" d="M502 157q-10 -11 -21 -11q-25 0 -28 -1q-181 -49 -314 -106l-17 -8q-13 -7 -24.5 -12t-17.5 -5q-16 0 -27.5 14t-11.5 22q0 17 46 26q15 4 50 20q98 43 207 74q7 2 20.5 5.5t20.5 5.5l16 5q8 2 11.5 4.5t3.5 5.5q0 6 -75 49l-64 38q-41 25 -73.5 43t-71.5 37 q-14 7 -29 10.5t-21 6.5q-18 14 -18 33q0 17 26 17q17 0 29 -6l29 -15l46 -25l40 -22q116 -67 227 -144q55 -36 55 -39q0 -7 -2.5 -11t-6.5 -6.5t-5 -4.5z" />
<glyph unicode="?" horiz-adv-x="334" d="M361 503q0 -30 -20 -60.5t-40.5 -47.5t-53.5 -39.5t-36 -25.5q-41 -31 -64 -67l-11 -19l-9 -16q-3 -6 -6.5 -11.5t-6.5 -7.5t-6 -2q-19 0 -19 40q0 62 147 167q71 51 71 94q0 23 -21.5 39.5t-44 22t-41.5 5.5q-16 0 -34 -5.5t-24 -5.5q-12 0 -20 15t-8 28q0 14 32.5 22.5 t57.5 8.5q58 0 107.5 -39t49.5 -96zM178 13q0 -30 -44 -30q-26 0 -26 33q0 38 30 38q40 0 40 -41z" />
<glyph unicode="@" horiz-adv-x="729" d="M707 376q0 -49 -52 -111t-113.5 -103t-92.5 -41q-24 0 -36.5 18.5t-18.5 37.5t-12 19q-3 0 -13.5 -7t-23.5 -17l-25 -21l-23 -19q-11 -10 -13 -12q-19 -15 -50 -15q-43 -1 -43 82q-1 42 18.5 75t62.5 80q24 26 66.5 44.5t65.5 20.5q21 1 51.5 -26t31.5 -57q0 -2 -11 -20 t-13 -25q-1 -7 -6.5 -35t-5.5 -33q0 -9 7.5 -18t16.5 -9q32 2 110 74t78 117q0 58 -53.5 100.5t-150.5 42.5q-20 0 -37.5 -0.5t-32.5 -2.5t-24.5 -3.5t-21.5 -4.5t-16 -4.5t-15.5 -5.5t-12.5 -4q-43 -12 -46 -13q-5 -3 -11 -9.5t-10 -9.5q-57 -40 -84 -114.5t-27 -150.5 q0 -113 62 -187.5t176 -74.5q88 0 173 54q8 5 23 16t23.5 16t14.5 5q11 0 11 -12q0 -16 -54 -63q-42 -30 -99.5 -50t-105.5 -20q-126 0 -202 97.5t-76 235.5q0 105 55.5 205t141.5 136q6 2 17.5 3t14.5 2q61 23 168 23q99 0 171 -59.5t72 -146.5zM420 330q0 5 -7 12t-13 7 q-42 0 -87 -35q-34 -26 -54.5 -63.5t-20.5 -57.5q0 -30 24 -30q29 0 93.5 59t64.5 108z" />
<glyph unicode="A" horiz-adv-x="559" d="M493 7q0 -16 -10 -26t-22 -10q-21 0 -39 28q-17 29 -22 64q-1 10 -2.5 28t-3 30.5t-5.5 19.5q-3 10 -26 10q-1 0 -13 -1t-27.5 -2t-26.5 -1q-28 0 -66.5 3t-50.5 3q-25 0 -34 -2.5t-16 -12.5q-27 -37 -129 -191q-1 -2 -7 -5.5t-10 -3.5q-12 0 -26 14.5t-14 25.5 q0 18 16 38q55 64 107.5 140.5t85.5 130.5l140 231q13 21 31.5 61t26.5 55q8 13 17 13q6 0 9.5 -2t8.5 -10t8 -11q2 -2 8.5 -4t9.5 -4q15 -17 15 -41q0 -13 -1 -37.5t-1 -38.5q0 -8 2.5 -40.5t6 -84t5.5 -95.5q9 -190 34 -234q2 -5 11.5 -16.5t9.5 -21.5zM384 208 q-2 54 -6 102t-4 57q-6 72 -7 94q-3 40 -13 40q-6 0 -21 -29q-26 -47 -65 -110l-62 -99q-23 -37 -23 -43q0 -3 2.5 -5.5t7.5 -4t9.5 -2t11.5 -1.5t10 -2q78 -10 94 -10q47 0 60 4q6 1 6 9z" />
<glyph unicode="B" horiz-adv-x="600" d="M541 167q0 -49 -45 -91t-106.5 -65.5t-116.5 -36.5t-86 -13q-1 0 -18 1t-18 1q-9 0 -14 -9q-16 -25 -33 -25q-14 0 -22 30q-1 3 -9 16t-13 26.5t-5 30.5q0 11 16.5 38.5t19.5 43.5l31 194q10 84 13 115t2.5 66.5t-8.5 69.5q-1 3 -6 14.5t-5 17.5q0 15 20.5 24t41.5 9 q173 0 237 -17q120 -34 120 -114q0 -36 -57 -98q-12 -13 -34 -30l-36 -30q-15 -12 -15 -17t15 -13.5t39 -20t35 -18.5q57 -35 57 -99zM471 505q0 32 -60 48.5t-98 16.5q-95 0 -100 -15q-6 -17 -6 -38v-78q-3 -39 -7 -81q0 -5 -2 -9l-2 -8q-1 -3 -1 -4q0 -5 5 -11t8 -6 q62 0 122 29q105 49 134 122q7 15 7 34zM478 170q0 22 -15 43t-42 30q-30 12 -109 19q-9 1 -95 1q-34 0 -38 -18q-22 -106 -30 -183q-4 -22 -4 -28q0 -5 4 -13t9 -8h30q42 0 104.5 19.5t99.5 39.5q40 24 63 50.5t23 47.5z" />
<glyph unicode="C" horiz-adv-x="596" d="M574 586q-4 -27 -29 -27q-5 0 -17.5 7.5t-40 14.5t-67.5 7q-50 0 -104 -23.5t-99 -64t-74 -101t-29 -127.5q0 -64 34.5 -133.5t77.5 -100.5q45 -33 98 -33q62 0 151 50q12 7 28.5 18.5t26.5 17.5t16 6q11 0 11 -17q0 -20 -54 -64q-44 -35 -98.5 -55t-95.5 -20 q-52 0 -102 33t-89 87q-69 95 -69 225q0 54 26.5 117t74 121t125 96t168.5 38q15 0 98 -24q14 -4 23.5 -19.5t9.5 -28.5z" />
<glyph unicode="D" horiz-adv-x="671" d="M637 313q0 -179 -216 -289q-33 -17 -94.5 -38.5t-87.5 -21.5q-13 0 -29.5 3t-22.5 3q-2 0 -29 -4.5t-42 -4.5q-18 0 -34 13t-16 27t16 62q1 31 23.5 142t22.5 199q0 14 1 46t0 52.5t-4 43.5q-3 11 -11 11q-12 0 -29 8t-17 22q0 24 14 26q27 7 84 7q37 0 73 -12 q127 -22 208 -55q190 -79 190 -240zM574 320q0 99 -95 154q-63 36 -146 58.5t-111 22.5q-8 0 -15 -4.5t-7 -12.5q0 -130 -4 -171q-7 -79 -27.5 -187t-22.5 -130q0 -4 -2 -11.5t-2 -9.5q0 -13 29 -13q59 0 121 22q52 16 99.5 41t89.5 59.5t67.5 82t25.5 99.5z" />
<glyph unicode="E" horiz-adv-x="598" d="M547 45q0 -28 -59 -55t-106 -39q-48 -12 -98 -12q-67 0 -112 15q-3 1 -28 11.5t-31 10.5l-7 -4q-6 -4 -11 -4q-11 0 -21 15.5t-10 27.5q0 16 4 35t11 43t9 35q16 67 32 164q2 14 7 45l8 51q3 19 5.5 45.5t2.5 48.5q0 34 -15 52t-15 29q0 15 20 22t39 7q14 0 42 -7t43 -7 q22 0 173 13q69 6 70 6q12 0 25 -11t13 -23t-12.5 -21.5t-25.5 -9.5q-2 0 -8 0.5t-9 0.5q-33 0 -100.5 -8.5t-102.5 -8.5q-7 0 -22.5 1t-23.5 1q-23 0 -27 -11q-2 -5 -3.5 -36.5t-2.5 -36.5q-1 -14 -7 -51t-6 -54q0 -18 57 -22q66 -6 98 -6q60 0 110 10q7 1 30 9t29 8 q26 0 26 -42q0 -10 -29 -21t-43 -12q-72 -12 -129 -12q-24 0 -70.5 4.5t-69.5 4.5q-16 0 -21.5 -8t-11.5 -38q-9 -45 -18 -83t-12.5 -54t-3.5 -24q0 -17 46.5 -28.5t70.5 -11.5q101 0 203 35q5 2 35 17t47 15q15 0 15 -21z" />
<glyph unicode="F" horiz-adv-x="478" d="M480 566q0 -15 -22.5 -22t-43.5 -7q-28 0 -83.5 -4t-84.5 -4q-13 0 -21.5 -4t-13 -8t-6.5 -16t-2 -17v-21q0 -15 -4 -47t-4 -48q0 -10 1 -13q15 -26 116 -26q26 0 65 4t49 4q19 0 24 -4.5t5 -25.5q0 -16 -58 -24q-49 -12 -104 -12q-16 0 -72 7q-2 0 -11 2t-14 2 q-12 0 -21 -46l-3 -12q-23 -123 -26 -152q-1 -13 -1 -37t-2.5 -43.5t-9.5 -36.5q-10 -7 -13 -5q-4 0 -13 -2t-14 -2q-21 0 -21 67q0 64 25 170q9 33 24 116q1 3 12 129q6 75 6 152q0 7 7 12t15 5t24.5 -3t18.5 -3q29 -4 68 -4q25 0 73.5 6.5t72.5 6.5q20 0 41 -8.5t21 -25.5 z" />
<glyph unicode="G" horiz-adv-x="748" d="M726 267q0 -37 -33 -97q-27 -51 -64 -88q-100 -105 -209 -127q-7 -1 -20.5 -4.5t-25 -6t-20.5 -2.5q-46 0 -59 3q-40 7 -84 26q-34 15 -83 47q-41 33 -71 90q-20 36 -20 91q0 49 8 76q26 91 114 183q95 95 171 126q34 15 52 15q4 0 16.5 2.5t22.5 2.5q27 0 59.5 -19 t32.5 -44q0 -8 -8.5 -13.5t-16.5 -5.5q-1 0 -9.5 3.5t-20 7t-20.5 3.5q-45 0 -66 -7q-32 -10 -63 -32q-48 -31 -108 -92q-37 -38 -67.5 -93t-30.5 -109q0 -44 26 -88.5t62 -77.5q5 -5 33 -19q17 -10 40 -14q38 -7 62 -7q99 0 210 78q61 43 85 87q26 48 26 66q0 11 -13 11 t-41.5 -0.5t-42.5 -0.5q-13 0 -39.5 -2.5t-40.5 -2.5q-4 0 -10 1.5t-9 1.5q-7 0 -21.5 -3t-21.5 -3q-14 0 -24 10t-10 24q0 17 18 23q30 10 169 10q23 0 69 4q40 7 52 7q44 0 44 -41z" />
<glyph unicode="H" horiz-adv-x="718" d="M655 580q0 -32 -12 -88q-2 -13 -5.5 -43.5t-7.5 -53.5t-10 -44q-6 -15 -7 -27q-1 -23 -10 -53q-15 -45 -15 -64q0 -10 -1 -14q-14 -54 -19 -90q-4 -54 -9 -82q-4 -33 -33 -33q-30 0 -30 46q0 23 17 133q2 10 8 29t9.5 33t3.5 25q0 7 -14 7q-10 0 -26.5 -1.5t-25.5 -1.5 h-56q-34 0 -54 -3q-17 -2 -50.5 -4.5t-43.5 -3.5q-46 -2 -72 -9q-17 -5 -25 -47q-15 -76 -21 -121q-1 -7 -3.5 -19t-3.5 -15q-4 -55 -15 -82q-2 -5 -12.5 -13t-16.5 -8q-9 0 -21.5 20.5t-12.5 30.5q0 4 9 55q0 4 3 12t3 12q6 37 20.5 105.5t19.5 95.5l30 135q0 3 8 21 q5 15 11 66.5t6 66.5q0 49 1 59q3 23 9 34.5t11 13.5t15 2q15 0 29.5 -12.5t14.5 -27.5q0 -31 -13 -119q-4 -25 -14 -74t-11 -55l-5 -18l-6 -26q-3 -12 -3 -14q0 -6 10 -11q1 -2 40 -2h43q28 -2 72 -2q10 0 44 -0.5t55 -0.5q6 0 19.5 -0.5t20.5 -0.5q36 0 39 18 q2 12 10.5 58t11.5 70q1 8 3 28t4 31q7 33 7 42q0 31 5 55q2 10 11 17.5t19 7.5q13 0 27.5 -16.5t14.5 -29.5z" />
<glyph unicode="I" horiz-adv-x="297" d="M249 599q0 -32 -27 -140q-1 -5 -1.5 -14t-0.5 -12q-2 -8 -7.5 -23t-7.5 -23q-1 -5 -1.5 -15.5t-0.5 -13.5q-12 -68 -27 -117q-13 -52 -13 -59q0 -9 -4.5 -25t-11.5 -36l-8 -25q-18 -69 -26 -132q-3 -16 -5 -19q-9 -12 -25 -12q-17 0 -25 17q-1 3 -8.5 12t-8.5 14 q-1 4 2 27q2 13 9 30.5t9 24.5q8 36 11 46q18 55 27 97q4 23 15 63.5t15 59.5q29 133 29 184q0 10 10 70q2 1 0.5 8t-1.5 9q0 13 12.5 28.5t24.5 15.5q15 0 30 -13t15 -27z" />
<glyph unicode="J" horiz-adv-x="333" d="M274 583q0 -7 -2.5 -19t-2.5 -17q-2 -21 -11 -79q-4 -24 -8.5 -76t-9.5 -79l-11 -56q-7 -41 -14 -73.5t-16 -65.5q0 -2 -1 -15t-2 -17q0 -4 -1.5 -7.5t-4 -8t-3.5 -7.5q-2 -7 -4.5 -22.5t-5.5 -24.5l-14 -36q-10 -28 -15 -44q-17 -53 -49 -104q-3 -6 -11 -15.5t-10 -12.5 q-21 -32 -25 -36q-94 -94 -186 -94q-31 0 -51 5q-30 6 -80 34t-50 45q0 9 11 17.5t20 8.5q5 0 17 -5.5t22.5 -11.5t24 -14.5t15.5 -9.5q24 -11 66 -11q62 0 123 60t103 159q15 33 24 70q3 13 10.5 38t8.5 30l6 37q5 27 8 41q12 79 24 134q13 90 15 120q0 1 1 25.5t5 35.5 q16 69 16 123q0 6 6.5 13t12.5 8q12 0 30.5 -11t18.5 -32z" />
<glyph unicode="K" horiz-adv-x="665" d="M647 47q0 -10 -11.5 -24t-21.5 -14q-25 0 -96 45l-88 56l-103 66q-46 29 -89 53q-8 4 -17.5 9.5t-14.5 8t-7 2.5q-11 0 -13 -13q-3 -22 -7 -42.5t-11.5 -47t-11.5 -38.5l-15 -47q-11 -34 -13 -41q-22 -64 -25 -84q-1 -7 -11.5 -15t-16.5 -8q-10 0 -21 20t-11 31 q0 2 6.5 32.5t7.5 32.5q1 4 5.5 11t5.5 11q35 94 49 217q0 5 5 24.5t11.5 41.5t7.5 28q9 34 20 125q6 81 6 83q0 10 -12.5 17.5t-12.5 13.5t24.5 26t33.5 20t24 -10t17 -17q4 -16 4 -25q0 -6 -2 -18.5t-2 -14.5q-10 -90 -32 -211q7 -5 9 -5q39 33 165.5 126.5t183.5 131.5 q21 13 26 14q10 0 21 -14.5t11 -24.5q0 -16 -30 -37q-3 -2 -10 -5t-10 -5q-81 -50 -143 -96q-34 -23 -97 -75t-63 -61q0 -10 19 -24q26 -19 137 -89q96 -61 155 -91q8 -4 18 -4h10q7 0 21.5 -18.5t14.5 -26.5z" />
<glyph unicode="L" horiz-adv-x="509" d="M483 22q0 -21 -15 -38q-21 -24 -88 -33t-125 -9q-109 0 -159 15q-9 2 -19 10t-11 17q-5 4 -13.5 7t-11.5 7.5t-3 18.5q0 18 5.5 39t15.5 49t12 34l25 76l30 90q12 39 21 77q21 81 32 177l3 35q2 22 4 34q1 8 10.5 14.5t17.5 6.5q11 0 25.5 -10t18.5 -21q3 -5 3 -17 q0 -7 -3.5 -19.5t-3.5 -18.5q-5 -48 -14 -95.5t-26 -104.5l-26 -87q-9 -30 -34 -99.5t-30 -84.5q-19 -54 -19 -58q0 -7 17 -13.5t27 -7.5q35 -9 121 -9q53 0 112 8q14 2 44 14t41 12q16 0 16 -16z" />
<glyph unicode="M" horiz-adv-x="912" d="M819 447q-2 -55 -5 -84q-1 -7 -3 -53t-6 -79t-11 -64q-2 -10 -3 -31.5t-2 -31.5q-3 -37 -6 -43q0 -12 4.5 -33t4.5 -29q0 -3 -0.5 -9t-0.5 -10t1 -11.5t1 -10.5q0 -9 -16.5 -22.5t-25.5 -13.5q-20 0 -29 37q-3 17 -3 83q4 31 7 50l10 78q6 54 10 81q3 25 5 71.5t3 56.5 q0 18 5 57t5 60q0 2 -3.5 4.5t-5.5 2.5t-9 -8.5t-15 -19.5t-9 -13q-34 -35 -60 -74q-6 -8 -28 -34.5t-32 -41.5q-61 -95 -86 -138q-69 -116 -69 -175q0 -3 -5.5 -9.5t-8.5 -5.5q-8 1 -12.5 -6t-10.5 -7q-9 0 -23 12t-16 20q0 22 -3.5 49.5t-9.5 60t-8 46.5q-2 10 -12.5 77.5 t-14.5 102.5q-3 48 -10 87q-1 3 -2 20t-4 28.5t-10 11.5l-5 -7q-11 -17 -28 -51l-20 -37q-29 -49 -128 -271q-7 -14 -24 -43t-24 -45q-1 -3 -4.5 -16t-8.5 -19q-1 -1 -7 -10t-10 -14.5t-10 -10.5t-11 -5q-8 0 -20 16t-12 24q0 6 4 13t10.5 15t8.5 11q30 52 75 150 q119 262 180 365q3 5 11 21.5t15.5 29.5t11.5 18q4 4 12 4q29 0 39 -15t10 -45t1 -46l6 -46q4 -30 6 -43l29 -224q5 -53 10 -71q6 -6 8 -6q5 0 13 12.5t22 39.5l22 40q71 118 247 338l14 22q13 18 23.5 29t19.5 11q10 0 26 -13q6 -4 8.5 -10t2.5 -10.5t-0.5 -12.5t-0.5 -12 q5 -45 0 -115z" />
<glyph unicode="N" horiz-adv-x="792" d="M736 595q0 -15 -3 -31.5t-8 -36.5t-7 -31q-5 -30 -16.5 -89.5t-14.5 -82.5q-17 -121 -19 -153q-2 -34 -4 -41v-29q0 -35 -5 -50q-1 -6 -16 -16t-21 -10q-4 0 -14.5 9.5t-28 27.5t-26.5 26q-120 108 -179 174q-75 83 -133 159q-3 4 -8.5 13.5t-9.5 15t-6 5.5 q-6 0 -9.5 -11.5t-5 -28t-2.5 -18.5q-4 -10 -7 -23q-7 -74 -18 -123q-9 -45 -28 -119q-20 -72 -39 -182q-1 -7 -12 -17.5t-18 -10.5q-10 0 -19 21t-9 33q0 14 5 35.5t13.5 48.5t10.5 37q10 45 26 129.5t23 118.5q1 5 5 17.5t5 19.5q2 8 3 23t2 19l6 23q2 16 4 47.5t5 47.5 q1 8 10.5 20t17.5 12q18 0 34 -19q18 -21 31 -38l28 -39l26 -36q46 -61 93.5 -114.5t79.5 -85.5l90 -87q23 -21 28 -21q7 0 12 30q1 10 6 52.5t10.5 84.5t12.5 83q12 80 13 86q12 74 18 96q1 2 1 9t1 11q6 48 34 48q9 0 20.5 -14.5t11.5 -24.5z" />
<glyph unicode="O" horiz-adv-x="767" d="M741 382q0 -4 -1 -11t-1 -10q-29 -125 -94 -223q-48 -69 -119 -121.5t-135 -62.5q-5 -1 -22.5 -7t-27.5 -6q-5 0 -16 2t-16 2q-3 0 -7 -1t-7 -1q-20 0 -34 7q-78 21 -122 70q-72 79 -86 166q-7 45 -6 75q4 50 8 72q12 68 65 121q2 2 6 8l6 9q66 81 179 112q92 28 139 28 q10 0 29.5 -1.5t29.5 -1.5q7 0 22 1.5t22 1.5q26 0 51 -10q5 -1 16 -8.5t17 -8.5q38 -6 69.5 -60.5t29.5 -98.5zM686 405q1 61 -33.5 97.5t-94.5 38.5q-60 4 -87 4q-43 0 -120 -20q-99 -29 -163 -87q-15 -13 -39 -54.5t-27 -58.5q0 -8 -4 -35.5t-4 -42.5q-2 -75 37 -143 t108 -90q35 -11 66 -11q149 0 271 172q35 49 62 113.5t28 116.5z" />
<glyph unicode="P" horiz-adv-x="612" d="M618 412q0 -33 -52.5 -72t-94.5 -53q-3 -1 -10 -4.5t-11 -4.5q-73 -25 -133 -25q-12 0 -63 11q-45 12 -51 12q-9 0 -11 -10q-3 -10 -7 -29t-7 -30q-10 -32 -40 -170q-1 -3 -4.5 -32.5t-9.5 -42.5q-2 -5 -17.5 -17.5t-19.5 -12.5q-9 0 -18.5 19t-9.5 29t10 43.5t11 39.5 q8 32 28 136q9 43 20 136t11 170q0 7 -7.5 22.5t-7.5 26.5q0 32 80.5 50t133.5 18q146 0 213 -52t67 -158zM555 429q0 26 -4 39q-4 18 -24.5 41.5t-37.5 31.5q-35 18 -144 18q-41 0 -85.5 -9.5t-47.5 -25.5q-1 -8 -1 -25q0 -9 0.5 -28t0.5 -29t-3 -21q-8 -72 -8 -83 q0 -13 11 -17q29 -12 93 -12q52 0 109.5 20t99.5 47q41 28 41 53z" />
<glyph unicode="Q" horiz-adv-x="791" d="M754 374q0 -59 -21.5 -118.5t-58.5 -102.5q-13 -15 -27 -29l-20 -22q-6 -6 -6 -11q0 -8 23.5 -26t35.5 -24q4 -2 14.5 -6t16.5 -7q7 -6 16 -21t9 -24q0 -8 -12.5 -17t-19.5 -9q-5 0 -68.5 44t-67.5 44t-11 -4.5t-20.5 -14.5t-24.5 -17q-55 -34 -116 -46q-31 -6 -85 -6 q-30 0 -65.5 13.5t-59.5 32.5q-55 39 -75 77q-3 6 -7 16t-7 16q-48 92 -48 180q0 36 22 88q2 5 4 17t4 17q16 43 35 68q30 37 63.5 63t85.5 46q115 47 245 47q68 0 128.5 -40.5t95.5 -102.5q1 -2 7 -29q15 -45 15 -92zM700 413q0 35 -15.5 61t-46.5 58q-45 39 -110 39 q-6 0 -18.5 2t-18.5 2q-4 0 -12.5 -2.5t-11.5 -2.5q-111 -15 -180 -46q-81 -38 -120 -95q-51 -77 -51 -168q0 -98 55 -171t149 -73q63 0 151 45q1 1 8.5 4t11.5 6l10 6q5 3 8 7.5t3 9.5q0 9 -29.5 45t-29.5 61q0 7 7.5 12t14.5 5q11 0 44.5 -40t42.5 -40q18 0 46 35t56 89 q36 67 36 151z" />
<glyph unicode="R" horiz-adv-x="638" d="M618 -22q0 -10 -12.5 -20.5t-22.5 -10.5q-12 0 -27 9.5t-24.5 18.5t-25.5 27l-20 20q-53 52 -131 113.5t-117 75.5q-32 10 -51 10q-4 0 -8.5 -4t-6.5 -9q-6 -17 -19 -76q-24 -108 -24 -111q0 -1 1.5 -5.5t1.5 -7.5q0 -17 -11 -36q-13 -21 -32 -21q-9 0 -14 8q-1 2 -3 8.5 t-4 10.5q-2 3 -6.5 8t-7.5 10t-3 9q0 5 6 13.5t7 11.5q42 185 56 257q13 68 23 145q8 54 8 86q0 12 -7 33t-7 31q0 36 80 46q3 0 13.5 2.5t15.5 2.5q29 0 91 -12q50 -9 109 -28q146 -38 146 -118q0 -25 -25 -64q-58 -89 -176 -136q-16 -7 -31 -10q-1 0 -8.5 -2t-11.5 -3.5 t-10 -4t-9 -7t-3 -9.5q0 -3 2.5 -6t7.5 -6l10 -7l13 -9q7 -6 13 -10q71 -52 181 -151q19 -17 31 -20q26 -6 34 -16t8 -36zM528 484q0 14 -25 29q-33 20 -103 34.5t-111 14.5q-36 0 -52 -5q-2 -1 -4 -4.5t-4 -9.5t-3.5 -12.5t-3 -17.5t-3 -19t-3.5 -21.5t-3 -22.5l-8 -57 q-5 -36 -7.5 -55.5t-2.5 -24.5q0 -22 50 -22q54 0 141.5 44.5t120.5 94.5q21 32 21 54z" />
<glyph unicode="S" horiz-adv-x="441" d="M436 596q0 -11 -5.5 -24.5t-13.5 -13.5q-9 0 -18 10t-13 12q-17 11 -46 11q-41 0 -95.5 -56.5t-54.5 -122.5q0 -42 34 -87q18 -23 59 -67t55 -61q29 -36 29 -81q0 -44 -18 -73q-23 -40 -65 -69q-45 -33 -102 -52t-106 -19q-46 0 -86.5 25.5t-40.5 62.5q0 13 6.5 30 t17.5 17q5 0 8.5 -3.5t6 -9.5t4 -11t3 -12t1.5 -9q4 -17 24.5 -27.5t39.5 -10.5q34 0 62 7q31 8 70 29t72 53.5t33 63.5q0 24 -13.5 47.5t-49 61t-41.5 45.5q-38 48 -56 85.5t-18 80.5q0 48 32 96t76 80q69 49 121 49q29 0 58.5 -14.5t29.5 -42.5z" />
<glyph unicode="T" horiz-adv-x="436" d="M496 574q0 -12 -8 -20.5t-20 -8.5q-7 0 -73 6q-33 4 -66 4q-15 0 -18 -14q-6 -24 -13 -70t-12 -67q-21 -89 -57 -184q-13 -35 -22 -77q-1 -2 -4.5 -9.5t-5.5 -12.5q-21 -89 -21 -110q0 -3 2 -11t2 -11q0 -14 -11 -29t-24 -15q-15 0 -27 9q-15 8 -15 32q0 16 2.5 30 t8.5 34t8 30q7 34 49 166q40 128 46 151q26 98 26 141q0 11 -26 15q-4 0 -44.5 -0.5t-58.5 1.5q-68 8 -68 47q0 10 11.5 17.5t22.5 7.5q15 0 84 -4.5t100 -5.5q75 -3 147 -3q14 0 29 6.5t19 6.5q5 0 14.5 -8t13.5 -15q9 -13 9 -29z" />
<glyph unicode="U" horiz-adv-x="708" d="M687 546q0 -5 -5.5 -13.5t-6.5 -11.5q0 -2 -2 -32.5t-6 -42.5q-1 -4 -6 -19t-7 -24q-15 -96 -79 -210q-30 -51 -72 -96q-25 -25 -83 -69q-37 -29 -64 -42.5t-64 -13.5q-51 0 -125 60q-4 3 -11.5 8t-13.5 9.5t-10 9.5q-53 60 -53 174q0 69 24.5 168.5t45.5 161.5 q10 34 27 34q12 0 26.5 -16t14.5 -27q0 -17 -5.5 -38.5t-18 -58t-17.5 -53.5q-32 -117 -32 -187q0 -53 14 -88t53 -68q32 -25 68 -25q70 0 180 110q55 55 104 178t49 205q0 9 -1.5 25t-1.5 25q0 10 10 15.5t21 5.5h9q38 -35 38 -54z" />
<glyph unicode="V" horiz-adv-x="597" d="M663 567q0 -8 -8.5 -21t-15.5 -16q-17 -9 -36 -42q-78 -122 -108 -163l-184 -258q-33 -44 -44 -89q-1 -5 -8 -7q-2 -1 -7 0t-9 -1q-3 -1 -9.5 -4.5t-11.5 -3.5q-11 0 -33 60q-27 78 -60 241t-61 242q-2 6 -10.5 29t-15 42.5t-6.5 26.5q0 8 8 15.5t17 7.5q13 0 30.5 -18 t24.5 -38q18 -47 29 -94q3 -14 13.5 -55t15.5 -64l37 -186q12 -72 28 -72q5 0 11.5 5.5t16.5 17t17 21.5l22 28l20 26q57 73 162 225q31 45 66.5 107t46.5 79q8 12 29 12q11 0 22 -21t11 -32z" />
<glyph unicode="W" horiz-adv-x="848" d="M913 647q0 -6 -1.5 -11t-4 -10.5t-3.5 -9.5q-26 -95 -128 -269q-6 -11 -19 -30l-20 -29q-2 -4 -5 -13.5t-6 -13.5q-5 -9 -15.5 -26.5t-15.5 -26.5q-64 -122 -74 -201q-2 -13 -3.5 -18t-7 -11t-15.5 -6q-19 0 -37 29q-5 8 -19 53q-7 24 -21 84q-22 103 -31 209 q-1 18 -6 51t-10 44q-2 8 -9 8q-40 -44 -88 -117q-76 -114 -156 -259q-19 -35 -35 -75q-8 -20 -13 -29q-8 -15 -20 -15q-6 0 -23 9.5t-18 15.5q-1 9 -1 29q0 16 0.5 47.5t0.5 47.5q0 59 -2 175q-2 64 -15 153q-2 7 -3.5 23t-2.5 23q-4 21 -14 43l-8 23q-6 20 -6 30 q0 11 7 22t18 11q17 0 29.5 -25t24.5 -87q22 -123 24 -157q2 -76 2 -96q0 -60 -4 -93q0 -27 11 -27q3 0 10.5 11t16 25t10.5 16q22 33 60.5 96.5t57.5 92.5l49 72q41 59 63 97q6 11 11 23t7.5 18.5t6 10.5t9.5 4t20 -4q4 -3 12.5 -26t10.5 -33v-29q0 -7 2 -9q3 -11 20 -132 q11 -106 26 -187q10 -46 17 -46q3 0 9 12q15 24 40 72t38 70l50 82q36 60 59 102t36 73q12 28 28.5 79t23.5 70q5 11 17 11q33 0 33 -46z" />
<glyph unicode="X" horiz-adv-x="639" d="M673 584q0 -6 -2 -10.5t-4 -6.5l-8 -6q-5 -4 -7 -6q-64 -53 -154.5 -136.5t-111.5 -101.5q-13 -11 -13 -22q0 -18 33 -68t64 -88q49 -62 76 -81q14 -11 29 -17q10 -9 14.5 -22t4.5 -19v-28q0 -7 -12 -12t-21 -5q-13 0 -28 15q-2 2 -17 18.5t-19 20.5t-18 20l-19 22 l-17 20q-12 14 -18 24l-15 22q-9 12 -15 24l-13 22q-16 15 -36 51t-26 43q-2 1 -3 1h-4q-7 -1 -62 -50t-68 -63q-17 -18 -52.5 -43t-46.5 -34q-10 -8 -27.5 -25.5t-25.5 -24.5l-24 -19l-39 -31q-19 -14 -22 -14q-7 0 -21 12.5t-14 19.5q0 14 33 39l196 164q81 72 131 112 q10 9 10 21q0 5 -7.5 17t-18.5 27t-15 23q-9 16 -41 61q-4 5 -36 59q-7 13 -21 32q-3 3 -9 9.5t-7.5 9.5t-3.5 9t-2 14q0 26 38 26q4 0 9 -3.5t10 -10l8 -10.5l8 -12q5 -8 5 -9q6 -8 23 -33t25 -39l82 -128q7 -5 10 -5q4 0 14 8l106 96q30 26 42 40q8 8 34 31l39 37l16 16 q14 14 24.5 23t17.5 11q6 3 11 3q11 0 21 -14.5t10 -25.5z" />
<glyph unicode="Y" horiz-adv-x="434" d="M484 612q-7 -23 -35 -70q-26 -43 -87.5 -112.5t-77.5 -90.5q-16 -15 -22 -51q-6 -43 -13 -62v-5q0 -8 -4 -24q-11 -34 -23 -97t-17 -83l-4 -25q-3 -18 -6.5 -34t-6.5 -22q-3 -8 -17.5 -17.5t-23.5 -9.5t-10 9q-5 20 -5 44q0 20 10.5 66.5t10.5 62.5q0 3 3 12t3 10 q11 59 13 65q3 8 21 92q3 10 -10 35l-39 67q-26 44 -41 67l-35 51q-31 44 -46 68q-9 23 -9 38q-1 9 7 17.5t17 8.5h5q2 0 4 -1.5t4 -2.5t4.5 -3.5l4.5 -4.5l4 -6l5 -7q2 -2 6 -7l5 -8q34 -45 82 -128l19 -31q5 -9 14 -22.5t14 -18.5t9 -4q13 0 42 27q53 56 104 119 q21 25 69 101q15 22 31 20q21 0 21 -33z" />
<glyph unicode="Z" horiz-adv-x="535" d="M529 76q0 -15 -11.5 -24t-24.5 -11.5t-27.5 -3.5t-16.5 -1q-22 -7 -79 -18q-29 -5 -57 -5q-34 -2 -50 -5q-87 -12 -88 -12q-48 -7 -82 -8q-10 0 -32.5 -4t-34.5 -4q-30 0 -30 41q0 22 29 53q16 17 34 46q69 98 270 358l16 22l15 20l11 14q6 8 8.5 12.5t2.5 6.5 q0 4 -5.5 7.5t-9.5 3.5q-89 0 -218 -15q-24 -8 -25 -8q-13 0 -20 17t-7 31q0 28 33 28q4 0 14 -1.5t14 -1.5q12 0 149 11q72 8 84 8q20 0 31 -4q14 -4 30 -20.5t16 -29.5q0 -7 -2 -11.5t-8 -12t-7 -8.5q-3 -4 -8 -15t-9 -16q-3 -4 -10.5 -11.5t-10.5 -11.5l-39 -57l-84 -104 q-58 -73 -91 -111l-28 -37l-32 -41q-15 -19 -30 -48q-1 -1 -8.5 -12t-7.5 -16q0 -6 8 -10q124 0 383 35q9 2 17.5 19.5t14.5 17.5q12 0 12 -45z" />
<glyph unicode="[" horiz-adv-x="347" d="M347 637q0 -26 -21 -26q-6 0 -17.5 3.5t-13.5 3.5q-27 6 -102 6q-18 0 -25 -21.5t-7 -44.5q0 -9 -3.5 -25t-3.5 -22v-17q0 -12 -1 -18q-4 -49 -11 -119q0 -7 0.5 -19t0.5 -18q0 -89 -6 -148q-7 -61 -7 -111q0 -21 1 -61t1 -61v-14q-1 -6 -4.5 -25t-3.5 -29q0 -47 5 -68 q2 -10 13 -12q19 -5 51 -5q11 0 33 1.5t32 1.5q12 0 27.5 -6t15.5 -17q0 -41 -52 -41q-9 0 -28 2t-29 2q-11 0 -32.5 -4t-33.5 -4q-23 0 -30 4q-4 3 -17 24.5t-13 25.5q0 176 8 303q1 10 1.5 36.5t2.5 40.5q6 35 6 165q0 11 3.5 31.5t3.5 24.5v94v18q9 77 10 100q1 11 1 38 t2 41q1 21 34 21q19 0 97.5 -7.5t85.5 -10.5q26 -13 26 -33z" />
<glyph unicode="\" horiz-adv-x="504" d="M508 -205q0 -9 -12 -18t-22 -9q-12 0 -24.5 8.5t-12.5 22.5q0 31 -5 43q-141 302 -208 426q-5 10 -17.5 27t-17.5 25q-5 12 -6 19q-16 24 -24 37q-48 82 -123 186q-7 10 -7 21t8.5 22.5t19.5 11.5q16 0 25.5 -7.5t20.5 -26.5t13 -22q5 -7 18.5 -20t18.5 -21l21 -48 q145 -263 185 -352q2 -4 8.5 -12t8.5 -13q4 -8 10 -25l9 -24q5 -12 50.5 -104.5t57.5 -124.5q5 -15 5 -22z" />
<glyph unicode="]" horiz-adv-x="347" d="M286 628q0 -22 -5.5 -68t-5.5 -69v-20v-47q0 -4 -2 -11.5t-2 -11.5q0 -69 -7 -148q0 -5 -2.5 -17.5t-2.5 -18.5v-141q0 -7 -4 -23q-1 -11 -2 -33.5t-2 -33.5l-3 -55q-1 -33 -1 -39q0 -20 4 -52t4 -48q0 -5 1.5 -15.5t1.5 -15.5t-1 -8.5t-2.5 -6t-3.5 -4.5t-5 -3t-5 -2 t-7 -1h-6h-6h-6q-9 0 -30 -3t-32 -3q-34 0 -72.5 10t-38.5 32q0 11 9 21.5t19 10.5q2 0 27.5 -8.5t42.5 -8.5q41 0 46 16q10 136 14 361q0 35 2 50l2 11v63q0 31 6 92t6 94q0 13 2 52.5t2 61.5q0 18 -14 23q-46 13 -127 13q-4 0 -12 -1t-11 -1q-44 0 -44 29q0 12 9.5 24.5 t20.5 12.5q5 0 14 -3t13 -3l67 -2q10 0 29 -2.5t29 -2.5q6 0 17.5 1.5t17.5 1.5q23 0 39.5 -14t16.5 -36z" />
<glyph unicode="^" horiz-adv-x="510" d="M507 333q0 -33 -13 -33q-30 0 -42 28q-25 57 -56 108q-4 6 -12 19t-11 19q-2 4 -4.5 13t-5.5 14q-5 7 -16 19.5t-15 17.5q0 1 -4.5 11t-8.5 14.5t-10 4.5q-9 0 -23 -15t-30 -39t-18 -26l-11 -11q-7 -7 -10 -11q-4 -5 -10 -15.5t-9 -14.5q-5 -8 -17.5 -20.5t-17.5 -19.5 q-3 -3 -23.5 -32.5t-38.5 -50t-27 -20.5q-12 0 -21.5 14t-9.5 26q0 5 3 10t9.5 11t8.5 8q27 29 34 39q7 9 23 33.5t29.5 42t27.5 27.5q4 3 7.5 7.5t6.5 10.5l5 10l63 85q2 3 10 16.5t15 22t14 8.5q12 0 23 -10t15 -16.5t12 -23.5q12 -21 36.5 -60.5t27.5 -45.5q9 -14 27 -47 l28 -50q10 -20 16 -29q3 -6 10 -13.5t9 -10.5q4 -7 4 -25z" />
<glyph unicode="_" horiz-adv-x="456" d="M143 -175h-40q-8 0 -36.5 -3t-32.5 3q-2 1 -4.5 5t-3.5 4q-2 0 -4 -3t-3 -3t-11 2t-12 2q-10 0 -10 27q0 33 11 33h31q8 0 22 -3t20 -4h25h123q11 0 29.5 2t28.5 2q18 0 56.5 1.5t42.5 1.5q22 0 34 -1q6 -1 26.5 0t22.5 1q16 0 16 -36q0 -24 -19 -24q-22 0 -45 4 q-2 0 -5 -1.5t-4 -1.5q-54 -2 -131 -2q-6 0 -16 2.5t-16 2.5q-1 0 -17.5 -2.5t-39 -5.5t-38.5 -3z" />
<glyph unicode="`" horiz-adv-x="526" d="M28 744q0 6 14.5 17.5t20.5 11.5q8 0 22.5 -17.5t32.5 -44t21 -29.5q15 -19 45 -53l50 -57q20 -24 20 -31q0 -6 -10 -16.5t-19 -10.5q-17 0 -107 101.5t-90 128.5z" />
<glyph unicode="a" d="M422 325q-1 -12 -8 -34t-8 -28q-4 -14 -14 -46t-14 -50q-29 -127 -30 -146q0 -2 4 -11.5t4 -13.5q0 -10 -6.5 -19t-15.5 -9q-22 0 -33 16t-11 40q0 23 15.5 71t15.5 64q0 9 -10 9q-3 0 -23.5 -19.5t-24.5 -24.5l-12 -13q-10 -10 -18.5 -17.5t-13.5 -9.5q-7 -3 -20 -20 q-21 -23 -55.5 -49t-55.5 -26q-13 0 -34 7.5t-28 16.5q-3 3 -11 23t-9 26q-1 4 -1 10q0 63 51 141q2 3 8.5 16t11.5 20q0 3 4 7l10 10q5 5 7 8q4 5 10.5 16t11.5 17l16 16q13 13 19 18.5t17.5 15t21.5 16t20 10.5q4 2 9 7t8 6q3 2 12 7.5t11.5 6.5t9.5 4.5t11.5 4.5t12 2 t15.5 1q35 0 65 -20t43 -52q0 -5 12 -25zM355 329q0 17 -18.5 28t-35.5 11q-29 0 -84 -44.5t-107 -122.5q-21 -27 -35 -65.5t-14 -63.5t23 -25q7 0 18 4.5t19 9.5l20 13l14 10q87 59 159 155q3 5 9.5 13t8.5 10q8 9 15.5 31.5t7.5 35.5z" />
<glyph unicode="b" horiz-adv-x="512" d="M483 275q0 -50 -33.5 -109.5t-74.5 -94.5l-10 -7l-11 -9q-2 -2 -10 -12t-16 -14q-10 -5 -40.5 -22t-46 -24t-41 -14.5t-48.5 -7.5q-6 0 -28 10t-26 11q-2 0 -11.5 2t-16.5 4q-2 1 -9 6t-9 6q-3 1 -7.5 3t-6.5 3t-4.5 3.5t-4.5 7.5q-5 12 -5 36q0 8 7.5 26.5t8.5 23.5 q21 72 52 222l19 99l20 108q6 36 15 68q1 4 4 17l7 24l8.5 23.5t10 20t11.5 7.5q7 0 24 -13.5t17 -20.5q0 -19 -9 -37q0 -1 -6 -11t-7 -17q-51 -191 -70 -311l4 -7q1 0 8.5 10.5t9.5 14.5q87 99 130 112q51 16 60 16q3 0 10.5 -3t11.5 -3q23 0 58.5 -32.5t45.5 -56.5 q9 -20 9 -58zM429 278q0 38 -10.5 61.5t-42.5 34.5q-8 4 -16 4q-52 0 -124 -61q-33 -28 -54 -57.5t-44 -83.5q-48 -120 -48 -148q0 -10 16 -15t30 -5q13 0 27 3.5t22 6.5t25 11t22 10q57 27 114 87t79 118q4 9 4 34z" />
<glyph unicode="c" horiz-adv-x="377" d="M372 122q0 -3 -5 -8q-55 -59 -122 -105t-125 -46q-40 0 -71.5 33t-31.5 96q0 59 39.5 132t85.5 129q1 2 21 18q4 4 12.5 14t13.5 14q45 37 79 37q19 0 42 -12t23 -29q0 -11 -10 -20t-22 -9q-4 0 -11 2t-11 2q-31 0 -76 -45t-81 -113l-27 -55q-13 -39 -13 -68 q0 -30 13.5 -52.5t40.5 -22.5q36 0 97 36q15 10 43 34l50 41q22 17 29 17q6 0 11.5 -7.5t5.5 -12.5z" />
<glyph unicode="d" horiz-adv-x="481" d="M488 642q0 -29 -19 -121q-8 -33 -17 -75q-23 -95 -31 -158q-1 -5 -4 -13t-4 -12q-1 -7 -20 -104.5t-19 -134.5q0 -20 -7.5 -30.5t-17.5 -10.5q-9 0 -16.5 17.5t-7.5 45.5q0 61 11 108q3 16 7 27.5t5.5 16.5t1.5 7q0 11 -9 11q-6 0 -17 -15l-33 -45l-35 -47 q-115 -143 -181 -143q-20 0 -42.5 14.5t-29.5 33.5q-3 7 -3 25q0 89 80.5 207.5t167.5 160.5q21 10 54 17q13 2 46 2q4 0 15 -2.5t14 -2.5q8 0 10 7q6 13 16.5 58t12.5 67q9 77 18 104q5 14 28 14q12 0 19 -8.5t7 -20.5zM363 361q0 7 -8.5 14t-16.5 7q-103 0 -190 -131 q-19 -21 -24 -31q-50 -92 -61 -133q-7 -28 -7 -55q0 -15 15 -15q36 0 71 32q80 72 208 272q13 17 13 40z" />
<glyph unicode="e" horiz-adv-x="391" d="M358 395q0 -36 -20 -79q0 -2 -13 -24q-2 -2 -6.5 -7t-6.5 -7q-12 -21 -29 -37q-29 -29 -71.5 -47t-70.5 -18q-5 0 -15 2t-14 2q-7 0 -16.5 -12t-17 -36.5t-7.5 -53.5q0 -81 69 -81q28 0 63 21.5t62 51.5q8 9 56 68q15 17 21 17q5 0 9.5 -4.5t4.5 -8.5q0 -13 -22 -45 q-48 -73 -108 -110t-113 -37q-44 0 -71 28t-27 85q0 9 1 25.5t1 24.5q0 2 2 6.5t2 6.5q1 4 1 10t1 10l6 18q7 22 38 86q63 120 177 192q29 19 58 19q27 0 41.5 -19t14.5 -47zM303 379q0 16 -17 16q-22 0 -34 -7q-27 -13 -75 -66t-48 -77q0 -6 7 -13t13 -7q49 0 101.5 53.5 t52.5 100.5z" />
<glyph unicode="f" horiz-adv-x="262" d="M155 534q15 80 43.5 121t63.5 41q3 0 10.5 2t11.5 2q6 0 45 -12q15 -4 32 -14t20 -21q2 -6 0 -16.5t-9 -10.5l-21 6q-5 1 -26.5 11t-28.5 10q-31 0 -47.5 -25t-38.5 -103q-18 -66 -18 -105q0 -14 3 -16.5t18 -2.5q23 0 49 2t27 2q16 0 25 -5q2 0 6 -9t3 -11 q-2 -11 -7 -14q-12 -7 -36 -7q-77 0 -86 -6q-16 -11 -21 -36q-3 -20 -36 -171q-46 -193 -46 -224q0 -30 -2 -46q-2 -19 -13 -32.5t-30 -13.5q-16 0 -20.5 20.5t-2.5 38.5q3 24 14.5 68.5t14.5 58.5q52 241 65 326q2 15 -11 15q-9 0 -28 -1t-28 -1q-7 0 -17.5 9.5t-10.5 18.5 q0 14 34 17.5t61 0.5q9 7 10 12q6 39 15.5 71.5t12.5 49.5z" />
<glyph unicode="g" horiz-adv-x="490" d="M437 363q0 -9 -6 -20.5t-7 -16.5q-8 -25 -12 -77q-12 -126 -21 -162q-38 -167 -104 -271q-2 -3 -20 -24q-3 -3 -7 -12t-6 -12q-24 -30 -70 -49t-88 -19q-65 0 -100 49q-25 36 -25 46q0 13 20 13q2 0 5 -5t10.5 -15.5t17.5 -20.5q25 -25 65 -25q81 0 148 96q42 61 67 137 q51 155 51 255q0 9 -10 9q-6 0 -17 -16l-28 -44q-18 -28 -34 -47q-46 -58 -99 -102t-88 -44q-21 0 -42.5 14.5t-29.5 33.5q-3 7 -3 25q0 87 88 203.5t178 159.5l11 8l14 9q6 4 10 4q13 3 46 3q35 0 60.5 -24t25.5 -59zM370 378q0 7 -9 14t-16 7q-33 0 -94 -42.5t-94 -92.5 q-17 -17 -21 -25q-5 -10 -24.5 -43t-27.5 -49t-16.5 -44t-8.5 -52q0 -14 16 -14q29 0 66 33q89 80 213 271q16 26 16 37z" />
<glyph unicode="h" horiz-adv-x="512" d="M470 301q0 -15 -13 -80q-2 -8 -8.5 -21t-7.5 -17q-2 -5 -3 -15.5t-2 -14.5q-52 -122 -68 -166q-3 -9 -14 -16.5t-21 -7.5q-20 0 -20 32q0 3 7 22q2 5 5 21.5t7 23.5q23 43 54 130q2 6 7 15.5t6 14.5q22 84 22 106q0 19 -8 39.5t-24 20.5q-22 0 -69.5 -44.5t-66.5 -72.5 q-34 -43 -41 -54q-14 -19 -38 -55l-31 -45q0 -1 -5.5 -15.5t-7.5 -17.5q-1 -2 -8.5 -11t-12.5 -18q-6 -13 -15 -45.5t-16 -45.5q-9 -9 -16 -9q-14 0 -28 13t-14 27q0 15 26 97v7q0 6 1 8q13 37 16 50q25 91 51 284q19 131 19 167q0 7 -2.5 21.5t-2.5 21.5q0 16 15 16 q5 0 19 -15t18 -24q8 -14 8 -45q0 -28 -1 -41q-9 -106 -26 -183q-31 -132 -31 -145q0 -6 7 -6q3 0 10 7.5t10 12.5q65 98 118 146q67 64 113 64q7 0 19 -2q4 0 25 -24q19 -23 22 -32q16 -62 16 -79z" />
<glyph unicode="i" horiz-adv-x="214" d="M266 589q0 -11 -9 -20.5t-20 -9.5q-14 0 -27.5 17.5t-13.5 32.5q0 11 7 20.5t17 9.5q12 0 29 -19t17 -31zM170 400q0 -6 -2.5 -17.5t-2.5 -15.5l-7 -50q-5 -35 -9.5 -60t-11.5 -49l-31 -111q-22 -60 -27 -69q-1 -2 -4.5 -19.5t-10.5 -27t-20 -9.5q-7 0 -15.5 8.5 t-8.5 15.5q14 31 14 49q0 3 -0.5 7.5t-0.5 6.5q0 5 1 7q25 68 62 229l16 71q1 3 2 25.5t6 34.5q6 15 25 15q12 0 18.5 -13.5t6.5 -27.5z" />
<glyph unicode="j" horiz-adv-x="221" d="M238 591q0 -12 -12.5 -22t-25.5 -10q-16 0 -27.5 12t-11.5 28q0 13 6.5 24t19.5 11q16 0 33.5 -14t17.5 -29zM171 389q0 -13 -9 -42t-9 -33q0 -15 -2 -25q-1 -5 -4 -12t-4 -11q-2 -20 -6.5 -55t-6.5 -49q-23 -202 -55 -290q-28 -76 -66.5 -111.5t-71.5 -32.5 q-4 0 -11 -1.5t-10 -1.5q-6 0 -17 3.5t-16 3.5q-2 0 -5 -1t-4 -1q-14 0 -30 6.5t-16 17.5q0 26 13 26q3 0 10 -2.5t10 -2.5q15 -4 38 -4q77 0 121 111q15 38 35 152q9 52 15 98q17 128 31 198q1 3 2.5 16t4 23.5t6 22.5t9 19t13.5 7q12 0 23.5 -8t11.5 -21z" />
<glyph unicode="k" d="M516 28q0 -11 -20 -11q-46 0 -88 13q-138 42 -227 107q-10 6 -18 12.5t-14 12.5t-9 8q-6 2 -8 2q-8 0 -25 -61q-19 -70 -21 -114l2 -39q0 -37 -23 -37q-29 0 -29 74q0 27 1 41q6 83 37 205l42 163l16 65q15 61 18 72q0 1 7.5 29t15.5 45.5t18 17.5q13 0 25.5 -9.5 t12.5 -22.5q0 -2 -6.5 -20t-7.5 -23q-5 -23 -23 -97l-34 -139q-16 -64 -16 -77q0 -11 10 -11q3 0 16 10l26 22q14 12 17 14q41 34 80 58q33 20 76.5 40.5t56.5 20.5q10 0 19 -10t9 -21q0 -4 -5.5 -10.5t-8.5 -7.5q-85 -37 -109 -51q-131 -82 -131 -102q0 -8 11.5 -16.5 t55.5 -33.5q100 -58 216 -85q35 -9 35 -34z" />
<glyph unicode="l" horiz-adv-x="220" d="M222 617q0 -81 -27 -155q-1 -4 -4 -30q-4 -20 -15.5 -56.5t-14.5 -55.5q-2 -11 -12 -54q-58 -222 -58 -255q0 -4 3 -13t3 -12q0 -7 -9.5 -14.5t-16.5 -7.5q-9 0 -19 11t-10 20q0 5 -0.5 16.5t-0.5 16.5q0 12 2 34q2 18 16 92q16 69 33 124q5 20 13.5 59.5t12.5 55.5 q21 89 31 135q0 2 4.5 28t4.5 32q0 8 -2 24t-2 24q0 9 5 15.5t13 6.5q13 0 31.5 -14.5t18.5 -26.5z" />
<glyph unicode="m" horiz-adv-x="746" d="M684 317q6 -32 -1 -79q-5 -29 -17 -66q-1 -3 -3.5 -11.5t-4.5 -13.5q2 -15 -7 -32.5t-10 -25.5q-5 -25 -22.5 -67t-30.5 -42q-11 0 -24 10.5t-13 23.5q0 14 20 58q44 103 50 132q2 6 3 17.5t2 15.5q10 27 10 39q0 15 -5.5 39t-14.5 24q-18 0 -85 -69.5t-88 -99.5 q-59 -88 -71 -116q-2 -6 -5.5 -13.5t-5 -12t-4 -10.5t-3.5 -9l-4 -7q-2 -4 -4 -6l-2 -4q-2 -2 -3.5 -2.5t-3.5 -0.5q-4 0 -8.5 1.5t-7.5 3.5t-6.5 5t-5.5 4q-16 10 -16 29q0 4 8 17q12 16 33 65.5t25 71.5q11 52 11 127q0 42 -17 42q-5 0 -12 -4.5t-13.5 -10.5t-15 -16 t-13.5 -17l-12 -15q-7 -9 -8 -10q-6 -8 -20.5 -22t-20.5 -21q-4 -4 -13.5 -17.5t-16.5 -21.5q-35 -41 -61 -82q-39 -63 -59 -131q-8 -30 -29 -30q-15 0 -24 20t-9 37q0 6 5 18.5t11 25.5l8 16q29 70 37 117q2 10 3.5 21.5t3 26t2.5 22.5q2 6 1.5 29t-0.5 30q4 20 4 34t-1 35 t-1 28q0 20 19 20q13 0 28.5 -17t15.5 -32q0 -7 -2 -16.5t-2 -14.5q0 -9 -2 -26.5t-2 -21.5q-8 -58 -8 -79q0 -12 9 -12q3 0 19 20l37 47q21 26 32 35q5 4 10.5 10.5t11.5 15.5t9 13q20 28 43.5 45t37.5 17q26 0 48 -33t22 -88q0 -13 -8 -72q0 -2 3.5 -4.5t5.5 -2.5 q46 61 109 120.5t85 59.5q42 0 51 -50q1 -5 6.5 -17t6.5 -17z" />
<glyph unicode="n" horiz-adv-x="514" d="M455 253q0 -21 -6 -50t-13 -50l-18 -54l-15 -44q-3 -6 -7 -19t-7 -19q-1 -3 -6.5 -10t-6.5 -10l-10 -25q-6 -10 -20 -10q-11 0 -17.5 12.5t-6.5 24.5q0 6 9 26t10 24q2 5 4.5 20.5t5.5 22.5q5 15 19 51t19 51.5t10.5 45.5t5.5 61q0 36 -18 36q-12 0 -36 -16 q-123 -84 -263 -339q-11 -18 -24 -18q-9 0 -19.5 17.5t-10.5 23.5q0 10 7 39l16 66q10 37 14 56q7 27 20 95t23 105q1 4 11 34q1 3 2.5 9t2.5 9t3.5 7t6.5 5.5t10 1.5q32 0 32 -40q0 -32 -24 -114q-21 -76 -24 -98q0 -10 8 -10q5 0 12 9q43 62 85 113q42 45 95 86 q34 23 59 23q62 0 62 -148z" />
<glyph unicode="o" horiz-adv-x="388" d="M360 282q0 -69 -49 -154t-107 -129q-40 -33 -81 -33q-6 0 -12 2.5t-13.5 6t-11.5 4.5q-27 9 -51 51q-5 10 -7 25q-6 27 -6 31q0 57 23 142q11 37 63 114q3 4 13 22.5t18 27.5q4 5 15.5 11t15.5 10q20 20 48 20q18 0 52 -16q46 -19 65 -49q25 -42 25 -86zM310 304 q0 26 -14.5 46.5t-39.5 20.5q-35 0 -75.5 -34t-72.5 -103q-3 -7 -13 -47l-7 -20q-4 -15 -6.5 -27t-2.5 -23q0 -7 -1 -19t-1 -18q0 -58 37 -58q40 0 95.5 53t76.5 122q2 5 7.5 15t7.5 16q9 38 9 76z" />
<glyph unicode="p" horiz-adv-x="512" d="M474 228q0 -2 -1.5 -8t-1.5 -9v-19q0 -8 -3 -19t-6.5 -17.5l-9.5 -18.5l-8 -17q-1 -3 -4 -5l-5 -6q-3 -3 -4 -5l-9 -13q-6 -10 -11 -13q-54 -52 -105 -77q-72 -35 -129 -35q-9 0 -29 6t-27 6q-15 0 -48 -136q-5 -18 -13.5 -62.5t-14.5 -65.5q-3 -9 -10 -9q-9 0 -23 14 t-14 24q0 1 6 52q8 46 21.5 96.5t32.5 115t27 94.5q33 128 38 190q2 28 2 42q0 4 -3 9t-7 5q-17 0 -40.5 -12.5t-25.5 -12.5q-12 0 -20.5 12t-8.5 25q0 21 19 31t44.5 12t27.5 3q4 2 14 13.5t19 11.5q12 0 24 -8.5t22 -8.5q3 0 9.5 0.5t10.5 0.5q27 0 40 -1 q180 -24 215 -143q9 -32 9 -42zM419 209q2 54 -17 84q-20 29 -60.5 45t-89.5 16q-67 0 -69 -15q0 -27 -1 -43q-1 -28 -13 -84l-17 -75l-17 -75l-5 -16l-4 -14q-1 -5 -1 -7q0 -6 6 -10t11 -4q31 0 74.5 12.5t73.5 33.5q108 72 129 152z" />
<glyph unicode="q" horiz-adv-x="459" d="M425 341q0 -17 -14.5 -58t-14.5 -53q-2 -12 -26 -126q-31 -159 -38 -187q0 -3 -4 -9.5t-5 -10.5q-3 -9 -10 -46q-17 -73 -29 -115q-2 -16 -7 -28q-10 -13 -29 -13q-24 0 -24 35q0 5 6.5 20t7.5 20q25 85 33 122q5 20 13.5 60.5t13.5 61.5q2 9 9.5 36.5t12 48.5t4.5 37 q0 13 -15 13q-8 0 -31 -27t-68 -64t-72 -49q-3 -1 -13 -4t-16 -6q-13 -11 -25 -11q-40 0 -62 15t-22 54q0 38 21 97t46 88q3 3 31 39t47.5 58.5t32.5 32.5q3 2 28 15q61 42 113 42q18 0 34.5 -10t24.5 -19l24 -28q2 -3 9 -8.5t10.5 -10.5t3.5 -12zM361 338q0 17 -18.5 28.5 t-36.5 11.5q-24 0 -53 -19q-75 -47 -165 -177q-5 -8 -9.5 -23t-7.5 -21q-23 -52 -23 -79q0 -25 22 -25q32 0 112 66.5t138 145.5q2 4 18 22q8 10 15.5 33.5t7.5 36.5z" />
<glyph unicode="r" horiz-adv-x="333" d="M373 389q-1 -5 -3.5 -9t-7.5 -7t-9 -4.5t-10.5 -3t-9.5 -2.5q-21 -10 -37 -29q-22 -10 -23 -22q-30 -23 -67 -66t-60 -84q-15 -26 -26 -63.5t-13 -61.5q-3 -35 -11 -48q-2 -4 -18 -9l-9 -4q-7 -4 -8 -4q-8 0 -15.5 12t-8.5 21q-1 26 7 69q2 13 14.5 65.5t14.5 81.5 q1 15 5 43t4 43v18q0 1 8 21q1 3 5 20.5t7.5 27.5t9.5 24t14.5 21t19.5 7q6 0 12.5 -4.5t6.5 -9.5q0 -4 -1.5 -13t-1.5 -12q-1 -10 -5 -21.5t-5 -17.5q-9 -25 -11 -60q-7 -18 -9 -58q0 -8 14 -8q6 6 34 43.5t41 47.5q11 17 36 41q38 38 79 38q15 0 26 -8.5t11 -14.5z" />
<glyph unicode="s" horiz-adv-x="347" d="M303 382q0 -8 -7.5 -14.5t-15.5 -6.5q-9 0 -25 8.5t-34 8.5q-32 0 -57.5 -23t-25.5 -51q0 -26 25 -49t54.5 -37.5t54.5 -39t25 -53.5q0 -10 -16 -41t-24 -31q-1 0 -7.5 -9t-7.5 -12q-13 -20 -33 -31q-42 -22 -61 -29t-55 -14q-10 -3 -29 -3q-2 0 -9.5 3.5t-12.5 3.5 q-21 1 -35.5 11.5t-14.5 30.5q0 14 10.5 28t23.5 14q6 0 9.5 -1t5 -4.5t2 -5t0 -7.5t-0.5 -7q0 -11 5 -14t17 -3q46 0 110.5 38.5t64.5 79.5q0 18 -19 32.5t-44 28t-33 22.5q-2 3 -14 10t-15 10q-14 14 -22 23.5t-15 28t-7 39.5q0 45 43.5 81.5t89.5 36.5q42 0 71 -16.5 t29 -35.5z" />
<glyph unicode="t" horiz-adv-x="276" d="M395 379q0 -5 -3.5 -8t-10.5 -5t-11.5 -2.5t-13 -1t-9.5 -0.5q-21 -2 -58.5 -4t-56.5 -4q-10 -2 -29.5 -3t-22.5 -2q-11 -5 -12 -8q-3 -10 -6 -35t-4 -28q-1 -4 -10 -53.5t-9 -69.5q0 -33 -10 -93v-3q0 -7 2 -21.5t2 -21.5q0 -46 -34 -46q-25 0 -25 59q0 19 13 126l9 64 q6 41 8 61q8 51 8 59q0 12 -15 16q-27 0 -38 3q-7 2 -16.5 11.5t-9.5 16.5q0 8 5.5 13.5t17 7.5t19 2.5t21.5 0t15 -0.5q10 7 13.5 14t5 18.5t3.5 17.5q2 5 3 15t2 13q0 1 4 7t5 10q1 3 2 9t2 9q23 54 48 81q4 2 10 2q10 0 19 -8.5t9 -18.5q0 -14 -25 -74.5t-25 -82.5 q0 -13 17 -16q14 -1 49.5 -2t49.5 -2q24 -1 77 -5q15 -8 15 -17z" />
<glyph unicode="u" horiz-adv-x="471" d="M433 341q0 -33 -57 -209q0 -3 -0.5 -12t-1.5 -12l-8 -29l-9 -32q-4 -12 -4 -18q0 -2 4 -11.5t4 -13.5q0 -10 -7 -19.5t-16 -9.5q-38 0 -38 49q0 25 33 142q12 40 12 50q0 3 -3.5 6t-5.5 3q-4 0 -11.5 -7t-18 -19.5t-18.5 -19.5q-23 -26 -26 -30q-4 -6 -20 -25l-30 -39 l-46 -55t-44.5 -43t-41.5 -21q-15 0 -39 27q-11 16 -11 45q0 43 35 170t59 175l8 24q10 26 25 26q10 0 17.5 -15t7.5 -27q0 -9 -13 -53l-30 -96q-16 -51 -19 -63q-32 -114 -32 -121q0 -3 5 -6t8 -3q10 0 79 80l174 200q5 7 14 21t14 20q6 10 19 10q1 0 7.5 -6.5t13 -14 t8.5 -8.5q3 -3 3 -10z" />
<glyph unicode="v" horiz-adv-x="389" d="M426 383q0 -5 -3 -9t-8.5 -8.5t-7.5 -8.5l-10 -16q-9 -14 -14 -21q-55 -70 -58 -75q-25 -36 -55 -73q-8 -8 -13 -17q-3 -4 -5.5 -12t-5.5 -11q-16 -20 -41 -60q-3 -5 -12 -14.5t-13 -14.5q-2 -3 -4.5 -12t-5.5 -13q-1 -2 -15.5 -21t-26 -29t-24.5 -10q-9 0 -25.5 16.5 t-16.5 24.5q0 2 -3.5 12.5t-3.5 17.5q0 8 3 21.5t3 19.5q0 8 -1 25t-1 26q0 17 3.5 50.5t3.5 48.5q0 9 3 30t3 32q0 4 -1 13t-1 14q0 3 2 10t2 11q0 6 -1.5 17.5t-1.5 16.5q-3 18 -3 20q0 25 16 25q20 0 29 -12q13 -13 13 -47q0 -77 -1 -83q-1 -4 -3 -10t-2 -10l-2 -15 q-4 -64 -4 -85q0 -2 1 -8t1 -10q0 -13 -6 -38.5t-6 -37.5q2 -8 9 -8q6 0 13 7.5t32 40.5q129 174 214 306q9 13 23 13q12 0 21.5 -8.5t9.5 -20.5z" />
<glyph unicode="w" horiz-adv-x="661" d="M641 395q0 -44 -18 -105.5t-41 -107.5q-1 -3 -1 -8.5t-3 -9.5q-15 -20 -36.5 -63.5t-40.5 -67.5q-1 -1 -8 -15q-36 -54 -80 -54q-49 0 -70 87q-9 44 -7 100q0 18 4.5 56.5t4.5 58.5q0 13 4 39q0 3 2.5 11t2.5 12q0 5 -8 5q-98 -98 -183 -242q-27 -44 -43 -78 q-21 -46 -49 -43q-19 26 -25 30q-1 4 -1 11q0 20 7.5 56.5t8.5 52.5q1 32 10 76q1 7 1.5 21.5t2.5 21.5q1 10 11 54t10 57v47q0 33 24 33q10 0 18 -12t8 -23q0 -102 -35 -273q0 -4 3 -6t6 0q61 100 217 284q25 30 30 30q6 0 23.5 -11t20.5 -15q3 -8 3 -28q0 -9 -5 -27 t-6 -25q-2 -10 -10 -71q-5 -55 -7 -69v-18q0 -14 -1 -44t-1 -44q0 -24 7 -42q6 -15 20 -15q8 0 21 12q31 31 67 91.5t54 116.5q28 86 34 158q1 7 12.5 14.5t18.5 7.5q23 0 23 -26z" />
<glyph unicode="x" horiz-adv-x="417" d="M428 392q0 -8 -5 -19t-11 -12q-11 0 -15 -2q-100 -76 -156 -135q-13 -11 -3 -29l25 -44l34 -56l31 -49q4 -6 19 -25.5t25 -36t10 -26.5q0 -7 -8.5 -18.5t-14.5 -11.5q-10 0 -21 13t-24.5 39t-14.5 27q-12 19 -35.5 53.5t-31.5 47.5q-6 8 -16.5 24t-15.5 22q-8 8 -14 9 q-15 0 -73 -54t-70 -72q0 -2 1 -6.5t1 -6.5q0 -4 -2 -6q-2 -7 -17 -25.5t-22 -18.5q-34 0 -34 50q0 17 104 119q13 13 38.5 36.5t37 36.5t11.5 20q0 4 -4 12.5t-10.5 20.5t-9.5 18q-6 11 -24 38l-25 38q-10 20 -10 28t6 15.5t13 7.5q22 0 44 -35t39.5 -69.5t27.5 -34.5 q2 0 86.5 73t102.5 73q9 0 20 -10t11 -19z" />
<glyph unicode="y" horiz-adv-x="508" d="M471 397q0 -10 -6 -29.5t-15 -43t-11 -29.5q-5 -17 -10 -49.5t-8 -44.5q-1 -6 -6 -20t-6 -22q-4 -48 -22 -137q-3 -13 -12.5 -37t-12.5 -36v-9q0 -6 -1 -8q-1 -6 -7 -17t-7 -14q-3 -6 -5 -19t-5 -19q-1 -3 -6 -9t-6 -9q-20 -36 -20 -37q-32 -51 -71 -80t-72 -29 q-31 0 -48 15.5t-17 30.5q0 5 4.5 12t9.5 7l13 -8q12 -9 29 -9q60 0 118 108q66 124 79 275q0 7 4.5 24t4.5 25q0 12 -10 12q-4 0 -16 -12q-87 -94 -178 -157l-13 -6q-8 -4 -12 -7t-10.5 -10t-10.5 -10q-21 -14 -39 -14q-21 0 -35 17t-14 53q0 18 8 49t22 71l25 71l27 71 l19 47q3 6 5 21t5 21q1 4 7.5 8t10.5 4q9 0 21 -10.5t12 -19.5q0 -15 -4.5 -29.5t-16 -37.5t-13.5 -28t-5 -16t-5 -16q-4 -11 -22.5 -57.5t-32 -85t-13.5 -51.5q0 -16 13 -16q4 0 12 5l20 14q12 7 13 8q160 122 249 243q7 9 19 40.5t17 48.5q11 38 29 38t28 -41z" />
<glyph unicode="z" horiz-adv-x="423" d="M442 74q0 -1 -6 -15q-2 -3 -5 -12.5t-7 -14t-12 -4.5q-9 0 -28.5 3t-29.5 3q-30 0 -50 -6q-15 -6 -37 -6q-19 0 -97 -15q-108 -21 -113 -21q-17 0 -36.5 13t-19.5 21v5q0 10 8.5 21t23 24.5t17.5 17.5q174 191 208 241q3 4 8 9.5t7.5 9t2.5 7.5q0 16 -43 16 q-26 0 -60 -9.5t-48 -25.5q-2 -2 -6 -9t-7.5 -10.5t-8.5 -3.5q-8 0 -18 13.5t-10 20.5q0 22 32.5 43t55.5 21q5 0 14.5 3t11.5 3q19 4 44 4q97 0 97 -55q0 -9 -2 -18t-3.5 -15t-8 -16.5t-8 -13.5t-11 -16.5t-10.5 -14.5q-34 -47 -98 -113q-2 -2 -8.5 -6.5t-9.5 -7.5 q-3 -4 -8 -11.5t-8 -11.5q-9 -10 -23 -23l-20 -21q-7 -8 -7 -12q0 -11 12 -11q3 0 115 16h18q14 0 18 1q11 2 28.5 4t24.5 3q8 1 45 7.5t47 6.5q29 0 29 -19z" />
<glyph unicode="{" horiz-adv-x="357" d="M330 703q0 -14 -7.5 -21t-21.5 -11t-19 -7q-74 -41 -74 -144q0 -45 26.5 -128t26.5 -128q0 -22 -12.5 -47.5t-30.5 -37.5q-4 -3 -12 -12t-14 -13l-39 -26q-7 -5 -7 -12q0 -2 8 -20.5t8 -33.5t-1.5 -28t-5 -28t-6 -24t-9 -27.5t-8.5 -26.5q-25 -68 -25 -116q0 -33 21 -59 t42 -40.5t21 -19.5q0 -26 -23 -26q-39 0 -77 46t-38 108q0 35 25 124t25 102q0 27 -9 36.5t-36 11.5q-14 -4 -20 -4q-10 0 -18 12.5t-8 29.5q0 20 7.5 27t33.5 7q4 0 15 4l26 9q15 6 18 7q42 17 65 37.5t23 57.5q0 30 -18.5 94.5t-23.5 98.5q0 4 -3.5 13.5t-4.5 14.5 q-1 8 -1 26q0 85 46.5 148.5t103.5 63.5q12 0 21.5 -13t9.5 -25z" />
<glyph unicode="|" horiz-adv-x="250" d="M160 579q0 -19 -2 -59t-2 -59q0 -3 -2 -10t-2 -10q0 -5 2 -16t2 -16q0 -8 -2 -18t-2.5 -29.5t-1.5 -25.5q-3 -39 -3 -40q0 -8 1 -23.5t1 -23.5v-208q0 -16 -1.5 -48t-1.5 -48q0 -17 2 -50.5t2 -50.5q0 -12 3 -35t3 -35t1 -38t1 -38q0 -48 -9 -64.5t-33 -16.5 q-9 0 -19 13.5t-10 22.5q0 3 1 9t1 8v103q0 79 6 106q-6 18 -6 87q0 80 2 240t2 239q0 16 -0.5 50t-0.5 51q0 6 1.5 16t1.5 16q0 26 -6 76q0 2 -1 8t-1 9q0 9 10 22.5t19 13.5q33 0 40 -37q4 -29 4 -91z" />
<glyph unicode="}" horiz-adv-x="357" d="M303 534q0 -43 -15 -80.5t-36.5 -63t-42.5 -47.5t-36 -42.5t-15 -39.5q0 -21 16.5 -39.5t36.5 -18.5q7 0 23.5 5.5t24.5 5.5q10 0 18.5 -18t8.5 -30v-3q-1 -9 -11.5 -18.5t-20.5 -11.5q-3 -1 -11 -2t-13 -2t-11.5 -3.5t-10 -6.5t-3.5 -10q0 -8 31.5 -75.5t34.5 -83.5 q1 -6 2 -17t2 -16q7 -33 7 -41q0 -42 -47.5 -93.5t-88.5 -78.5q-40 -26 -64 -26q-5 0 -15.5 3.5t-16.5 2.5l-8 -1q-7 -1 -18.5 9.5t-11.5 21.5q0 6 3.5 11t8.5 4l27 -5q64 0 117 67q61 73 61 104q0 32 -36.5 106t-43.5 95q-3 10 2.5 30.5t5.5 26.5q0 4 -12.5 17t-25 35 t-12.5 48q0 55 27 94q8 12 43 49t55.5 72.5t20.5 73.5q0 32 -21 60t-52 47q-7 5 -24 9t-24 9q-8 5 -13 18t-5 24t7.5 18t17.5 7q15 0 49 -22q54 -36 84.5 -77.5t30.5 -100.5z" />
<glyph unicode="~" horiz-adv-x="634" d="M634 359q0 -34 -25 -77t-55 -68q-26 -22 -61.5 -39t-60.5 -17q-40 0 -87 79q-2 3 -3 5q-21 37 -56 76t-66 39q-27 0 -59.5 -20.5t-53.5 -48.5q-5 -6 -20 -29q-13 -17 -28 -17q-9 0 -17.5 10.5t-8.5 19.5q0 49 45 88t98 54q5 1 10.5 1.5t12.5 1t10 0.5t9.5 2t10.5 2 t34 -12q59 -21 104 -97q32 -52 45.5 -69.5t28.5 -17.5q32 0 68 25q55 34 91 95q3 5 7 14t5 11q4 8 10 8q5 0 8.5 -7t3.5 -12z" />
<glyph unicode="&#xa1;" horiz-adv-x="267" d="M107 387q0 25 11 42t33 17q12 0 21.5 -10.5t9.5 -19.5q0 -18 -20 -36q-20 -22 -30 -22q-9 0 -17 9t-8 20zM29 -164q0 7 6 39l15 73q8 42 11 59q2 8 7 31l13 57q7 34 14 76q0 6 -1 23t1 23q0 8 9.5 16t17.5 8q13 0 22.5 -12.5t9.5 -23.5q0 -16 -14.5 -74t-18.5 -88 q-9 -59 -22 -221q-1 -7 -10 -12t-17 -5q-12 0 -27.5 9t-15.5 22z" />
<glyph unicode="&#xa2;" horiz-adv-x="409" d="M378 136q0 -21 -36 -40.5t-67 -28.5q-9 -2 -21 -6l-19 -6q-7 -2 -18.5 -3.5t-25.5 -1.5q-11 0 -17 -12q-13 -22 -24 -75q-2 -11 -9 -28t-9 -27q-3 -11 -5.5 -38t-7.5 -36q-10 -13 -32 -13q-6 0 -9.5 9t-3.5 16q0 13 25 109q2 8 17 54.5t15 51.5q0 6 -7 13q-74 65 -74 160 q0 136 154 178q25 4 40 5q7 1 12 11q9 20 28 104q11 41 22 67q0 1 1.5 7.5t3 10.5t4 9.5t6 8t8.5 2.5q8 0 16.5 -7.5t8.5 -15.5q0 -19 -5 -38.5t-13.5 -43t-12.5 -36.5q-2 -6 -12.5 -43.5t-10.5 -40.5q0 -5 26 -19.5t26 -26.5q0 -6 -8 -15.5t-15 -9.5q-3 0 -14 4t-15 4 q-10 0 -16 -10q-2 -5 -3 -15t-4 -15q-3 -6 -27 -70q-3 -10 -16 -41l-22 -56q-9 -24 -9 -29q0 -14 33 -14q23 0 72.5 25.5t50.5 25.5q19 0 19 -14zM227 349q0 10 -10 10q-42 0 -75.5 -41t-33.5 -115q0 -22 7.5 -40.5t16 -27.5t14.5 -9t13.5 19.5t30.5 86.5q6 18 17 48.5 t15.5 45t4.5 23.5z" />
<glyph unicode="&#xa3;" horiz-adv-x="586" d="M516 16q9 0 20.5 17t16.5 17q3 0 5 -3t3 -9t1 -11l1 -11q1 -5 1 -7l2 -8q0 -14 -16 -23.5t-30 -9.5q-40 0 -132 32q-16 6 -44.5 19t-46.5 19q-39 15 -50 15q-10 0 -30 -20.5t-47.5 -40.5t-56.5 -20q-52 0 -89 10q-17 3 -45 34q-25 25 -25 46q0 33 27 52t77 19q22 0 92 -7 q7 0 23.5 -3t25.5 -3q2 0 8 4q16 16 30 48q13 29 23.5 68t10.5 53t-16 14q-11 0 -35 -2.5t-40 -0.5q-21 2 -31.5 11.5t-10.5 21.5q0 21 26 21q8 0 25.5 -2t24.5 -2q3 0 8.5 0.5t7.5 0.5l33 -4q10 -1 13 10q2 8 5.5 35t4.5 32q14 97 72 159q19 20 35.5 27.5t43.5 7.5 q35 0 61.5 -15.5t40.5 -35.5q3 -4 12.5 -34.5t9.5 -35.5q1 -7 -4.5 -14.5t-13.5 -7.5q-10 0 -18 13t-13 28t-19 28t-36 13q-29 0 -61.5 -31.5t-42.5 -86.5q-1 -4 -4 -12.5t-4 -13.5v-29q0 -5 -3 -15.5t-3 -14.5q0 -14 28 -17q31 -4 125 -4q7 0 16 -9.5t9 -16.5 q0 -19 -66 -19q-4 0 -11.5 2.5t-11.5 2.5q-8 0 -14 -4h-23q-38 3 -48 -1t-17 -42q-6 -31 -15 -59q-4 -11 -13.5 -31t-13.5 -31t-4 -17q0 -4 2.5 -7t7 -6t8.5 -5t10 -4t8 -3q40 -20 111.5 -45.5t88.5 -25.5zM163 63q0 7 -9 9q-20 4 -76 4q-4 0 -10.5 1.5t-9.5 1.5 q-12 0 -31.5 -8t-19.5 -17q0 -22 63 -22h30q20 0 28 2q8 3 21.5 13t13.5 16z" />
<glyph unicode="&#xa4;" horiz-adv-x="579" d="M479 421q-30 -34 -79 -81q24 -24 30 -59q3 -14 -2 -27q6 -12 6 -35q-2 -37 -7 -50q-13 -39 -49 -75q4 -3 12 -13q26 -21 44.5 -49t-0.5 -42q-7 -7 -18.5 -7t-19.5 8q-6 6 -15 19l-19 31l-16 26h-2q-36 -43 -92 -43q-55 0 -80 28q-5 -7 -14 -22t-16 -24.5t-12 -14.5 q-8 -8 -19.5 -8t-18.5 7q-29 22 47 87q3 2 7 7t6 6q-8 23 -7 50q0 4 2 16q1 5 1.5 13.5t0.5 13.5q0 1 -2 18.5t2 17.5q-8 25 -3 41q0 34 40 76q-16 25 -42 41q-29 16 -34 24q-12 -1 -40 11q-11 7 -8 30.5t17 23.5q33 0 63 -15q22 -10 26 -20q2 -5 2 -12q30 -15 48 -57 q13 11 19 11t17.5 3t15.5 3q10 0 27.5 -1.5t24.5 -1.5q28 0 50 -12q17 25 28 30q4 19 17 34q34 38 62 38q13 -1 11.5 -19t-11.5 -26zM388 256q-2 9 -4 25q-11 51 -59 51q-8 0 -18 -2q-46 -4 -60 -10q-10 -5 -18.5 -15.5t-13.5 -15.5q-8 -10 -20 -58q2 -33 1 -48 q-3 -64 -1 -72q0 -2 2 -5t2 -5q10 -31 45 -38h8q1 0 14 2.5t18 1.5q12 13 22 21q36 25 60 61t20 73q0 25 2 34z" />
<glyph unicode="&#xa5;" horiz-adv-x="468" d="M488 574q0 -5 -7 -15t-18.5 -23t-12.5 -14q-1 -2 -5 -8.5t-7 -8.5q-1 -1 -10 -7t-12 -10q-8 -9 -33 -42q-36 -28 -51 -45q-8 -7 -8 -12q0 -8 10 -11q8 -3 22 -3t34.5 1.5t30.5 1.5q38 0 38 -21q0 -19 -52 -19q-10 0 -52 -4t-59 -4q-30 0 -30 -54q0 -10 20 -17 q14 -5 138 -22q15 -2 15 -11q0 -8 -10 -12q-14 -2 -34 -2q-4 0 -13 0.5t-14 0.5q-3 0 -12 -0.5t-13 -0.5q-11 0 -33 4.5t-32 4.5q-30 0 -40 -46q-17 -82 -35 -200q-3 -18 -10 -24t-25 -6q-17 0 -24.5 5.5t-7.5 21.5q0 22 5 45q6 58 6 59q2 10 8 30t8 30q2 9 3 25.5t2 21.5 q1 3 2.5 10t3 12.5t1.5 10.5q0 16 -29 16h-30q-8 0 -22 -3t-22 -3q-7 0 -13 6t-6 14q0 13 13 20t52 8q7 0 26.5 -1t25.5 -1q23 0 23 49q0 4 -1.5 6.5t-3 4t-5 2t-5.5 0.5h-6h-5q-5 0 -13 1.5t-13 1.5q-3 0 -8 -0.5t-8 -0.5q-13 0 -24.5 7.5t-11.5 20.5q0 24 28 24 q15 0 32 -5q21 -7 21 16q0 6 -9 19q-42 65 -77 156q-10 25 -10 43q0 7 5.5 14t12.5 7q31 0 46 -56q14 -43 45 -106q2 -5 9 -15.5t11 -19.5q1 -3 19 -42q6 -11 15 -11q5 0 108 106.5t118 106.5q9 0 17 -9t8 -18z" />
<glyph unicode="&#xa6;" horiz-adv-x="250" d="M156 350q0 -11 1 -33.5t1 -34.5q0 -43 -9 -58t-33 -15q-9 0 -19 12.5t-10 20.5q0 5 2 15v93q0 9 3.5 37t3.5 44q0 5 -0.5 21t-0.5 21q0 24 -6 68q-2 10 -2 15q0 8 10 20.5t19 12.5q16 0 27 -9t13 -24q4 -27 4 -82q0 -13 -2 -63t-2 -61zM88 -50q0 11 -1 33.5t-1 34.5 q0 43 9 58t33 15q9 0 19 -12.5t10 -20.5q0 -5 -2 -15v-93q0 -9 -3.5 -37t-3.5 -44q0 -5 0.5 -21t0.5 -21q0 -24 6 -68q2 -10 2 -15q0 -8 -10 -20.5t-19 -12.5q-16 0 -27 9t-13 24q-4 27 -4 82q0 13 2 63t2 61z" />
<glyph unicode="&#xa7;" horiz-adv-x="463" d="M424 617q0 -12 -8 -23.5t-19 -11.5q-2 0 -13.5 8.5t-13.5 9.5q-26 8 -50 8q-32 0 -76 -46.5t-44 -82.5q0 -32 41 -79q6 -8 19 -20l35 -31l37 -33q68 -63 68 -141q0 -50 -50.5 -89.5t-104.5 -43.5v-3l39 -31q27 -21 45.5 -37t33.5 -33q20 -21 20 -75q0 -31 -9 -54 q-5 -10 -17.5 -20.5t-30.5 -22t-23 -15.5q-29 -21 -67 -34l-33 -14q-29 -12 -48 -14q-32 -2 -48 -2q-29 0 -68 21t-39 51q0 14 8 29t18 15q7 0 11.5 -5.5t6 -10.5t2.5 -15t1 -11q8 -24 61 -24q33 0 54 5q46 11 100 45t54 70q0 23 -17 48t-34 39.5t-49.5 38t-39.5 29.5 l-22 17l-26 21l-24 22q-17 14 -26 25l-20 25q-10 14 -14.5 28t-4.5 28q0 41 40.5 89.5t83.5 75.5q4 3 12.5 7t12.5 7q2 1 7 6q-1 4 -17 19.5t-31 43t-15 62.5q0 41 29 79t71 63q60 38 107 38q30 0 57.5 -12.5t27.5 -38.5zM326 175q0 49 -48 107q-20 23 -32 23 q-20 0 -54.5 -26t-49.5 -47q-2 -4 -4 -9.5t-2 -6.5q-2 -4 -8.5 -13.5t-10 -17t-3.5 -15.5q0 -32 56 -73q16 -13 23 -13q35 0 84 29.5t49 61.5z" />
<glyph unicode="&#xa8;" horiz-adv-x="526" d="M180 589q0 -11 -9 -20.5t-20 -9.5q-14 0 -27 18t-13 32q0 11 6.5 20.5t16.5 9.5q12 0 29 -19t17 -31zM355 591q0 -12 -12.5 -22t-25.5 -10q-16 0 -27.5 12t-11.5 28q0 13 7 24t19 11q16 0 33.5 -14t17.5 -29z" />
<glyph unicode="&#xa9;" horiz-adv-x="854" d="M830 341q0 -32 -1 -36q-7 -23 -7 -29v-21q0 -2 -3 -10.5t-3 -11.5q-2 -23 -19 -62t-21 -54q-1 -7 -8.5 -16.5t-9.5 -13.5q-4 -11 -18.5 -30.5t-18.5 -28.5q-37 -81 -122 -112q-2 -1 -10 -4.5t-13 -4.5q-26 -9 -51.5 -13t-39.5 -4.5t-52 -0.5q-4 0 -11.5 -1t-10.5 -1 q-55 0 -140 34q-45 20 -47 21q-53 35 -98 92t-67 116q-17 47 -17 139q0 4 2 13t2 14q0 8 2.5 22t2.5 20q12 89 85 171t159 109q60 20 146 20q62 0 175 -44q30 -10 89 -56l24 -12q16 -7 48 -38.5t36 -46.5q6 -23 8 -45q0 -8 4.5 -35t4.5 -40zM787 364q0 16 -7.5 48t-15.5 43 q-13 20 -72 57q-6 4 -16.5 13t-16.5 13q-6 5 -18 11.5t-15 8.5q-11 9 -15 10q-106 37 -183 37q-113 0 -201.5 -69.5t-113.5 -181.5q-12 -49 -12 -129q0 -7 4.5 -20t5.5 -18q5 -44 18 -71q65 -119 150 -152l36 -14q31 -12 49 -16q8 -1 22 -1.5t18 -0.5q2 0 12.5 -3.5 t15.5 -3.5q14 0 41 7t41 7q2 0 5.5 -0.5t5.5 -0.5q10 0 27.5 8t21.5 9q43 13 84 60.5t66.5 95.5t43.5 98q19 50 19 155zM607 142q0 -5 -18 -16q-55 -26 -127 -26q-43 0 -91 12q-54 14 -87 47q-37 45 -37 99q0 11 11 55q3 9 10.5 17t18.5 17t16 15q3 4 8 11.5t10 13t11 9.5 q75 61 160 61q29 0 51 -11q12 -4 28.5 -23.5t16.5 -31.5t-13 -12q-23 0 -47 10.5t-56 10.5q-39 0 -100 -55.5t-61 -95.5q0 -83 106 -94q5 0 20 -2.5t22 -2.5q15 0 43 7.5t50 15t24 7.5q13 0 22 -13.5t9 -24.5z" />
<glyph unicode="&#xaa;" horiz-adv-x="432" d="M416 488q0 -11 -12 -50q-15 -48 -21 -74q-1 -6 -9 -35t-11 -46.5t-3 -29.5q0 -1 3.5 -8.5t3.5 -10.5q0 -9 -6 -17.5t-16 -8.5q-22 0 -32.5 13.5t-11.5 33.5q-1 18 11.5 55t12.5 49q0 3 -4 3q-7 0 -40 -33q-28 -25 -38 -30q-4 -2 -6.5 -4t-5 -5.5t-4.5 -5.5 q-19 -19 -49 -39t-49 -20q-12 0 -31 6.5t-26 13.5q-2 2 -11 19t-9 20q-1 3 -1 8q-1 53 42 112q2 3 6 12.5t9 15.5q0 2 8 8t10 10q18 22 20 25q49 49 79 61q3 1 7.5 5t6.5 5q38 20 65 20q31 0 59 -16t41 -42zM348 491q0 11 -14 18t-29 7q-25 0 -70.5 -33.5t-89.5 -93.5 q-16 -20 -26.5 -48.5t-9.5 -48.5q0 -14 14 -14q7 0 16 3.5t15 7.5l16 10q9 7 11 8q77 44 136 117q2 2 8 7.5t8 9.5q15 25 15 50z" />
<glyph unicode="&#xab;" horiz-adv-x="660" d="M143 221q1 -17 24 -37.5t52 -38.5t33 -22q13 -15 9 -31q-3 -9 -11.5 -19t-16.5 -9q-6 0 -24 18t-23 21q-5 5 -42.5 29t-61.5 48t-25 48q-1 18 35 43q156 108 179 111q11 1 21 -6t11 -17q2 -17 -14 -33q-5 -4 -18 -9t-18 -8q-18 -10 -39.5 -23.5t-46 -34t-24.5 -30.5z M381 218q4 -19 15 -27q86 -68 125 -82q10 -5 8 -20q0 -14 -2 -20q-9 -18 -22 -18q-5 0 -11.5 4.5t-10.5 9.5l-10 12q-6 7 -7 9q-4 3 -16.5 9.5t-15.5 8.5q-9 5 -24 18.5t-22 18.5q-2 3 -10 5t-10 3q-7 5 -22.5 18.5t-24.5 18.5q-1 1 -6 4t-6.5 4.5t-5.5 4.5t-5 5l-4 6 q-3 3 -4 7t-1 9q0 6 4 16.5t9 12.5q25 15 105 56q24 10 94 51q8 5 26 12t24 8q8 1 15.5 -7.5t9.5 -17.5q1 -16 -11 -24q-6 -5 -14.5 -9.5t-19.5 -8.5t-13 -5q-7 -3 -20.5 -10t-20.5 -10l-16 -8q-15 -7 -26.5 -13.5t-25 -15.5t-21 -18t-7.5 -17z" />
<glyph unicode="&#xac;" horiz-adv-x="674" d="M641 251q0 -3 -5 -14l-11 -23q-5 -12 -6 -15q-3 -9 -6 -24t-4 -18q-1 -4 -12 -29t-13 -39q-8 -46 -36 -46q-9 0 -16.5 6.5t-7.5 16.5q0 3 4 14.5t4 15.5q2 17 21 82q11 38 11 52q0 11 -13.5 16t-26.5 5q-6 0 -18.5 -1t-18.5 -1q-3 0 -11 2t-11 2h-66q-17 0 -49 -1t-48 -1 q-8 0 -24 -2t-23 -2q-5 0 -14.5 1.5t-13.5 1.5q-5 0 -16 -2t-17 -2q-4 0 -11.5 0.5t-10.5 0.5q-41 0 -73 -4q-12 -6 -22 -6q-15 0 -31 14t-16 29q0 14 8.5 23t22.5 9q2 0 6 -1.5t6 -1.5h66q7 0 47.5 1.5t61.5 1.5q13 0 82 0.5t90 0.5q10 0 25 -0.5t16 -0.5q43 0 76 -4 q4 0 15.5 -2t17.5 -2t16 1.5t15 1.5q19 0 26 -8.5t9 -27.5q0 -3 2.5 -9.5t2.5 -10.5z" />
<glyph unicode="&#xad;" horiz-adv-x="330" d="M278 248q0 -12 -8.5 -27t-18.5 -16l-59 -8q-51 -6 -72 -8q-3 0 -11 -4t-13 -4q-7 0 -15.5 2t-18 11t-9.5 23q0 12 6.5 22t15.5 11q2 0 8.5 -1.5t9.5 -0.5q4 0 48 7.5t84 11.5q5 1 15 4t14 3q9 1 16.5 -7.5t7.5 -18.5z" />
<glyph unicode="&#xae;" horiz-adv-x="538" d="M507 526q0 -4 -2 -11.5t-2 -11.5q0 -2 1 -7t1 -8q0 -12 -2.5 -21t-7.5 -21t-8 -20q-1 -4 -3 -11t-4 -11q-1 -3 -4.5 -7t-4.5 -6q-4 -11 -10 -19.5t-16.5 -20.5t-14.5 -17q-13 -15 -43 -29.5t-53 -18.5q-17 -3 -50 -3q-1 0 -4 -0.5t-5 -0.5q-26 -4 -68 18q-5 3 -13.5 7 t-15 7.5t-12.5 7.5q-4 6 -13 8q-8 4 -29 25q-22 22 -49 61q-4 5 -8 18.5t-6 16.5q0 1 -8 20.5t-8 36.5q0 2 0.5 7.5t0.5 8.5q0 2 -1 2q0 1 1 7t1 9q0 20 8.5 40t15.5 30.5t24 33.5l7 10l9 14q4 5 9 9q72 70 158 70q44 0 67 -3q12 -1 23 -4.5t26 -9.5t22 -8q18 -6 44 -29.5 t26 -39.5q0 -1 -4 -13q6 -11 13 -37q8 -13 8 -59q0 -4 2 -10t2 -10zM472 520v8q1 10 0 21.5t-3 25.5l-3 21q-2 14 -16 41q0 20 -16.5 35t-38.5 21q-3 1 -8 4t-8 4q-24 8 -61 8q-58 0 -91.5 -11.5t-72.5 -48.5q-5 -4 -9.5 -7t-6 -5t-6.5 -12q-7 -2 -10 -9q-34 -52 -34 -99 q0 -4 5 -34q16 -68 71.5 -116.5t123.5 -48.5q79 0 126 53q1 1 16 22q19 30 24 45q14 47 14 49q0 25 4 33zM380 458q0 -7 -6 -16.5t-12 -9.5q-8 0 -19 7l-10 10q-11 11 -49.5 34.5t-50.5 23.5q-3 0 -4.5 -2.5t-2.5 -6t-1 -7.5t-0.5 -8t-0.5 -5q-2 -6 -5.5 -15.5t-4.5 -13.5 q0 -1 -1 -7.5t-1.5 -11.5t-2 -12.5t-3.5 -13.5t-4.5 -11t-6.5 -8t-8 -3q-8 0 -15.5 9t-7.5 17q0 9 7 26.5t7 26.5q3 9 7 27t6 25l10 36q7 25 10 38q1 7 1.5 22.5t1.5 22.5q1 5 10.5 10t14.5 5q4 0 10.5 -1t9.5 -1t16 -1t18 -1.5t16.5 -2t17 -4t14 -7t12.5 -10t7 -14t3 -19.5 q0 -6 -6 -20q-11 -27 -58 -44l-2 -1q-1 -6 22 -19.5t36 -19.5q2 -1 9.5 -4.5t11.5 -8t4 -11.5zM321 591q0 13 -59 13q-4 0 -8 -4q-13 -39 -13 -53q45 8 68 27q12 8 12 17z" />
<glyph unicode="&#xaf;" horiz-adv-x="526" d="M424 608q0 -13 -7.5 -27t-17.5 -14t-101 -0.5t-111 -0.5q-4 0 -11.5 -2.5t-12.5 -2.5q-13 0 -28 9t-15 30q0 12 6.5 21t15.5 9q2 0 8.5 -1t10.5 -1q5 0 87.5 1t122.5 1q5 0 15 3t14 3q9 0 16.5 -9t7.5 -19z" />
<glyph unicode="&#xb0;" horiz-adv-x="356" d="M372 516q0 -61 -61 -108q-4 -3 -11 -12.5t-12 -12.5q-42 -32 -89 -32q-40 0 -80 36.5t-52 78.5q-12 32 -12 59q0 40 20 65t60 51q6 4 38 10t42 6q72 0 114.5 -35t42.5 -106zM324 547q0 49 -72 49q-7 0 -20 -2.5t-18 -2.5q-42 -3 -67 -25.5t-25 -62.5q0 -26 20 -56t44 -30 q43 0 60 11q78 53 78 119z" />
<glyph unicode="&#xb1;" horiz-adv-x="528" d="M424 309q0 -8 -13 -13q-30 -7 -106 -21q-22 -6 -28 -16q-1 -1 -5 -35q-21 -91 -23 -102t-18 -11q-28 0 -28 40q0 18 5.5 50.5t5.5 48.5q0 14 -25 14q-8 0 -24.5 -0.5t-25.5 -0.5q-8 0 -49 11q-10 2 -10 21q0 7 3 11.5t10 6t11.5 2t14 0t11.5 -0.5q8 0 24.5 -1.5 t25.5 -1.5q38 0 43 15q8 26 8 67q0 10 -2.5 30t-2.5 30q0 7 5.5 14t12.5 7q6 0 22.5 -14.5t18.5 -20.5q5 -11 5 -38q0 -9 -0.5 -27.5t-0.5 -27.5q0 -15 5 -18.5t18 -3.5h37q8 0 23.5 2t22.5 2q10 0 19.5 -5t9.5 -14zM486 39q-4 -10 -12 -13q-3 -1 -9.5 -1.5t-9.5 -0.5 t-24.5 -5t-31.5 -5q-13 0 -37 3.5t-36 3.5q-8 0 -23.5 -2.5t-22.5 -2.5q-6 0 -18 2t-18 2t-20 -1t-21 -1q-5 0 -13 2t-13 2q-28 0 -93 -14q-29 -8 -36 -8q-11 0 -21.5 9t-10.5 20q0 3 1 5t2 3.5t3 3.5t3.5 3t4.5 2t4 1.5t4.5 2t4.5 1.5q3 1 13 7.5t16 8.5q17 4 56 4h98 q39 0 192 -13q36 -2 60 -7q8 -2 8 -12z" />
<glyph unicode="&#xb2;" horiz-adv-x="412" d="M357 207q-3 0 -18.5 5.5t-34.5 5.5q-34 0 -110.5 -5.5t-87.5 -5.5q-24 0 -57 7q-5 1 -12.5 12t-7.5 16q0 6 2.5 11t8 8.5t9 5.5t10.5 4.5t8 3.5q44 19 92.5 54.5t74.5 77.5q31 48 31 92q0 39 -53 39q-5 0 -39 -9h-10q-8 0 -10 -1q-23 -15 -34 -15t-19 11.5t-8 17.5 q0 18 17 25q35 20 107 20q52 0 79 -21q26 -20 26 -65q0 -66 -48 -130q-12 -18 -42.5 -45.5t-53.5 -42.5q-25 -16 -25 -19q0 -1 21 -1q62 0 106 4q12 0 30 4.5t29 4.5q56 0 56 -43q0 -12 -11.5 -19t-25.5 -7z" />
<glyph unicode="&#xb3;" horiz-adv-x="409" d="M196 141q-38 0 -65 4.5t-40 8.5t-15 4t-6 -0.5t-7 -0.5q-33 0 -33 29q0 11 12 22.5t21 11.5q4 0 23 -8.5t23 -8.5q55 -10 64 -10q51 0 97 29t46 74q0 26 -17.5 41.5t-35.5 15.5q-15 0 -25 -4q-15 -6 -35 -15t-32.5 -13.5t-23.5 -4.5q-14 0 -24.5 7t-10.5 20q0 6 5.5 15.5 t11.5 12.5l39 15q28 15 48 30q24 16 49.5 49t25.5 44q0 17 -31 17q-25 0 -44.5 -4t-31 -7.5t-14.5 -3.5q-7 0 -19.5 9.5t-12.5 17.5q0 7 8.5 17.5t20.5 11.5q6 1 19.5 5.5t17.5 5.5q29 5 56 5q45 0 69.5 -18t24.5 -45q0 -10 -9.5 -33.5t-22.5 -40.5l-30 -39q0 -6 10 -6 q36 -16 56.5 -42t20.5 -72q0 -56 -57.5 -101t-125.5 -45z" />
<glyph unicode="&#xb4;" horiz-adv-x="526" d="M195 544q0 7 25 37l57 64q31 33 36 41q7 10 17 32.5t10 28.5t5 11.5t11 5.5q13 0 25.5 -11.5t12.5 -24.5q0 -26 -25 -65t-56.5 -71t-58.5 -55t-32 -23q-9 0 -18 12t-9 18z" />
<glyph unicode="&#xb5;" horiz-adv-x="541" d="M143 383q1 3 2.5 11.5t2.5 12.5q8 26 23 26q10 0 24.5 -16t15.5 -26q1 -9 -9 -53.5t-23 -96t-15 -62.5q-13 -68 -9 -124q0 -6 16 -6q15 0 78 80l155 200l12 21q8 14 13 20q6 10 18 10q1 0 8 -6l15 -14l9 -9q4 -8 4 -10q1 -33 -40 -209q0 -3 0.5 -12.5t-0.5 -11.5 q-2 -11 -6 -29.5t-6 -31t-2 -18.5q0 -2 4.5 -11.5t5.5 -13.5q2 -10 -4 -19.5t-15 -9.5q-36 0 -42 49q-3 26 19 142q11 35 8 50q0 3 -4 6t-6 3q-4 0 -10.5 -7t-16.5 -19.5t-17 -19.5q-11 -12 -23 -30q-3 -4 -8.5 -13t-8.5 -12l-28 -38l-41 -55q-18 -23 -41 -44t-39 -21 q-17 0 -41 27q-11 14 -14 45q-7 38 8 82q-5 6 -11 6q-2 -2 -5 -10.5t-6 -19t-4 -13.5q-11 -28 -31 -86q-6 -17 -25 -60q-4 -10 -10 -31t-10 -31q-3 -8 -11 -23t-11 -23q-3 -7 -7 -27.5t-10 -30.5q-9 -15 -27 -34.5t-29 -19.5q-5 0 -16 7.5t-11 13.5q0 9 24.5 66t27.5 71 q2 11 11.5 28t12.5 25q2 4 9 23t12 29q50 104 98 229t57 174z" />
<glyph unicode="&#xb6;" horiz-adv-x="634" d="M550 393q0 -5 -20.5 -21.5t-25.5 -26.5q-8 -16 -9 -25q-7 -57 -22 -160t-19 -138q-1 -13 -6.5 -43t-6.5 -46q-4 -41 -7 -62.5t-7 -33t-7.5 -13.5t-10.5 -2q-4 0 -21 14t-20 19q-4 4 -4 13q0 11 7.5 31.5t7.5 30.5q0 3 12 116q1 14 6 40t8 59q4 32 12 81q2 12 4.5 33.5 t3.5 28.5q0 5 2.5 19t2.5 17q0 17 -16 17q-18 0 -28.5 -8.5t-13 -15.5t-6 -28t-4.5 -26l-6 -20q-4 -13 -6 -19q-2 -10 -5 -54q-6 -49 -15 -100t-23 -121.5t-19 -99.5l-3 -9q-2 -6 -2 -8q-2 -8 -3 -22.5t-2 -18.5q0 -2 -1 -7l-3 -10l-3 -9t-4 -9.5t-4.5 -7t-6 -5.5t-7.5 -2 q-3 0 -13 12t-12 13q-17 8 -18 16q-1 2 -1 5q0 24 15.5 72t17.5 59l16 85l19 100l17 90q9 48 13.5 81t4.5 47q0 12 -12 15q-69 6 -134 36q-42 21 -70 60.5t-28 85.5q0 50 33.5 81t98.5 51q13 4 35.5 8t32.5 6q21 8 52 8q29 0 80 -7t102.5 -26t51.5 -44q0 -10 -7 -33 q-13 -61 -25 -138q0 -2 -2 -9t-2 -10t4.5 -6.5t7.5 -3.5q2 0 8.5 2.5t8.5 2.5q5 0 7 -7zM347 600q0 17 -17 17q-45 0 -91 -12q-27 -5 -40 -10q-19 -7 -57 -34q-21 -21 -21 -53q0 -62 56.5 -94t123.5 -32q14 0 17 10q12 38 20.5 109t8.5 99zM482 572q0 29 -45 29 q-10 0 -16 -10q-9 -19 -19.5 -82.5t-10.5 -87.5q0 -5 -2.5 -15t-2.5 -14q0 -13 17 -13q38 0 44 17q4 9 11 41q2 13 8.5 44.5t11 56t4.5 34.5z" />
<glyph unicode="&#xb7;" horiz-adv-x="192" d="M146 242q0 -14 -14 -30t-29 -16q-26 0 -34 7q-15 11 -15 43q0 15 15 28t30 13t31 -16.5t16 -28.5z" />
<glyph unicode="&#xb8;" horiz-adv-x="526" d="M300 -271q0 -19 -21 -41t-42 -33l-21 -6q-2 -1 -8.5 -7.5t-8.5 -7.5q-6 -4 -44.5 -13.5t-46.5 -9.5q-4 0 -10 4.5t-6 8.5q0 7 8.5 16t20.5 13q116 42 116 86q0 9 -25.5 32.5t-51.5 55.5t-26 62q0 12 2 22t6 18l8 13q3 5 8 10t5 6q19 21 48.5 39.5t50.5 18.5q37 0 37 -38 q0 -12 -15.5 -20.5t-38 -18.5t-32.5 -23q-16 -22 -16 -41t16 -37.5t35.5 -31.5t35.5 -33.5t16 -43.5z" />
<glyph unicode="&#xb9;" horiz-adv-x="256" d="M195 496q-37 -136 -43 -174q-15 -75 -15 -94q0 -18 -8.5 -32t-19.5 -14q-10 0 -20.5 16.5t-10.5 26.5q0 6 4 26q7 18 17 66t12 55q6 28 14.5 62t15.5 65q2 6 1 17t0 17q12 52 14 58q3 12 25 12q8 0 21.5 -9.5t13.5 -17.5q0 -12 -21 -80z" />
<glyph unicode="&#xba;" horiz-adv-x="347" d="M363 449q0 -53 -42 -117.5t-91 -98.5q-46 -26 -73 -26q-7 0 -19 4.5t-14 5.5q-23 6 -46 40q-5 7 -5 22q-6 14 -6 22q0 27 6.5 62t19.5 46l2 4q0 26 47 83q1 1 10 16t16 22q3 4 12.5 8.5t13.5 7.5q21 16 44 16q10 0 46 -12q39 -15 56 -38q23 -33 23 -67zM313 464 q0 19 -11.5 33.5t-31.5 14.5q-28 0 -61.5 -25t-60.5 -75q-3 -7 -6 -20l-4 -16q-1 -4 -15 -37l-1 -1v-2q0 -2 1 -5.5t1 -5.5q0 -6 -1 -14.5t-1 -13.5q0 -39 27 -39q34 0 80 38.5t63 90.5q1 5 6.5 12t6.5 10q8 30 8 55z" />
<glyph unicode="&#xbb;" horiz-adv-x="660" d="M524 225q0 13 -18 26q-38 27 -91 54q-7 3 -22 5q-19 2 -22 6q-15 10 -10 39q1 6 9.5 10.5t15.5 4.5q10 -1 20.5 -6t23 -13t18.5 -11q15 -7 66 -39q48 -31 61 -41q3 -3 12 -8t12 -8q13 -11 13 -39q0 -4 -1.5 -7.5t-5 -6.5t-7 -5t-9 -4.5t-9 -3.5t-9.5 -3t-8 -3 q-4 -1 -11.5 -7.5t-10.5 -8.5q-7 -4 -20.5 -9.5t-19.5 -8.5q-12 -7 -37 -23l-38 -25q-20 -10 -21 -10q-12 -1 -27 4.5t-16 16.5t10 17q5 4 45.5 27t73.5 46t33 34zM258 212q0 13 -28.5 34t-59.5 38l-66 34q-36 17 -37 17q-9 9 -8 21q1 4 14.5 13.5t17.5 9.5h7q2 0 4 -1l4 -2 h2q10 -5 27 -16.5t25 -15.5q4 -2 98 -59q12 -7 42.5 -19.5t44.5 -22.5q4 -3 9 -17.5t5 -22.5q0 -10 -14 -20t-25 -13q-39 -13 -119 -62q-4 -2 -50.5 -27.5t-57.5 -33.5q-16 -11 -20 -12q-5 -1 -12.5 3.5t-8.5 4.5q-14 6 -14 21q-1 9 9 17q14 11 40.5 26.5t47.5 26.5l54 28 l39 20q11 6 20.5 15.5t9.5 14.5z" />
<glyph unicode="&#xbc;" horiz-adv-x="826" d="M195 496q-37 -136 -43 -174q-15 -75 -15 -94q0 -18 -8.5 -32t-19.5 -14q-10 0 -20.5 16.5t-10.5 26.5q0 6 4 26q7 18 17 66t12 55q6 28 14.5 62t15.5 65q2 6 1 17t0 17q12 52 14 58q3 12 25 12q8 0 21.5 -9.5t13.5 -17.5q0 -12 -21 -80zM528 539q-92 -110 -200 -294 q-117 -197 -154 -270l-8 -32q-6 -26 -32 -26q-8 0 -17.5 7t-9.5 17q0 14 49 97q177 311 267 455q24 40 48.5 67.5t40.5 27.5q10 0 17 -9.5t7 -19.5q0 -14 -8 -20zM762 91q-5 0 -49.5 1t-49.5 1q-10 0 -11 -9q-23 -104 -23 -147q0 -4 2 -7.5t2 -5.5q0 -12 -12.5 -18t-25.5 -6 q-9 0 -19.5 8.5t-10.5 17.5q0 6 11.5 78t11.5 80q0 11 -29 11q-11 0 -45 -1t-45 -1q-7 0 -24 -1t-24 -1q-24 0 -37 10t-13 25q0 13 62 83l121 132l16 16l13 14l11 11q6 6 9 8l8 6q4 3 7 4t6.5 2t7.5 1q9 0 19 10.5t19 10.5q15 0 25.5 -10.5t10.5 -27.5q0 -4 -4.5 -17.5 t-5.5 -21.5q-20 -98 -31 -189q-1 -3 2 -5t7 -2q7 0 47.5 1.5t44.5 1.5q10 0 16 -16t6 -29q0 -18 -26 -18zM628 343q-9 0 -50 -46q-22 -21 -78 -81.5t-56 -66.5q0 -2 6 -2h149q1 0 3 3t2 4l29 185q0 4 -5 4z" />
<glyph unicode="&#xbd;" horiz-adv-x="826" d="M195 496q-37 -136 -43 -174q-15 -75 -15 -94q0 -18 -8.5 -32t-19.5 -14q-10 0 -20.5 16.5t-10.5 26.5q0 6 4 26q7 18 17 66t12 55q6 28 14.5 62t15.5 65q2 6 1 17t0 17q12 52 14 58q3 12 25 12q8 0 21.5 -9.5t13.5 -17.5q0 -12 -21 -80zM528 539q-92 -110 -200 -294 q-117 -197 -154 -270l-8 -32q-6 -26 -32 -26q-8 0 -17.5 7t-9.5 17q0 14 49 97q177 311 267 455q24 40 48.5 67.5t40.5 27.5q10 0 17 -9.5t7 -19.5q0 -14 -8 -20zM756 -4q-3 0 -19 6t-34 6q-34 0 -111 -6t-88 -6q-28 0 -56 8q-5 1 -12.5 11.5t-7.5 16.5t2.5 11t8 8.5 t8.5 4.5l11 5q7 3 8 3q45 20 93 55.5t74 76.5q30 48 30 92q0 40 -52 40q-7 0 -40 -10q-1 0 -9.5 0.5t-9.5 -1.5q-21 -14 -35 -14q-11 0 -18.5 11t-7.5 18q0 18 17 25q36 19 107 19q52 0 79 -21q26 -20 26 -64q0 -66 -49 -130q-13 -18 -43 -46t-53 -43q-25 -15 -25 -18 q0 -1 0.5 -1.5t2.5 -0.5h4q2 0 6 0.5t8 0.5q63 0 107 4q12 0 30 4.5t29 4.5q55 0 55 -44q0 -12 -11 -19t-25 -7z" />
<glyph unicode="&#xbe;" horiz-adv-x="1006" d="M196 141q-38 0 -65 4.5t-40 8.5t-15 4t-6 -0.5t-7 -0.5q-33 0 -33 29q0 11 12 22.5t21 11.5q4 0 23 -8.5t23 -8.5q55 -10 64 -10q51 0 97 29t46 74q0 26 -17.5 41.5t-35.5 15.5q-15 0 -25 -4q-15 -6 -35 -15t-32.5 -13.5t-23.5 -4.5q-14 0 -24.5 7t-10.5 20q0 6 5.5 15.5 t11.5 12.5l39 15q28 15 48 30q24 16 49.5 49t25.5 44q0 17 -31 17q-25 0 -44.5 -4t-31 -7.5t-14.5 -3.5q-7 0 -19.5 9.5t-12.5 17.5q0 7 8.5 17.5t20.5 11.5q6 1 19.5 5.5t17.5 5.5q29 5 56 5q45 0 69.5 -18t24.5 -45q0 -10 -9.5 -33.5t-22.5 -40.5l-30 -39q0 -6 10 -6 q36 -16 56.5 -42t20.5 -72q0 -56 -57.5 -101t-125.5 -45zM708 539q-89 -105 -200 -294q-117 -197 -154 -270q-4 -5 -8 -32q-6 -26 -32 -26q-8 0 -17.5 7t-9.5 17q0 16 48 97l58 102l62 108l64 109l83 136q59 95 90 95q10 0 17 -10t7 -19q0 -14 -8 -20zM942 91q-6 0 -50.5 1 t-48.5 1q-9 0 -12 -9q-22 -99 -22 -147q0 -4 2 -7.5t2 -5.5q0 -12 -12.5 -18t-25.5 -6q-9 0 -19.5 8.5t-10.5 17.5q0 6 11.5 78t11.5 80q0 11 -29 11q-11 0 -45 -1t-46 -1q-7 0 -23 -1t-24 -1q-24 0 -37 10t-13 25q0 13 62 84l121 131q51 52 61 57q8 5 17 5t18.5 10.5 t19.5 10.5q15 0 25 -10.5t10 -27.5q0 -4 -4 -17.5t-5 -21.5q-20 -98 -31 -189q-1 -3 1.5 -5t7.5 -2q7 0 47.5 1.5t44.5 1.5q9 0 15.5 -16t6.5 -29q0 -18 -26 -18zM808 343q-9 0 -50 -46q-23 -21 -79 -81.5t-56 -66.5q0 -2 7 -2h149q1 0 3 3t2 4q25 157 29 185q0 4 -5 4z" />
<glyph unicode="&#xbf;" horiz-adv-x="334" d="M164 430q0 31 44 31q26 0 26 -33q0 -39 -30 -39q-40 0 -40 41zM-18 -59q0 24 11.5 47t32.5 43.5t37.5 33.5t40.5 29t28 19q41 32 63 67q7 12 16 29.5t13 22.5t10 5q19 0 19 -41q0 -60 -146 -167q-71 -49 -71 -93q0 -34 36.5 -51t69.5 -17q16 0 34.5 5.5t23.5 5.5 q12 0 20 -15t8 -27q0 -14 -32.5 -23t-57.5 -9q-58 0 -107 39.5t-49 96.5z" />
<glyph unicode="&#xc0;" horiz-adv-x="559" d="M175 799q0 8 8.5 23t14.5 15q8 0 26.5 -11.5t41.5 -27.5t28 -19q19 -12 55 -31t56.5 -31.5t20.5 -17.5q0 -7 -5 -19t-13 -12q-24 0 -128.5 56t-104.5 75zM493 7q0 -16 -10 -26t-22 -10q-21 0 -39 28q-17 29 -22 64q-1 10 -2.5 28t-3 30.5t-5.5 19.5q-3 10 -26 10 q-1 0 -13 -1t-27.5 -2t-26.5 -1q-28 0 -66.5 3t-50.5 3q-25 0 -34 -2.5t-16 -12.5q-27 -37 -129 -191q-1 -2 -7 -5.5t-10 -3.5q-12 0 -26 14.5t-14 25.5q0 18 16 38q55 64 107.5 140.5t85.5 130.5l140 231q13 21 31.5 61t26.5 55q8 13 17 13q6 0 9.5 -2t8.5 -10t8 -11 q2 -2 8.5 -4t9.5 -4q15 -17 15 -41q0 -13 -1 -37.5t-1 -38.5q0 -8 2.5 -40.5t6 -84t5.5 -95.5q9 -190 34 -234q2 -5 11.5 -16.5t9.5 -21.5zM384 208q-2 54 -6 102t-4 57q-6 72 -7 94q-3 40 -13 40q-6 0 -21 -29q-26 -47 -65 -110l-62 -99q-23 -37 -23 -43q0 -3 2.5 -5.5 t7.5 -4t9.5 -2t11.5 -1.5t10 -2q78 -10 94 -10q47 0 60 4q6 1 6 9z" />
<glyph unicode="&#xc1;" horiz-adv-x="559" d="M315 701q0 7 33 26l72 39q39 20 46 25q35 25 44 46q5 11 18 11q9 0 18 -13.5t9 -26.5q0 -26 -52.5 -60.5t-106 -57t-65.5 -22.5q-7 0 -11.5 12.5t-4.5 20.5zM493 7q0 -16 -10 -26t-22 -10q-21 0 -39 28q-17 29 -22 64q-1 10 -2.5 28t-3 30.5t-5.5 19.5q-3 10 -26 10 q-1 0 -13 -1t-27.5 -2t-26.5 -1q-28 0 -66.5 3t-50.5 3q-25 0 -34 -2.5t-16 -12.5q-27 -37 -129 -191q-1 -2 -7 -5.5t-10 -3.5q-12 0 -26 14.5t-14 25.5q0 18 16 38q55 64 107.5 140.5t85.5 130.5l140 231q13 21 31.5 61t26.5 55q8 13 17 13q6 0 9.5 -2t8.5 -10t8 -11 q2 -2 8.5 -4t9.5 -4q15 -17 15 -41q0 -13 -1 -37.5t-1 -38.5q0 -8 2.5 -40.5t6 -84t5.5 -95.5q9 -190 34 -234q2 -5 11.5 -16.5t9.5 -21.5zM384 208q-2 54 -6 102t-4 57q-6 72 -7 94q-3 40 -13 40q-6 0 -21 -29q-26 -47 -65 -110l-62 -99q-23 -37 -23 -43q0 -3 2.5 -5.5 t7.5 -4t9.5 -2t11.5 -1.5t10 -2q78 -10 94 -10q47 0 60 4q6 1 6 9z" />
<glyph unicode="&#xc2;" horiz-adv-x="559" d="M505 697q0 -14 -16 -17q-10 -1 -22.5 5t-15.5 12q-3 4 -13 27t-20.5 42t-18.5 18q-5 0 -14 -5t-23 -16l-20 -17q-7 -6 -24 -22l-18 -15q-11 -13 -29 -16q-10 -1 -19 4.5t-9 11.5q0 4 4 9.5t11 12t14 11.5l14 11q8 6 11 8q2 5 12.5 14.5t26 21.5t18.5 14q42 39 64 42 q22 1 32 -21q10 -30 18 -65q7 -23 19 -41q2 -4 10 -13t8 -16zM493 7q0 -16 -10 -26t-22 -10q-21 0 -39 28q-17 29 -22 64q-1 10 -2.5 28t-3 30.5t-5.5 19.5q-3 10 -26 10q-1 0 -13 -1t-27.5 -2t-26.5 -1q-28 0 -66.5 3t-50.5 3q-25 0 -34 -2.5t-16 -12.5q-27 -37 -129 -191 q-1 -2 -7 -5.5t-10 -3.5q-12 0 -26 14.5t-14 25.5q0 18 16 38q55 64 107.5 140.5t85.5 130.5l140 231q13 21 31.5 61t26.5 55q8 13 17 13q6 0 9.5 -2t8.5 -10t8 -11q2 -2 8.5 -4t9.5 -4q15 -17 15 -41q0 -13 -1 -37.5t-1 -38.5q0 -8 2.5 -40.5t6 -84t5.5 -95.5 q9 -190 34 -234q2 -5 11.5 -16.5t9.5 -21.5zM384 208q-2 54 -6 102t-4 57q-6 72 -7 94q-3 40 -13 40q-6 0 -21 -29q-26 -47 -65 -110l-62 -99q-23 -37 -23 -43q0 -3 2.5 -5.5t7.5 -4t9.5 -2t11.5 -1.5t10 -2q78 -10 94 -10q47 0 60 4q6 1 6 9z" />
<glyph unicode="&#xc3;" horiz-adv-x="559" d="M583 757q0 -5 -7 -19v-10q0 -8 -1 -11q-4 -22 -36.5 -51t-52.5 -29q-19 0 -37.5 11.5t-28 22t-31.5 37.5q-1 1 -6.5 8.5t-9 11.5t-9.5 11.5t-11 11.5t-10.5 7.5t-9.5 3.5q-36 0 -69 -40q-4 -5 -8 -15t-9 -15.5t-14 -5.5q-17 0 -28.5 10.5t-11.5 27.5q0 12 24 34 q64 64 105 64t60 -18q5 -9 10 -16q2 -2 6.5 -3t6.5 -2q9 -11 24.5 -34.5t27 -37t19.5 -14.5q11 0 33.5 18.5t41 37t19.5 18.5q5 0 9 -5t4 -9zM493 7q0 -16 -10 -26t-22 -10q-21 0 -39 28q-17 29 -22 64q-1 10 -2.5 28t-3 30.5t-5.5 19.5q-3 10 -26 10q-1 0 -13 -1t-27.5 -2 t-26.5 -1q-28 0 -66.5 3t-50.5 3q-25 0 -34 -2.5t-16 -12.5q-27 -37 -129 -191q-1 -2 -7 -5.5t-10 -3.5q-12 0 -26 14.5t-14 25.5q0 18 16 38q55 64 107.5 140.5t85.5 130.5l140 231q13 21 31.5 61t26.5 55q8 13 17 13q6 0 9.5 -2t8.5 -10t8 -11q2 -2 8.5 -4t9.5 -4 q15 -17 15 -41q0 -13 -1 -37.5t-1 -38.5q0 -8 2.5 -40.5t6 -84t5.5 -95.5q9 -190 34 -234q2 -5 11.5 -16.5t9.5 -21.5zM384 208q-2 54 -6 102t-4 57q-6 72 -7 94q-3 40 -13 40q-6 0 -21 -29q-26 -47 -65 -110l-62 -99q-23 -37 -23 -43q0 -3 2.5 -5.5t7.5 -4t9.5 -2 t11.5 -1.5t10 -2q78 -10 94 -10q47 0 60 4q6 1 6 9z" />
<glyph unicode="&#xc4;" horiz-adv-x="559" d="M321 714q0 -11 -9 -20.5t-20 -9.5q-14 0 -27 18t-13 32q0 11 6.5 20.5t16.5 9.5q12 0 29 -19t17 -31zM496 716q0 -12 -12.5 -22t-25.5 -10q-16 0 -27.5 12t-11.5 28q0 13 7 24t19 11q16 0 33.5 -14t17.5 -29zM493 7q0 -16 -10 -26t-22 -10q-21 0 -39 28q-17 29 -22 64 q-1 10 -2.5 28t-3 30.5t-5.5 19.5q-3 10 -26 10q-1 0 -13 -1t-27.5 -2t-26.5 -1q-28 0 -66.5 3t-50.5 3q-25 0 -34 -2.5t-16 -12.5q-27 -37 -129 -191q-1 -2 -7 -5.5t-10 -3.5q-12 0 -26 14.5t-14 25.5q0 18 16 38q55 64 107.5 140.5t85.5 130.5l140 231q13 21 31.5 61 t26.5 55q8 13 17 13q6 0 9.5 -2t8.5 -10t8 -11q2 -2 8.5 -4t9.5 -4q15 -17 15 -41q0 -13 -1 -37.5t-1 -38.5q0 -8 2.5 -40.5t6 -84t5.5 -95.5q9 -190 34 -234q2 -5 11.5 -16.5t9.5 -21.5zM384 208q-2 54 -6 102t-4 57q-6 72 -7 94q-3 40 -13 40q-6 0 -21 -29 q-26 -47 -65 -110l-62 -99q-23 -37 -23 -43q0 -3 2.5 -5.5t7.5 -4t9.5 -2t11.5 -1.5t10 -2q78 -10 94 -10q47 0 60 4q6 1 6 9z" />
<glyph unicode="&#xc5;" horiz-adv-x="559" d="M567 825q0 -17 -14 -41t-29 -39q-20 -24 -66 -53q-18 -9 -21 -9q-4 0 -11 2t-10 2q-41 4 -44 6q-48 29 -48 98q0 25 16 50.5t40 41.5q17 9 49 9q11 0 30 -3.5t29 -3.5h15q19 0 41.5 -20.5t22.5 -39.5zM493 7q0 -16 -10 -26t-22 -10q-21 0 -39 28q-17 29 -22 64 q-1 10 -2.5 28t-3 30.5t-5.5 19.5q-3 10 -26 10q-1 0 -13 -1t-27.5 -2t-26.5 -1q-28 0 -66.5 3t-50.5 3q-25 0 -34 -2.5t-16 -12.5q-27 -37 -129 -191q-1 -2 -7 -5.5t-10 -3.5q-12 0 -26 14.5t-14 25.5q0 18 16 38q55 64 107.5 140.5t85.5 130.5l140 231q13 21 31.5 61 t26.5 55q8 13 17 13q6 0 9.5 -2t8.5 -10t8 -11q2 -2 8.5 -4t9.5 -4q15 -17 15 -41q0 -13 -1 -37.5t-1 -38.5q0 -8 2.5 -40.5t6 -84t5.5 -95.5q9 -190 34 -234q2 -5 11.5 -16.5t9.5 -21.5zM508 814q0 17 -19.5 26.5t-38.5 9.5q-28 0 -51.5 -23t-23.5 -52q0 -23 7 -34.5 t30 -11.5q15 0 29 9q18 10 42.5 34.5t24.5 41.5zM384 208q-2 54 -6 102t-4 57q-6 72 -7 94q-3 40 -13 40q-6 0 -21 -29q-26 -47 -65 -110l-62 -99q-23 -37 -23 -43q0 -3 2.5 -5.5t7.5 -4t9.5 -2t11.5 -1.5t10 -2q78 -10 94 -10q47 0 60 4q6 1 6 9z" />
<glyph unicode="&#xc6;" horiz-adv-x="815" d="M779 582q0 -33 -18 -33q-13 0 -36.5 3t-32.5 3q-74 7 -128 7q-97 0 -97 -25q1 -30 -5.5 -94.5t-6.5 -80.5q0 -31 15.5 -40t47.5 -9q8 0 29.5 1.5t28.5 1.5q22 0 57.5 -4t50.5 -5q2 0 8 0.5t8 0.5q15 0 42 -9q7 -3 7 -12q0 -7 -13 -28.5t-19 -21.5q-11 0 -35 5.5t-31 6.5 q-12 1 -46.5 5t-53.5 4q-13 0 -38 0.5t-38 0.5q-16 0 -20 -13q-12 -98 -4 -203q2 -21 11.5 -26.5t41.5 -5.5q15 0 46 3t46 3q8 0 24.5 -2t24.5 -2q9 0 23 2.5t18 2.5q15 0 33 -8.5t18 -21.5q0 -2 -8.5 -18t-10.5 -17q-4 -3 -10 -3q-10 0 -28 4.5t-27 4.5q-7 0 -21 -1t-20 -1 q-94 0 -153 -11q-3 -1 -16 -7t-14 -6q-8 0 -18.5 7t-13.5 14q-14 49 -14 70q0 27 4.5 58t4.5 36q8 93 8 104q0 5 0.5 14.5t0.5 13.5q0 22 -40 22q-8 0 -23.5 -1t-23.5 -1q-7 0 -21 0.5t-22 0.5q-9 0 -25 -1.5t-25 -1.5q-8 0 -23.5 -19t-35.5 -49l-20 -29q-63 -85 -130 -197 q-11 -16 -21 -16q-12 0 -24 11t-12 23q0 10 33 59q8 13 27 38t28 39q21 28 57 83l43 65l43 61l52 70l44 59q4 5 11.5 20t13.5 22q9 12 31 36t32 38q40 52 66 52q5 0 25 -8t38 -8q7 0 23 1.5t24 1.5q4 0 12 -1.5t12 -1.5h60q5 0 13 -4q12 -3 26 -3.5t33.5 0.5t26.5 1 q50 0 50 -30zM407 400v30q0 49 -3 61q-5 9 -15 9q-9 0 -59 -66.5t-62 -87.5q0 -18 78 -18q6 0 16 -1t16 -1q25 0 27 19q2 11 2 55z" />
<glyph unicode="&#xc7;" horiz-adv-x="596" d="M210 -29q-49 31 -92 90q-69 95 -69 225q0 54 26.5 117t74 121t125 96t168.5 38q15 0 98 -24q14 -4 23.5 -19.5t9.5 -28.5q-4 -27 -29 -27q-5 0 -17.5 7.5t-40 14.5t-67.5 7q-50 0 -104 -23.5t-99 -64t-74 -101t-29 -127.5q0 -64 34.5 -133.5t77.5 -100.5q45 -33 98 -33 q62 0 151 50q12 7 28.5 18.5t26.5 17.5t16 6q11 0 11 -17q0 -20 -54 -64q-80 -64 -179 -74q-22 -4 -37 -12t-21 -14.5t-20 -23.5q-16 -22 -16 -41t16 -37.5t35.5 -31.5t35.5 -33.5t16 -43.5q0 -19 -21 -41t-42 -33l-21 -6q-2 -1 -8.5 -7.5t-8.5 -7.5q-6 -4 -44.5 -13.5 t-46.5 -9.5q-4 0 -10 4.5t-6 8.5q0 7 8.5 16t20.5 13q116 42 116 86q0 9 -26 32.5t-51.5 55.5t-25.5 62q0 12 2 22t7 18l7 13q3 5 8 10t5 6l17 17q12 8 -3 20z" />
<glyph unicode="&#xc8;" horiz-adv-x="598" d="M151 799q0 8 8.5 23t14.5 15q8 0 26.5 -11.5t41.5 -27.5t28 -19q19 -12 55 -31t56.5 -31.5t20.5 -17.5q0 -7 -5 -19t-13 -12q-24 0 -128.5 56t-104.5 75zM547 45q0 -28 -59 -55t-106 -39q-48 -12 -98 -12q-67 0 -112 15q-3 1 -28 11.5t-31 10.5l-7 -4q-6 -4 -11 -4 q-11 0 -21 15.5t-10 27.5q0 16 4 35t11 43t9 35q16 67 32 164q2 14 7 45l8 51q3 19 5.5 45.5t2.5 48.5q0 34 -15 52t-15 29q0 15 20 22t39 7q14 0 42 -7t43 -7q22 0 173 13q69 6 70 6q12 0 25 -11t13 -23t-12.5 -21.5t-25.5 -9.5q-2 0 -8 0.5t-9 0.5q-33 0 -100.5 -8.5 t-102.5 -8.5q-7 0 -22.5 1t-23.5 1q-23 0 -27 -11q-2 -5 -3.5 -36.5t-2.5 -36.5q-1 -14 -7 -51t-6 -54q0 -18 57 -22q66 -6 98 -6q60 0 110 10q7 1 30 9t29 8q26 0 26 -42q0 -10 -29 -21t-43 -12q-72 -12 -129 -12q-24 0 -70.5 4.5t-69.5 4.5q-16 0 -21.5 -8t-11.5 -38 q-9 -45 -18 -83t-12.5 -54t-3.5 -24q0 -17 46.5 -28.5t70.5 -11.5q101 0 203 35q5 2 35 17t47 15q15 0 15 -21z" />
<glyph unicode="&#xc9;" horiz-adv-x="598" d="M315 701q0 7 33 26l72 39q39 20 46 25q35 25 44 46q5 11 18 11q9 0 18 -13.5t9 -26.5q0 -26 -52.5 -60.5t-106 -57t-65.5 -22.5q-7 0 -11.5 12.5t-4.5 20.5zM547 45q0 -28 -59 -55t-106 -39q-48 -12 -98 -12q-67 0 -112 15q-3 1 -28 11.5t-31 10.5l-7 -4q-6 -4 -11 -4 q-11 0 -21 15.5t-10 27.5q0 16 4 35t11 43t9 35q16 67 32 164q2 14 7 45l8 51q3 19 5.5 45.5t2.5 48.5q0 34 -15 52t-15 29q0 15 20 22t39 7q14 0 42 -7t43 -7q22 0 173 13q69 6 70 6q12 0 25 -11t13 -23t-12.5 -21.5t-25.5 -9.5q-2 0 -8 0.5t-9 0.5q-33 0 -100.5 -8.5 t-102.5 -8.5q-7 0 -22.5 1t-23.5 1q-23 0 -27 -11q-2 -5 -3.5 -36.5t-2.5 -36.5q-1 -14 -7 -51t-6 -54q0 -18 57 -22q66 -6 98 -6q60 0 110 10q7 1 30 9t29 8q26 0 26 -42q0 -10 -29 -21t-43 -12q-72 -12 -129 -12q-24 0 -70.5 4.5t-69.5 4.5q-16 0 -21.5 -8t-11.5 -38 q-9 -45 -18 -83t-12.5 -54t-3.5 -24q0 -17 46.5 -28.5t70.5 -11.5q101 0 203 35q5 2 35 17t47 15q15 0 15 -21z" />
<glyph unicode="&#xca;" horiz-adv-x="598" d="M495 697q0 -14 -16 -17q-11 -1 -23 5t-15 12q-4 4 -13.5 27t-20.5 42t-19 18q-5 0 -14 -5.5t-21 -14.5l-22 -18l-23 -21l-19 -16q-9 -13 -28 -16q-10 -1 -19 4.5t-9 11.5q0 4 3.5 9.5t11.5 12t13 11t15 11.5t11 8q2 5 12 14t26 21.5t18 14.5q42 39 65 42q11 1 20 -6.5 t11 -14.5q13 -40 19 -65q8 -26 18 -41q2 -3 10.5 -12.5t8.5 -16.5zM547 45q0 -28 -59 -55t-106 -39q-48 -12 -98 -12q-67 0 -112 15q-3 1 -28 11.5t-31 10.5l-7 -4q-6 -4 -11 -4q-11 0 -21 15.5t-10 27.5q0 16 4 35t11 43t9 35q16 67 32 164q2 14 7 45l8 51q3 19 5.5 45.5 t2.5 48.5q0 34 -15 52t-15 29q0 15 20 22t39 7q14 0 42 -7t43 -7q22 0 173 13q69 6 70 6q12 0 25 -11t13 -23t-12.5 -21.5t-25.5 -9.5q-2 0 -8 0.5t-9 0.5q-33 0 -100.5 -8.5t-102.5 -8.5q-7 0 -22.5 1t-23.5 1q-23 0 -27 -11q-2 -5 -3.5 -36.5t-2.5 -36.5q-1 -14 -7 -51 t-6 -54q0 -18 57 -22q66 -6 98 -6q60 0 110 10q7 1 30 9t29 8q26 0 26 -42q0 -10 -29 -21t-43 -12q-72 -12 -129 -12q-24 0 -70.5 4.5t-69.5 4.5q-16 0 -21.5 -8t-11.5 -38q-9 -45 -18 -83t-12.5 -54t-3.5 -24q0 -17 46.5 -28.5t70.5 -11.5q101 0 203 35q5 2 35 17t47 15 q15 0 15 -21z" />
<glyph unicode="&#xcb;" horiz-adv-x="598" d="M367 714q0 -11 -9 -20.5t-20 -9.5q-14 0 -27 18t-13 32q0 11 6.5 20.5t16.5 9.5q12 0 29 -19t17 -31zM542 716q0 -12 -12.5 -22t-25.5 -10q-16 0 -27.5 12t-11.5 28q0 13 7 24t19 11q16 0 33.5 -14t17.5 -29zM547 45q0 -28 -59 -55t-106 -39q-48 -12 -98 -12 q-67 0 -112 15q-3 1 -28 11.5t-31 10.5l-7 -4q-6 -4 -11 -4q-11 0 -21 15.5t-10 27.5q0 16 4 35t11 43t9 35q16 67 32 164q2 14 7 45l8 51q3 19 5.5 45.5t2.5 48.5q0 34 -15 52t-15 29q0 15 20 22t39 7q14 0 42 -7t43 -7q22 0 173 13q69 6 70 6q12 0 25 -11t13 -23 t-12.5 -21.5t-25.5 -9.5q-2 0 -8 0.5t-9 0.5q-33 0 -100.5 -8.5t-102.5 -8.5q-7 0 -22.5 1t-23.5 1q-23 0 -27 -11q-2 -5 -3.5 -36.5t-2.5 -36.5q-1 -14 -7 -51t-6 -54q0 -18 57 -22q66 -6 98 -6q60 0 110 10q7 1 30 9t29 8q26 0 26 -42q0 -10 -29 -21t-43 -12 q-72 -12 -129 -12q-24 0 -70.5 4.5t-69.5 4.5q-16 0 -21.5 -8t-11.5 -38q-9 -45 -18 -83t-12.5 -54t-3.5 -24q0 -17 46.5 -28.5t70.5 -11.5q101 0 203 35q5 2 35 17t47 15q15 0 15 -21z" />
<glyph unicode="&#xcc;" horiz-adv-x="297" d="M7 799q0 8 8.5 23t14.5 15q8 0 26.5 -11.5t41.5 -27.5t28 -19q19 -12 55 -31t56.5 -31.5t20.5 -17.5q0 -7 -5 -19t-13 -12q-24 0 -128.5 56t-104.5 75zM249 599q0 -32 -27 -140q-1 -5 -1.5 -14t-0.5 -12q-2 -8 -7.5 -23t-7.5 -23q-1 -5 -1.5 -15.5t-0.5 -13.5 q-12 -68 -27 -117q-13 -52 -13 -59q0 -9 -4.5 -25l-10.5 -36l-9 -25q-18 -69 -26 -132q-3 -16 -5 -19q-9 -12 -25 -12q-17 0 -25 17q-1 3 -8.5 12t-8.5 14q-1 4 2 27q2 13 9 30.5t9 24.5q8 36 11 46q18 55 27 97q4 23 15 63.5t15 59.5q29 133 29 184q0 10 10 70q2 1 0.5 8 t-1.5 9q0 13 12.5 28.5t24.5 15.5q15 0 30 -13t15 -27z" />
<glyph unicode="&#xcd;" horiz-adv-x="297" d="M199 701q0 7 33 26l72 39q39 20 46 25q35 25 44 46q5 11 18 11q9 0 18 -13.5t9 -26.5q0 -26 -52.5 -60.5t-106 -57t-65.5 -22.5q-7 0 -11.5 12.5t-4.5 20.5zM249 599q0 -32 -27 -140q-1 -5 -1.5 -14t-0.5 -12q-2 -8 -7.5 -23t-7.5 -23q-1 -5 -1.5 -15.5t-0.5 -13.5 q-12 -68 -27 -117q-13 -52 -13 -59q0 -9 -4.5 -25t-11.5 -36l-8 -25q-18 -69 -26 -132q-3 -16 -5 -19q-9 -12 -25 -12q-17 0 -25 17q-1 3 -8.5 12t-8.5 14q-1 4 2 27q2 13 9 30.5t9 24.5q8 36 11 46q18 55 27 97q4 23 15 63.5t15 59.5q29 133 29 184q0 10 10 70q2 1 0.5 8 t-1.5 9q0 13 12.5 28.5t24.5 15.5q15 0 30 -13t15 -27z" />
<glyph unicode="&#xce;" horiz-adv-x="297" d="M342 697q0 -14 -16 -17q-10 -1 -22.5 5t-15.5 12q-3 4 -13 27t-20.5 42t-18.5 18q-5 0 -14 -5t-22 -16l-21 -17l-25 -22l-17 -15q-11 -13 -29 -16q-10 -1 -19 4.5t-9 11.5q0 4 3.5 9.5t11.5 12t13 11t15 11.5t11 8q2 5 12.5 14.5t26 21.5t18.5 14q42 39 64 42 q22 1 32 -21q16 -55 18 -65q7 -23 19 -41q2 -4 10 -13t8 -16zM249 599q0 -32 -27 -140q-1 -5 -1.5 -14t-0.5 -12q-2 -8 -7.5 -23t-7.5 -23q-1 -5 -1.5 -15.5t-0.5 -13.5q-12 -68 -27 -117q-13 -52 -13 -59q0 -9 -4.5 -25l-10.5 -36l-9 -25q-18 -69 -26 -132q-3 -16 -5 -19 q-9 -12 -25 -12q-17 0 -25 17q-1 3 -8.5 12t-8.5 14q-1 4 2 27q2 13 9 30.5t9 24.5q8 36 11 46q18 55 27 97q4 23 15 63.5t15 59.5q29 133 29 184q0 10 10 70q2 1 0.5 8t-1.5 9q0 13 12.5 28.5t24.5 15.5q15 0 30 -13t15 -27z" />
<glyph unicode="&#xcf;" horiz-adv-x="297" d="M172 714q0 -11 -9 -20.5t-20 -9.5q-14 0 -27 18t-13 32q0 11 6.5 20.5t16.5 9.5q12 0 29 -19t17 -31zM347 716q0 -12 -12.5 -22t-25.5 -10q-16 0 -27.5 12t-11.5 28q0 13 7 24t19 11q16 0 33.5 -14t17.5 -29zM249 599q0 -32 -27 -140q-1 -5 -1.5 -14t-0.5 -12 q-2 -8 -7.5 -23t-7.5 -23q-1 -5 -1.5 -15.5t-0.5 -13.5q-12 -68 -27 -117q-13 -52 -13 -59q0 -9 -4.5 -25t-11.5 -36l-8 -25q-18 -69 -26 -132q-3 -16 -5 -19q-9 -12 -25 -12q-17 0 -25 17q-1 3 -8.5 12t-8.5 14q-1 4 2 27q2 13 9 30.5t9 24.5q8 36 11 46q18 55 27 97 q4 23 15 63.5t15 59.5q29 133 29 184q0 10 10 70q2 1 0.5 8t-1.5 9q0 13 12.5 28.5t24.5 15.5q15 0 30 -13t15 -27z" />
<glyph unicode="&#xd0;" horiz-adv-x="671" d="M104 284h-41q-12 0 -23.5 8t-11.5 18q0 29 39 29q5 0 14.5 -1.5t13.5 -1.5q10 0 17 -1q13 0 14 13q2 36 2 56q0 14 1 46t0 52.5t-4 43.5q-3 11 -11 11q-12 0 -29 8t-17 22q0 24 14 26q27 7 84 7q37 0 73 -12q127 -22 208 -55q190 -79 190 -240q0 -179 -216 -289 q-33 -17 -94.5 -38.5t-87.5 -21.5q-13 0 -29.5 3t-22.5 3q-2 0 -29 -4.5t-42 -4.5q-18 0 -34 13t-16 27t16 62q1 32 15.5 106.5t18.5 97.5q4 17 -12 17zM210 332q17 0 41 1t41 1.5t25 0.5q12 0 27 -9.5t15 -21.5q0 -11 -16.5 -17t-29.5 -6q-4 0 -17.5 2.5t-17.5 2.5 q-14 0 -40 -0.5t-36 -0.5q-17 0 -19 -17q-7 -43 -20.5 -117.5t-16.5 -100.5q0 -4 -2 -11.5t-2 -9.5q0 -13 29 -13q59 0 121 22q52 16 99.5 41t89.5 59.5t67.5 82t25.5 99.5q0 99 -95 154q-63 36 -146 58.5t-111 22.5q-8 0 -15 -4.5t-7 -12.5q0 -130 -4 -171q0 -4 -0.5 -11 t-1.5 -11q-2 -5 2.5 -9t13.5 -4z" />
<glyph unicode="&#xd1;" horiz-adv-x="792" d="M641 757q0 -5 -7 -19v-10q0 -8 -1 -11q-4 -22 -36.5 -51t-53.5 -29q-19 0 -37.5 11.5t-27.5 22.5l-31 37q-1 1 -6.5 8.5t-9 11.5t-9.5 11.5t-11 11.5t-10.5 7.5t-9.5 3.5q-36 0 -69 -40q-4 -5 -8 -15t-9 -15.5t-14 -5.5q-17 0 -28.5 10.5t-11.5 27.5q0 14 24 34 q64 64 105 64t59 -18q1 -2 5 -7.5t6 -8.5q2 -2 6.5 -3t6.5 -2q8 -11 24 -35t27 -37t20 -14q11 0 33.5 18.5t41 37t19.5 18.5q5 0 9 -5t4 -9zM736 595q0 -15 -3 -31.5t-8 -36.5t-7 -31q-5 -30 -16.5 -89.5t-14.5 -82.5q-17 -121 -19 -153q-2 -34 -4 -41v-29q0 -35 -5 -50 q-1 -6 -16 -16t-21 -10q-4 0 -14.5 9.5t-28 27.5t-26.5 26q-120 108 -179 174q-75 83 -133 159q-3 4 -8.5 13.5t-9.5 15t-6 5.5q-6 0 -9.5 -11.5t-5 -28t-2.5 -18.5q-4 -10 -7 -23q-7 -74 -18 -123q-9 -45 -28 -119q-20 -72 -39 -182q-1 -7 -12 -17.5t-18 -10.5 q-10 0 -19 21t-9 33q0 14 5 35.5t13.5 48.5t10.5 37q10 45 26 129.5t23 118.5q1 5 5 17.5t5 19.5q2 8 3 23t2 19l6 23q2 16 4 47.5t5 47.5q1 8 10.5 20t17.5 12q18 0 34 -19q18 -21 31 -38l28 -39l26 -36q46 -61 93.5 -114.5t79.5 -85.5l90 -87q23 -21 28 -21q7 0 12 30 q1 10 6 52.5t10.5 84.5t12.5 83q12 80 13 86q12 74 18 96q1 2 1 9t1 11q6 48 34 48q9 0 20.5 -14.5t11.5 -24.5z" />
<glyph unicode="&#xd2;" horiz-adv-x="767" d="M267 799q0 8 8.5 23t14.5 15q8 0 26.5 -11.5t41.5 -27.5t28 -19q19 -12 55 -31t56.5 -31.5t20.5 -17.5q0 -7 -5 -19t-13 -12q-24 0 -128.5 56t-104.5 75zM741 382q0 -4 -1 -11t-1 -10q-29 -125 -94 -223q-48 -69 -119 -121.5t-135 -62.5q-5 -1 -22.5 -7t-27.5 -6 q-5 0 -16 2t-16 2q-3 0 -7 -1t-7 -1q-20 0 -34 7q-78 21 -122 70q-72 79 -86 166q-7 45 -6 75q4 50 8 72q12 68 65 121q2 2 6 8l6 9q66 81 179 112q92 28 139 28q10 0 29.5 -1.5t29.5 -1.5q7 0 22 1.5t22 1.5q26 0 51 -10q5 -1 16 -8.5t17 -8.5q38 -6 69.5 -60.5t29.5 -98.5 zM686 405q1 61 -33.5 97.5t-94.5 38.5q-60 4 -87 4q-43 0 -120 -20q-99 -29 -163 -87q-15 -13 -39 -54.5t-27 -58.5q0 -8 -4 -35.5t-4 -42.5q-2 -75 37 -143t108 -90q35 -11 66 -11q149 0 271 172q35 49 62 113.5t28 116.5z" />
<glyph unicode="&#xd3;" horiz-adv-x="767" d="M451 701q0 7 33 26l72 39q39 20 46 25q35 25 44 46q5 11 18 11q9 0 18 -13.5t9 -26.5q0 -26 -52.5 -60.5t-106 -57t-65.5 -22.5q-7 0 -11.5 12.5t-4.5 20.5zM741 382q0 -4 -1 -11t-1 -10q-29 -125 -94 -223q-48 -69 -119 -121.5t-135 -62.5q-5 -1 -22.5 -7t-27.5 -6 q-5 0 -16 2t-16 2q-3 0 -7 -1t-7 -1q-20 0 -34 7q-78 21 -122 70q-72 79 -86 166q-7 45 -6 75q4 50 8 72q12 68 65 121q2 2 6 8l6 9q66 81 179 112q92 28 139 28q10 0 29.5 -1.5t29.5 -1.5q7 0 22 1.5t22 1.5q26 0 51 -10q5 -1 16 -8.5t17 -8.5q38 -6 69.5 -60.5t29.5 -98.5 zM686 405q1 61 -33.5 97.5t-94.5 38.5q-60 4 -87 4q-43 0 -120 -20q-99 -29 -163 -87q-15 -13 -39 -54.5t-27 -58.5q0 -8 -4 -35.5t-4 -42.5q-2 -75 37 -143t108 -90q35 -11 66 -11q149 0 271 172q35 49 62 113.5t28 116.5z" />
<glyph unicode="&#xd4;" horiz-adv-x="767" d="M626 697q0 -14 -15 -17q-11 -1 -23.5 5t-15.5 12q-3 4 -13 27t-20.5 42t-18.5 18q-5 0 -14 -5t-23 -16l-20 -17l-25 -22l-17 -15q-11 -13 -29 -16q-10 -1 -19 4.5t-9 11.5q0 4 4 9.5t11 12t13 11.5l15 11q8 6 11 8q2 5 12.5 14.5t26 21.5t18.5 14q42 39 64 42 q22 1 32 -21q10 -30 18 -65q7 -23 19 -41q2 -4 10 -13t8 -16zM741 382q0 -4 -1 -11t-1 -10q-29 -125 -94 -223q-48 -69 -119 -121.5t-135 -62.5q-5 -1 -22.5 -7t-27.5 -6q-5 0 -16 2t-16 2q-3 0 -7 -1t-7 -1q-20 0 -34 7q-78 21 -122 70q-72 79 -86 166q-7 45 -6 75 q4 50 8 72q12 68 65 121q2 2 6 8l6 9q66 81 179 112q92 28 139 28q10 0 29.5 -1.5t29.5 -1.5q7 0 22 1.5t22 1.5q26 0 51 -10q5 -1 16 -8.5t17 -8.5q38 -6 69.5 -60.5t29.5 -98.5zM686 405q1 61 -33.5 97.5t-94.5 38.5q-60 4 -87 4q-43 0 -120 -20q-99 -29 -163 -87 q-15 -13 -39 -54.5t-27 -58.5q0 -8 -4 -35.5t-4 -42.5q-2 -75 37 -143t108 -90q35 -11 66 -11q149 0 271 172q35 49 62 113.5t28 116.5z" />
<glyph unicode="&#xd5;" horiz-adv-x="767" d="M709 757q0 -2 -3 -10t-3 -9q-1 -3 -1 -10.5t-1 -10.5q-4 -22 -36.5 -51t-52.5 -29q-19 0 -37.5 11.5t-28.5 22.5t-30 37q-2 2 -11 14l-15 19q-6 7 -15 14t-16 7q-35 0 -68 -40q-4 -4 -7 -11t-5.5 -12t-7.5 -9t-12 -4q-17 0 -28 10.5t-11 27.5q0 13 23 34q64 64 106 64 q41 0 59 -18q1 -2 5 -7l5 -9q2 -2 7 -3t7 -2q8 -11 24 -35t27 -37t20 -14q11 0 33.5 18.5t40.5 37t19 18.5q5 0 9 -5t4 -9zM741 382q0 -4 -1 -11t-1 -10q-29 -125 -94 -223q-48 -69 -119 -121.5t-135 -62.5q-5 -1 -22.5 -7t-27.5 -6q-5 0 -16 2t-16 2q-3 0 -7 -1t-7 -1 q-20 0 -34 7q-78 21 -122 70q-72 79 -86 166q-7 45 -6 75q4 50 8 72q12 68 65 121q2 2 6 8l6 9q66 81 179 112q92 28 139 28q10 0 29.5 -1.5t29.5 -1.5q7 0 22 1.5t22 1.5q26 0 51 -10q5 -1 16 -8.5t17 -8.5q38 -6 69.5 -60.5t29.5 -98.5zM686 405q1 61 -33.5 97.5 t-94.5 38.5q-60 4 -87 4q-43 0 -120 -20q-99 -29 -163 -87q-15 -13 -39 -54.5t-27 -58.5q0 -8 -4 -35.5t-4 -42.5q-2 -75 37 -143t108 -90q35 -11 66 -11q149 0 271 172q35 49 62 113.5t28 116.5z" />
<glyph unicode="&#xd6;" horiz-adv-x="767" d="M447 714q0 -11 -9 -20.5t-20 -9.5q-14 0 -27 18t-13 32q0 11 6.5 20.5t16.5 9.5q12 0 29 -19t17 -31zM622 716q0 -12 -12.5 -22t-25.5 -10q-16 0 -27.5 12t-11.5 28q0 13 7 24t19 11q16 0 33.5 -14t17.5 -29zM741 382q0 -4 -1 -11t-1 -10q-29 -125 -94 -223 q-48 -69 -119 -121.5t-135 -62.5q-5 -1 -22.5 -7t-27.5 -6q-5 0 -16 2t-16 2q-3 0 -7 -1t-7 -1q-20 0 -34 7q-78 21 -122 70q-72 79 -86 166q-7 45 -6 75q4 50 8 72q12 68 65 121q2 2 6 8l6 9q66 81 179 112q92 28 139 28q10 0 29.5 -1.5t29.5 -1.5q7 0 22 1.5t22 1.5 q26 0 51 -10q5 -1 16 -8.5t17 -8.5q38 -6 69.5 -60.5t29.5 -98.5zM686 405q1 61 -33.5 97.5t-94.5 38.5q-60 4 -87 4q-43 0 -120 -20q-99 -29 -163 -87q-15 -13 -39 -54.5t-27 -58.5q0 -8 -4 -35.5t-4 -42.5q-2 -75 37 -143t108 -90q35 -11 66 -11q149 0 271 172 q35 49 62 113.5t28 116.5z" />
<glyph unicode="&#xd7;" horiz-adv-x="513" d="M469 24q0 -6 -5 -12.5t-11 -6.5t-14.5 7.5t-18 19t-12.5 14.5q-139 147 -150 147q-28 0 -150 -88q-10 -7 -29 -22t-29 -21.5t-14 -6.5q-6 0 -10 7t-4 13q0 4 1.5 8t6.5 8l8 8q3 4 10.5 10t12 9t14.5 10.5t15 10.5q95 72 116 95q6 6 6 15q0 10 -27.5 43t-39.5 41 q-2 1 -12.5 8t-16 11.5t-11.5 12t-6 14.5q0 33 21 33t52.5 -34.5t59 -69t36.5 -34.5q3 0 32.5 21t69 42t67.5 21q9 0 16.5 -6t7.5 -15q0 -13 -12 -19q-21 -9 -79.5 -47.5t-58.5 -46.5q0 -6 79 -94t79 -106z" />
<glyph unicode="&#xd8;" horiz-adv-x="745" d="M712 367q0 -11 -11.5 -61.5t-16.5 -60.5q-65 -149 -164 -237q-18 -17 -26.5 -23.5t-23.5 -14t-33 -9.5q-6 -1 -21.5 -7.5t-26.5 -6.5q-5 0 -15.5 2t-15.5 2q-2 0 -7 -0.5t-8 -0.5q-10 0 -31 7q-65 18 -104 44q-12 9 -20 -4q-21 -27 -29 -40q-1 -1 -5.5 -10.5t-9 -15 t-8.5 -5.5q-2 0 -7 1.5t-8 1.5q-18 0 -18 25q0 7 44 71q12 11 2 26q-58 61 -79 141q-24 75 -24 147q0 74 37 122q2 3 5 8.5t5 8.5q56 82 158 111q86 28 137 28q10 0 30 -1.5t29 -1.5q7 0 22 1.5t22 1.5q23 0 54 -9q6 -4 14 -3t19 13q42 65 54 65q10 0 16.5 -7.5t6.5 -17.5 q0 -19 -29 -58q-8 -5 -7.5 -13.5t14.5 -19.5q30 -29 52.5 -69t22.5 -66v-44q0 -3 2 -10t2 -11zM507 547q-21 4 -87 4q-42 0 -115 -19q-98 -29 -151 -87q-12 -15 -28.5 -56t-16.5 -57q0 -7 3.5 -22.5t3.5 -16.5q1 -9 1 -27q0 -32 16.5 -74.5t45.5 -79.5q17 -20 32 0l297 414 q3 5 3.5 12.5t-4.5 8.5zM651 436q0 21 -4 36q-8 31 -48 52q-21 10 -41 -13l-17 -23l-15 -22q-17 -25 -77 -99q-13 -13 -19 -21l-31 -49l-24 -31q-4 -6 -10 -18t-10 -18l-16 -19q-11 -13 -15 -19q-5 -6 -11.5 -18.5t-12.5 -18.5q-18 -19 -58 -80q-1 -1 -3.5 -5t-3 -6t-1 -5 t2.5 -6t8 -6q31 -20 56 -26q41 -12 62 -12q54 0 98 30q69 53 113 125q73 122 73 206q0 11 2 32.5t2 33.5z" />
<glyph unicode="&#xd9;" horiz-adv-x="708" d="M237 799q0 8 8.5 23t14.5 15q8 0 26.5 -11.5t41.5 -27.5t28 -19q19 -12 55 -31t56.5 -31.5t20.5 -17.5q0 -7 -5 -19t-13 -12q-24 0 -128.5 56t-104.5 75zM687 546q0 -5 -5.5 -13.5t-6.5 -11.5q0 -2 -2 -32.5t-6 -42.5q-1 -4 -6 -19t-7 -24q-15 -96 -79 -210 q-30 -51 -72 -96q-25 -25 -83 -69q-37 -29 -64 -42.5t-64 -13.5q-51 0 -125 60q-4 3 -11.5 8t-13.5 9.5t-10 9.5q-53 60 -53 174q0 69 24.5 168.5t45.5 161.5q10 34 27 34q12 0 26.5 -16t14.5 -27q0 -17 -5.5 -38.5t-18 -58t-17.5 -53.5q-32 -117 -32 -187q0 -53 14 -88 t53 -68q32 -25 68 -25q70 0 180 110q55 55 104 178t49 205q0 9 -1.5 25t-1.5 25q0 10 10 15.5t21 5.5h9q38 -35 38 -54z" />
<glyph unicode="&#xda;" horiz-adv-x="708" d="M407 701q0 7 33 26l72 39q39 20 46 25q35 25 44 46q5 11 18 11q9 0 18 -13.5t9 -26.5q0 -26 -52.5 -60.5t-106 -57t-65.5 -22.5q-7 0 -11.5 12.5t-4.5 20.5zM687 546q0 -5 -5.5 -13.5t-6.5 -11.5q0 -2 -2 -32.5t-6 -42.5q-1 -4 -6 -19t-7 -24q-15 -96 -79 -210 q-30 -51 -72 -96q-25 -25 -83 -69q-37 -29 -64 -42.5t-64 -13.5q-51 0 -125 60q-4 3 -11.5 8t-13.5 9.5t-10 9.5q-53 60 -53 174q0 69 24.5 168.5t45.5 161.5q10 34 27 34q12 0 26.5 -16t14.5 -27q0 -17 -5.5 -38.5t-18 -58t-17.5 -53.5q-32 -117 -32 -187q0 -53 14 -88 t53 -68q32 -25 68 -25q70 0 180 110q55 55 104 178t49 205q0 9 -1.5 25t-1.5 25q0 10 10 15.5t21 5.5h9q38 -35 38 -54z" />
<glyph unicode="&#xdb;" horiz-adv-x="708" d="M580 697q0 -14 -15 -17q-11 -1 -23.5 5t-15.5 12q-3 4 -13 27t-20.5 42t-18.5 18q-5 0 -14 -5t-22 -16l-21 -17l-25 -22l-17 -15q-11 -13 -29 -16q-10 -1 -18.5 4.5t-8.5 11.5q0 4 3.5 9.5t11.5 12t13 11t15 11.5t11 8q1 5 11.5 14.5t26.5 21.5t18 14q42 39 65 42 q10 1 19.5 -7t11.5 -14q7 -21 19 -65q8 -26 18 -41q2 -3 10 -12.5t8 -16.5zM687 546q0 -5 -5.5 -13.5t-6.5 -11.5q0 -2 -2 -32.5t-6 -42.5q-1 -4 -6 -19t-7 -24q-15 -96 -79 -210q-30 -51 -72 -96q-25 -25 -83 -69q-37 -29 -64 -42.5t-64 -13.5q-51 0 -125 60q-4 3 -11.5 8 t-13.5 9.5t-10 9.5q-53 60 -53 174q0 69 24.5 168.5t45.5 161.5q10 34 27 34q12 0 26.5 -16t14.5 -27q0 -17 -5.5 -38.5t-18 -58t-17.5 -53.5q-32 -117 -32 -187q0 -53 14 -88t53 -68q32 -25 68 -25q70 0 180 110q55 55 104 178t49 205q0 9 -1.5 25t-1.5 25q0 10 10 15.5 t21 5.5h9q38 -35 38 -54z" />
<glyph unicode="&#xdc;" horiz-adv-x="708" d="M405 714q0 -11 -9 -20.5t-20 -9.5q-14 0 -27 18t-13 32q0 11 6.5 20.5t16.5 9.5q12 0 29 -19t17 -31zM580 716q0 -12 -12.5 -22t-25.5 -10q-16 0 -27.5 12t-11.5 28q0 13 7 24t19 11q16 0 33.5 -14t17.5 -29zM687 546q0 -5 -5.5 -13.5t-6.5 -11.5q0 -2 -2 -32.5t-6 -42.5 q-1 -4 -6 -19t-7 -24q-15 -96 -79 -210q-30 -51 -72 -96q-25 -25 -83 -69q-37 -29 -64 -42.5t-64 -13.5q-51 0 -125 60q-4 3 -11.5 8t-13.5 9.5t-10 9.5q-53 60 -53 174q0 69 24.5 168.5t45.5 161.5q10 34 27 34q12 0 26.5 -16t14.5 -27q0 -17 -5.5 -38.5t-18 -58 t-17.5 -53.5q-32 -117 -32 -187q0 -53 14 -88t53 -68q32 -25 68 -25q70 0 180 110q55 55 104 178t49 205q0 9 -1.5 25t-1.5 25q0 10 10 15.5t21 5.5h9q38 -35 38 -54z" />
<glyph unicode="&#xdd;" horiz-adv-x="434" d="M215 701q0 7 33 26l72 39q39 20 46 25q35 25 44 46q5 11 18 11q9 0 18 -13.5t9 -26.5q0 -26 -52.5 -60.5t-106 -57t-65.5 -22.5q-7 0 -11.5 12.5t-4.5 20.5zM484 612q-7 -23 -35 -70q-26 -43 -87.5 -112.5t-77.5 -90.5q-16 -15 -22 -51q-6 -43 -13 -62v-5q0 -8 -4 -24 q-11 -34 -23 -97t-17 -83l-4 -25q-3 -18 -6.5 -34t-6.5 -22q-3 -8 -17.5 -17.5t-23.5 -9.5t-10 9q-5 20 -5 44q0 20 10.5 66.5t10.5 62.5q0 3 3 12t3 10q11 59 13 65q3 8 21 92q3 10 -10 35l-39 67q-26 44 -41 67l-35 51q-31 44 -46 68q-9 23 -9 38q-1 9 7 17.5t17 8.5h5 q2 0 4 -1.5t4 -2.5t4.5 -3.5l4.5 -4.5l4 -6l5 -7q2 -2 6 -7l5 -8q34 -45 82 -128l19 -31q5 -9 14 -22.5t14 -18.5t9 -4q13 0 42 27q53 56 104 119q21 25 69 101q15 22 31 20q21 0 21 -33z" />
<glyph unicode="&#xde;" horiz-adv-x="626" d="M599 278q0 -34 -53 -73t-95 -51l-58 -20q-49 -13 -96 -13q-37 0 -73 12.5t-42 12.5q-14 0 -23 -30q-21 -82 -21 -146q0 -6 0.5 -16.5t0.5 -15.5q0 -10 -12 -20.5t-22 -10.5q-13 0 -25 26q-1 4 -6 11.5t-7 12.5q-3 18 -3 26q0 5 5.5 17t5.5 20q0 6 5 38q25 132 45 266 q5 36 9 94q0 4 4 135q0 4 2 12.5t2 12.5q0 2 -2 8t-2 10q0 12 11.5 27.5t22.5 15.5q16 0 32 -12.5t16 -27.5q0 -35 -6 -74.5t-6 -45.5q0 -8 5 -8q2 0 9.5 2t13.5 3q51 12 101 12q123 3 193 -53t69 -157zM536 295q0 33 -18 65.5t-48 46.5q-37 19 -129 19q-45 0 -108 -12 q-1 0 -5.5 -0.5t-6.5 -1.5l-6 -1q-4 -1 -7 -3l-5 -3q-2 -1 -3.5 -4t-2.5 -6q-1 -8 -1 -25q-1 -18 -7 -83q0 -8 -3.5 -39t-3.5 -40q0 -14 10 -17q32 -13 94 -13q90 0 170 38t80 79z" />
<glyph unicode="&#xdf;" horiz-adv-x="468" d="M185 633q17 23 51.5 43.5t61.5 20.5q7 0 19 -2q4 0 25 -24q20 -23 26 -32q38 -49 38 -78q0 -54 -9 -81q-12 -38 -56 -93t-44 -73q0 -21 13.5 -41.5t32.5 -37.5l38 -33q18 -17 31.5 -39t13.5 -46q0 -9 -12 -34.5t-20 -31.5q-9 -17 -10 -19q-11 -22 -25 -31 q-31 -21 -46.5 -29t-44.5 -14q-11 -3 -29 -3q-2 0 -9.5 3.5t-12.5 3.5q-21 1 -35.5 11.5t-14.5 30.5q0 15 8 28.5t21 13.5q8 0 14.5 -7.5t6.5 -17.5q0 -11 5 -14t17 -3q42 0 88 37.5t46 80.5q0 23 -34 50t-38 33q-2 3 -11 10t-12 10q0 1 -4 6.5t-5 6.5l-4 7q-4 6 -5 8 t-3.5 7.5t-3.5 9t-3 9.5t-2.5 11.5t-1 12t-0.5 13.5q0 18 17.5 44.5t38 52.5t38 73t17.5 101q0 15 -20 37.5t-38 22.5q-37 0 -70.5 -44.5t-52.5 -130.5q-9 -39 -20 -105q-35 -193 -39 -221q-4 -23 -26 -125.5t-26 -123.5v-2q-1 -7 -1 -22v-22q-8 -46 -43 -46q-27 0 -23 59 q2 25 14 69.5t15 57.5q8 43 29.5 148t40.5 216q26 132 44.5 188t43.5 90z" />
<glyph unicode="&#xe0;" d="M92 744q0 6 14.5 17.5t20.5 11.5q8 0 22.5 -17.5t32.5 -44t21 -29.5q15 -19 45 -53l50 -57q20 -24 20 -31q0 -6 -10 -16.5t-19 -10.5q-17 0 -107 101.5t-90 128.5zM422 325q-1 -12 -8 -34t-8 -28q-4 -14 -14 -46t-14 -50q-29 -127 -30 -146q0 -2 4 -11.5t4 -13.5 q0 -10 -6.5 -19t-15.5 -9q-22 0 -33 16t-11 40q0 23 15.5 71t15.5 64q0 9 -10 9q-3 0 -23.5 -19.5t-24.5 -24.5l-12 -13q-10 -10 -18.5 -17.5t-13.5 -9.5q-7 -3 -20 -20q-21 -23 -55.5 -49t-55.5 -26q-13 0 -34 7.5t-28 16.5q-3 3 -11 23t-9 26q-1 4 -1 10q0 63 51 141 q2 3 8.5 16t11.5 20q0 3 4 8l10 9q5 5 7 8q4 5 10.5 16t11.5 17l16 16q13 13 19 18.5t17.5 15t21.5 16t20 10.5q4 2 9 7t8 6q3 2 12 7.5t11.5 6.5t9.5 4.5t11.5 4.5t12 2t15.5 1q35 0 65 -20t43 -52q0 -5 12 -25zM355 329q0 17 -18.5 28t-35.5 11q-29 0 -84 -44.5 t-107 -122.5q-21 -27 -35 -65.5t-14 -63.5t23 -25q7 0 18 4.5t19 9.5l20 13l14 10q87 59 159 155q3 5 9.5 13t8.5 10q8 9 15.5 31.5t7.5 35.5z" />
<glyph unicode="&#xe1;" d="M259 544q0 7 25 37l57 64q31 33 36 41q7 10 17 32.5t10 28.5t5 11.5t11 5.5q13 0 25.5 -11.5t12.5 -24.5q0 -26 -25 -65t-56.5 -71t-58.5 -55t-32 -23q-9 0 -18 12t-9 18zM422 325q-1 -12 -8 -34t-8 -28q-4 -14 -14 -46t-14 -50q-29 -127 -30 -146q0 -2 4 -11.5t4 -13.5 q0 -10 -6.5 -19t-15.5 -9q-22 0 -33 16t-11 40q0 23 15.5 71t15.5 64q0 9 -10 9q-3 0 -23.5 -19.5t-24.5 -24.5l-12 -13q-10 -10 -18.5 -17.5t-13.5 -9.5q-7 -3 -20 -20q-21 -23 -55.5 -49t-55.5 -26q-13 0 -34 7.5t-28 16.5q-3 3 -11 23t-9 26q-1 4 -1 10q0 63 51 141 q2 3 8.5 16t11.5 20q0 3 4 7l10 10q5 5 7 8q4 5 10.5 16t11.5 17l16 16q13 13 19 18.5t17.5 15t21.5 16t20 10.5q4 2 9 7t8 6q3 2 12 7.5t11.5 6.5t9.5 4.5t11.5 4.5t12 2t15.5 1q35 0 65 -20t43 -52q0 -5 12 -25zM355 329q0 17 -18.5 28t-35.5 11q-29 0 -84 -44.5 t-107 -122.5q-21 -27 -35 -65.5t-14 -63.5t23 -25q7 0 18 4.5t19 9.5l20 13l14 10q87 59 159 155q3 5 9.5 13t8.5 10q8 9 15.5 31.5t7.5 35.5z" />
<glyph unicode="&#xe2;" d="M462 503q0 -20 -11 -20q-10 0 -21.5 9.5t-15.5 19.5q-3 7 -15 49t-24.5 74.5t-21.5 32.5q-13 0 -48.5 -41.5t-64.5 -83.5q-12 -17 -28 -17q-8 0 -16.5 7.5t-8.5 16.5q0 12 11 27t27.5 31.5t21.5 23.5q1 8 12.5 22.5t28 32t19.5 21.5q49 60 69 60q10 0 18 -10t10 -21 q3 -14 22 -121q4 -32 17 -65q2 -6 10.5 -21.5t8.5 -26.5zM422 325q-1 -12 -8 -34t-8 -28q-4 -14 -14 -46t-14 -50q-29 -127 -30 -146q0 -2 4 -11.5t4 -13.5q0 -10 -6.5 -19t-15.5 -9q-22 0 -33 16t-11 40q0 23 15.5 71t15.5 64q0 9 -10 9q-3 0 -23.5 -19.5t-24.5 -24.5 l-12 -13q-10 -10 -18.5 -17.5t-13.5 -9.5q-7 -3 -20 -20q-21 -23 -55.5 -49t-55.5 -26q-13 0 -34 7.5t-28 16.5q-3 3 -11 23t-9 26q-1 4 -1 10q0 63 51 141q2 3 8.5 16t11.5 20q0 3 5 7l9 10q5 5 7 8q4 5 10.5 16t11.5 17l16 16q13 13 19 18.5t17.5 15t21.5 16t20 10.5 q4 2 9 7t8 6q3 2 12 7.5t11.5 6.5t9.5 4.5t11.5 4.5t12 2t15.5 1q35 0 65 -20t43 -52q0 -5 12 -25zM355 329q0 17 -18.5 28t-35.5 11q-29 0 -84 -44.5t-107 -122.5q-21 -27 -35 -65.5t-14 -63.5t23 -25q7 0 18 4.5t19 9.5l20 13l14 10q87 59 159 155q3 5 9.5 13t8.5 10 q8 9 15.5 31.5t7.5 35.5z" />
<glyph unicode="&#xe3;" d="M505 632q0 -7 -6 -19q-1 -4 -1 -11v-11q-5 -22 -38.5 -52.5t-54.5 -30.5q-19 0 -38.5 12.5t-28.5 22.5t-32 39q-1 1 -8.5 11t-13 16.5t-13 14.5t-14.5 12.5t-13 4.5q-39 0 -75 -44q-3 -5 -7 -15.5t-9 -16.5t-14 -6q-16 0 -27 11.5t-11 28.5q0 15 23 33q20 20 32.5 31.5 t35 24t42.5 12.5q38 0 60 -20l11 -16q2 -1 7 -3t7 -4q10 -12 27.5 -37.5t29.5 -39t21 -13.5q11 0 34.5 19.5t43 39t20.5 19.5q10 0 10 -13zM422 325q-1 -12 -8 -34t-8 -28q-4 -14 -14 -46t-14 -50q-29 -127 -30 -146q0 -2 4 -11.5t4 -13.5q0 -10 -6.5 -19t-15.5 -9 q-22 0 -33 16t-11 40q0 23 15.5 71t15.5 64q0 9 -10 9q-3 0 -23.5 -19.5t-24.5 -24.5l-12 -13q-10 -10 -18.5 -17.5t-13.5 -9.5q-7 -3 -20 -20q-21 -23 -55.5 -49t-55.5 -26q-13 0 -34 7.5t-28 16.5q-3 3 -11 23t-9 26q-1 4 -1 10q0 63 51 141q2 3 8.5 16t11.5 20q0 3 4 7 l10 10q5 5 7 8q4 5 10.5 16t11.5 17l16 16q13 13 19 18.5t17.5 15t21.5 16t20 10.5q4 2 9 7t8 6q3 2 12 7.5t11.5 6.5t9.5 4.5t11.5 4.5t12 2t15.5 1q35 0 65 -20t43 -52q0 -5 12 -25zM355 329q0 17 -18.5 28t-35.5 11q-29 0 -84 -44.5t-107 -122.5q-21 -27 -35 -65.5 t-14 -63.5t23 -25q7 0 18 4.5t19 9.5l20 13l14 10q87 59 159 155q3 5 9.5 13t8.5 10q8 9 15.5 31.5t7.5 35.5z" />
<glyph unicode="&#xe4;" d="M294 589q0 -11 -9 -20.5t-20 -9.5q-14 0 -27 18t-13 32q0 11 6.5 20.5t16.5 9.5q12 0 29 -19t17 -31zM469 591q0 -12 -12.5 -22t-25.5 -10q-16 0 -27.5 12t-11.5 28q0 13 7 24t19 11q16 0 33.5 -14t17.5 -29zM422 325q-1 -12 -8 -34t-8 -28q-4 -14 -14 -46t-14 -50 q-29 -127 -30 -146q0 -2 4 -11.5t4 -13.5q0 -10 -6.5 -19t-15.5 -9q-22 0 -33 16t-11 40q0 23 15.5 71t15.5 64q0 9 -10 9q-3 0 -23.5 -19.5t-24.5 -24.5l-12 -13q-10 -10 -18.5 -17.5t-13.5 -9.5q-7 -3 -20 -20q-21 -23 -55.5 -49t-55.5 -26q-13 0 -34 7.5t-28 16.5 q-3 3 -11 23t-9 26q-1 4 -1 10q0 63 51 141q2 3 8.5 16t11.5 20q0 3 4 7l10 10q5 5 7 8q4 5 10.5 16t11.5 17l16 16q13 13 19 18.5t17.5 15t21.5 16t20 10.5q4 2 9 7t8 6q3 2 12 7.5t11.5 6.5t9.5 4.5t11.5 4.5t12 2t15.5 1q35 0 65 -20t43 -52q0 -5 12 -25zM355 329 q0 17 -18.5 28t-35.5 11q-29 0 -84 -44.5t-107 -122.5q-21 -27 -35 -65.5t-14 -63.5t23 -25q7 0 18 4.5t19 9.5l20 13l14 10q87 59 159 155q3 5 9.5 13t8.5 10q8 9 15.5 31.5t7.5 35.5z" />
<glyph unicode="&#xe5;" d="M460 641q0 -17 -14 -41t-29 -39q-20 -24 -66 -53q-18 -9 -21 -9q-4 0 -11 2t-10 2q-41 4 -44 6q-48 29 -48 98q0 25 16 50.5t40 41.5q17 9 49 9q11 0 30 -3.5t29 -3.5h15q19 0 41.5 -20.5t22.5 -39.5zM422 325q-1 -12 -8 -34t-8 -28q-4 -14 -14 -46t-14 -50 q-29 -127 -30 -146q0 -2 4 -11.5t4 -13.5q0 -10 -6.5 -19t-15.5 -9q-22 0 -33 16t-11 40q0 23 15.5 71t15.5 64q0 9 -10 9q-3 0 -23.5 -19.5t-24.5 -24.5l-12 -13q-10 -10 -18.5 -17.5t-13.5 -9.5q-7 -3 -20 -20q-21 -23 -55.5 -49t-55.5 -26q-13 0 -34 7.5t-28 16.5 q-3 3 -11 23t-9 26q-1 4 -1 10q0 63 51 141q2 3 8.5 16t11.5 20q0 3 4 7l10 10q5 5 7 8q4 5 10.5 16t11.5 17l16 16q13 13 19 18.5t17.5 15t21.5 16t20 10.5q4 2 9 7t8 6q3 2 12 7.5t11.5 6.5t9.5 4.5t11.5 4.5t12 2t15.5 1q35 0 65 -20t43 -52q0 -5 12 -25zM401 630 q0 17 -19.5 26.5t-38.5 9.5q-29 0 -52 -23t-23 -52q0 -23 7 -34.5t30 -11.5q15 0 29 9q18 10 42.5 34.5t24.5 41.5zM355 329q0 17 -18.5 28t-35.5 11q-29 0 -84 -44.5t-107 -122.5q-21 -27 -35 -65.5t-14 -63.5t23 -25q7 0 18 4.5t19 9.5l20 13l14 10q87 59 159 155 q3 5 9.5 13t8.5 10q8 9 15.5 31.5t7.5 35.5z" />
<glyph unicode="&#xe6;" horiz-adv-x="671" d="M324 162q0 9 -10 9q-6 0 -39 -49q-5 -4 -24.5 -25t-25.5 -26q-16 -14 -22 -22q-20 -23 -54.5 -48t-55.5 -25q-12 0 -33 7.5t-28 16.5q-3 3 -11 23t-9 26q-2 4 -2 10q0 31 18 76.5t39 77.5q2 3 8.5 16t11.5 20q0 3 5 7l9 10q5 5 7 8q4 5 10.5 16t11.5 17l16 16 q13 13 19 18.5t17.5 15t21.5 16t20 10.5q4 2 9 7t8 6q3 2 12 7.5t11.5 6.5t9.5 4.5t11.5 4.5t12 2t15.5 1q69 0 96 -71q0 -2 3 -3.5t7 -0.5t6 4l14 19q9 12 13 16.5t13.5 13.5t23.5 19t35 23q29 19 58 19q27 0 41.5 -19t14.5 -47q0 -36 -20 -79q0 -2 -13 -24q-2 -2 -6.5 -7 t-6.5 -7q-12 -21 -29 -37q-29 -29 -71.5 -47t-70.5 -18q-5 0 -15 2t-14 2q-9 0 -15 -29t-6 -58q0 -80 68 -80q53 0 106 57q8 9 56 68q15 17 21 17q5 0 9 -4.5t4 -8.5q0 -14 -21 -45q-87 -131 -201 -131q-44 0 -70.5 28t-26.5 85q0 6 0.5 16t0.5 18q0 2 2 6.5t2 6.5 q3 24 3 36zM583 379q0 16 -17 16q-22 0 -34 -7q-27 -13 -75 -66t-48 -77q0 -6 7 -13t13 -7q49 0 101.5 53.5t52.5 100.5zM366 329q0 17 -18.5 28t-35.5 11q-28 0 -85.5 -50.5t-110.5 -129.5q-21 -27 -35 -65.5t-14 -63.5t22 -25q6 0 13.5 2.5t16.5 7.5l15 9l15 10.5t11 7.5 q79 54 165 168q3 5 9.5 13t8.5 10q8 9 15.5 31.5t7.5 35.5z" />
<glyph unicode="&#xe7;" horiz-adv-x="377" d="M66 -20q-49 34 -49 112q0 59 39.5 132t85.5 129q1 2 21 18q4 4 12.5 14t13.5 14q45 37 79 37q19 0 42 -12t23 -29q0 -11 -10 -20t-22 -9q-4 0 -11 2t-11 2q-31 0 -76 -45t-81 -113l-27 -55q-13 -39 -13 -68q0 -30 13.5 -52.5t40.5 -22.5q36 0 97 36q15 10 43 34l50 41 q22 17 29 17q6 0 11.5 -7.5t5.5 -12.5q0 -3 -5 -8q-72 -78 -146 -121q-14 -9 -32.5 -17t-33.5 -17.5t-33 -28.5q-16 -16 -16 -46q0 -19 16 -39t35.5 -34.5t35.5 -36.5t16 -45q0 -19 -21 -41t-42 -33l-21 -6q-2 -1 -8.5 -7.5t-8.5 -7.5q-6 -4 -44.5 -13.5t-46.5 -9.5 q-4 0 -10 4.5t-6 8.5q0 7 8.5 16t20.5 13q116 42 116 86q0 9 -26 32.5t-51.5 55.5t-25.5 62q0 12 2 22t7 18l7 13q3 5 8 10t5 6q9 9 -6 22z" />
<glyph unicode="&#xe8;" horiz-adv-x="391" d="M32 744q0 6 14.5 17.5t20.5 11.5q8 0 22.5 -17.5t32.5 -44t21 -29.5q15 -19 45 -53l50 -57q20 -24 20 -31q0 -6 -10 -16.5t-19 -10.5q-17 0 -107 101.5t-90 128.5zM358 395q0 -36 -20 -79q0 -2 -13 -24q-2 -2 -6.5 -7t-6.5 -7q-12 -21 -29 -37q-29 -29 -71.5 -47 t-70.5 -18q-5 0 -15 2t-14 2q-7 0 -16.5 -12t-17 -36.5t-7.5 -53.5q0 -81 69 -81q28 0 63 21.5t62 51.5q8 9 56 68q15 17 21 17q5 0 9.5 -4.5t4.5 -8.5q0 -13 -22 -45q-48 -73 -108 -110t-113 -37q-44 0 -71 28t-27 85q0 9 1 25.5t1 24.5q0 2 2 6.5t2 6.5q1 4 1 10t1 10 l6 18q7 22 38 86q63 120 177 192q29 19 58 19q27 0 41.5 -19t14.5 -47zM303 379q0 16 -17 16q-22 0 -34 -7q-27 -13 -75 -66t-48 -77q0 -6 7 -13t13 -7q49 0 101.5 53.5t52.5 100.5z" />
<glyph unicode="&#xe9;" horiz-adv-x="391" d="M195 544q0 7 25 37l57 64q31 33 36 41q7 10 17 32.5t10 28.5t5 11.5t11 5.5q13 0 25.5 -11.5t12.5 -24.5q0 -26 -25 -65t-56.5 -71t-58.5 -55t-32 -23q-9 0 -18 12t-9 18zM358 395q0 -36 -20 -79q0 -2 -13 -24q-2 -2 -6.5 -7t-6.5 -7q-12 -21 -29 -37q-29 -29 -71.5 -47 t-70.5 -18q-5 0 -15 2t-14 2q-7 0 -16.5 -12t-17 -36.5t-7.5 -53.5q0 -81 69 -81q28 0 63 21.5t62 51.5q8 9 56 68q15 17 21 17q5 0 9.5 -4.5t4.5 -8.5q0 -13 -22 -45q-48 -73 -108 -110t-113 -37q-44 0 -71 28t-27 85q0 9 1 25.5t1 24.5q0 2 2 6.5t2 6.5q1 4 1 10t1 10 l6 18q7 22 38 86q63 120 177 192q29 19 58 19q27 0 41.5 -19t14.5 -47zM303 379q0 16 -17 16q-22 0 -34 -7q-27 -13 -75 -66t-48 -77q0 -6 7 -13t13 -7q49 0 101.5 53.5t52.5 100.5z" />
<glyph unicode="&#xea;" horiz-adv-x="391" d="M404 503q0 -20 -11 -20q-10 0 -21.5 9.5t-15.5 19.5q-3 7 -15 49t-24.5 74.5t-21.5 32.5q-13 0 -48.5 -41.5t-64.5 -83.5q-12 -17 -28 -17q-8 0 -16.5 7.5t-8.5 16.5q0 12 11 27t27.5 31.5t21.5 23.5q1 8 12.5 22.5t28 32t19.5 21.5q49 60 69 60q10 0 18 -10t10 -21 q3 -14 22 -121q4 -32 17 -65q2 -6 10.5 -21.5t8.5 -26.5zM358 395q0 -36 -20 -79q0 -2 -13 -24q-2 -2 -6.5 -7t-6.5 -7q-12 -21 -29 -37q-29 -29 -71.5 -47t-70.5 -18q-5 0 -15 2t-14 2q-7 0 -16.5 -12t-17 -36.5t-7.5 -53.5q0 -81 69 -81q28 0 63 21.5t62 51.5q8 9 56 68 q15 17 21 17q5 0 9.5 -4.5t4.5 -8.5q0 -13 -22 -45q-48 -73 -108 -110t-113 -37q-44 0 -71 28t-27 85q0 9 1 25.5t1 24.5q0 2 2 6.5t2 6.5q1 4 1 10t1 10l6 18q7 22 38 86q63 120 177 192q29 19 58 19q27 0 41.5 -19t14.5 -47zM303 379q0 16 -17 16q-22 0 -34 -7 q-27 -13 -75 -66t-48 -77q0 -6 7 -13t13 -7q49 0 101.5 53.5t52.5 100.5z" />
<glyph unicode="&#xeb;" horiz-adv-x="391" d="M236 589q0 -11 -9 -20.5t-20 -9.5q-14 0 -27 18t-13 32q0 11 6.5 20.5t16.5 9.5q12 0 29 -19t17 -31zM411 591q0 -12 -12.5 -22t-25.5 -10q-16 0 -27.5 12t-11.5 28q0 13 7 24t19 11q16 0 33.5 -14t17.5 -29zM358 395q0 -36 -20 -79q0 -2 -13 -24q-2 -2 -6.5 -7t-6.5 -7 q-12 -21 -29 -37q-29 -29 -71.5 -47t-70.5 -18q-5 0 -15 2t-14 2q-7 0 -16.5 -12t-17 -36.5t-7.5 -53.5q0 -81 69 -81q28 0 63 21.5t62 51.5q8 9 56 68q15 17 21 17q5 0 9.5 -4.5t4.5 -8.5q0 -13 -22 -45q-48 -73 -108 -110t-113 -37q-44 0 -71 28t-27 85q0 9 1 25.5t1 24.5 q0 2 2 6.5t2 6.5q1 4 1 10t1 10l6 18q7 22 38 86q63 120 177 192q29 19 58 19q27 0 41.5 -19t14.5 -47zM303 379q0 16 -17 16q-22 0 -34 -7q-27 -13 -75 -66t-48 -77q0 -6 7 -13t13 -7q49 0 101.5 53.5t52.5 100.5z" />
<glyph unicode="&#xec;" horiz-adv-x="214" d="M-8 744q0 6 14.5 17.5t20.5 11.5q8 0 22.5 -17.5t32.5 -44t21 -29.5q15 -19 45 -53l50 -57q20 -24 20 -31q0 -6 -10 -16.5t-19 -10.5q-17 0 -107 101.5t-90 128.5zM170 400q0 -6 -2.5 -17.5t-2.5 -15.5l-7 -50q-5 -35 -9.5 -60t-11.5 -49l-31 -111q-16 -48 -27 -69 q-1 -2 -4.5 -19.5t-10.5 -27t-20 -9.5q-7 0 -15.5 8.5t-8.5 15.5q15 33 15 49q0 3 -1 7.5t-1 6.5q0 5 2 7q20 56 62 229l15 71q1 3 2 25.5t6 34.5q6 15 25 15q13 0 19 -13.5t6 -27.5z" />
<glyph unicode="&#xed;" horiz-adv-x="214" d="M135 544q0 7 25 37l57 64q31 33 36 41q7 10 17 32.5t10 28.5t5 11.5t11 5.5q13 0 25.5 -11.5t12.5 -24.5q0 -26 -25 -65t-56.5 -71t-58.5 -55t-32 -23q-9 0 -18 12t-9 18zM170 400q0 -6 -2.5 -17.5t-2.5 -15.5l-7 -50q-5 -35 -9.5 -60t-11.5 -49l-31 -111 q-22 -60 -27 -69q-1 -2 -4.5 -19.5t-10.5 -27t-20 -9.5q-7 0 -15.5 8.5t-8.5 15.5q14 31 14 49q0 3 -0.5 7.5t-0.5 6.5q0 5 1 7q25 68 62 229l16 71q1 3 2 25.5t6 34.5q6 15 25 15q12 0 18.5 -13.5t6.5 -27.5z" />
<glyph unicode="&#xee;" horiz-adv-x="214" d="M310 503q0 -20 -12 -20q-9 0 -21 9.5t-16 19.5q-3 7 -14.5 49t-24 74.5t-22.5 32.5q-13 0 -47.5 -41t-65.5 -84q-10 -17 -27 -17q-9 0 -17 7.5t-8 16.5q0 12 11 27t27 32t21 23q1 8 12.5 22.5t28 32t19.5 21.5q2 2 10 12t14 16.5t14.5 14.5t16 12.5t14.5 4.5q10 0 18 -10 t11 -21q5 -23 12 -66l9 -55q5 -32 17 -65q2 -5 11 -21t9 -27zM170 400q0 -6 -2.5 -17.5t-2.5 -15.5l-7 -50q-5 -35 -9.5 -60t-11.5 -49l-31 -111q-16 -48 -27 -69q-1 -2 -4.5 -19.5t-10.5 -27t-20 -9.5q-7 0 -15.5 8.5t-8.5 15.5q15 33 15 49q0 3 -1 7.5t-1 6.5q0 5 2 7 q20 56 62 229l15 71q1 3 2 25.5t6 34.5q6 15 25 15q13 0 19 -13.5t6 -27.5z" />
<glyph unicode="&#xef;" horiz-adv-x="214" d="M166 589q0 -11 -9 -20.5t-20 -9.5q-14 0 -27 18t-13 32q0 11 6.5 20.5t16.5 9.5q12 0 29 -19t17 -31zM341 591q0 -12 -12.5 -22t-25.5 -10q-16 0 -27.5 12t-11.5 28q0 13 7 24t19 11q16 0 33.5 -14t17.5 -29zM170 400q0 -6 -2.5 -17.5t-2.5 -15.5l-7 -50q-5 -35 -9.5 -60 t-11.5 -49l-31 -111q-16 -48 -27 -69q-1 -2 -4.5 -19.5t-10.5 -27t-20 -9.5q-7 0 -15.5 8.5t-8.5 15.5q15 33 15 49q0 3 -1 7.5t-1 6.5q0 5 2 7q20 56 62 229l15 71q1 3 2 25.5t6 34.5q6 15 25 15q13 0 19 -13.5t6 -27.5z" />
<glyph unicode="&#xf0;" horiz-adv-x="395" d="M279 594l13 7l16 8q65 34 92 34q9 0 9 -21q0 -16 -17 -22q-22 -10 -54 -23l-38 -16q-15 -11 -8 -24q75 -121 75 -250q0 -88 -47.5 -164t-112.5 -125q-39 -32 -84 -32q-6 0 -12 2.5t-13.5 6t-11.5 4.5q-27 9 -51 51q-5 10 -7 25q-6 27 -6 31q0 57 23 142q11 37 63 114 q14 22 35 44q30 32 68 32q49 0 68 -18q4 -4 9.5 0.5t4.5 9.5q-12 57 -46 102q-7 7 -15 7q-5 0 -7 -1l-68 -43q-14 -8 -19 -20q-11 -11 -21 -11q-8 0 -15.5 9.5t-7.5 23.5q0 2 2 6q6 9 70 46q5 4 18 11t15 8q6 4 9 11t-2 16q-4 6 -16 20q-15 17 -29 26q-2 1 -11 3.5t-13 4.5 q-8 4 -8 16q0 14 8 22q13 13 35 13q19 0 44 -34q1 -2 34 -49q5 -8 13 -8q4 0 16 5zM310 304q0 26 -14.5 46.5t-39.5 20.5q-35 0 -75.5 -34t-72.5 -103q-3 -7 -13 -47l-7 -21q-4 -14 -6.5 -26t-2.5 -23q0 -7 -1 -19t-1 -18q0 -58 37 -58q41 0 96.5 51t76.5 120q1 4 6.5 16.5 t7.5 18.5q9 38 9 76z" />
<glyph unicode="&#xf1;" horiz-adv-x="514" d="M528 632q0 -7 -6 -19v-11q0 -7 -1 -11q-5 -22 -38.5 -52.5t-54.5 -30.5q-19 0 -38.5 12.5t-28.5 22.5t-32 39q-1 1 -8.5 11t-13 16.5t-13 14.5t-14.5 12.5t-13 4.5q-39 0 -75 -44q-3 -5 -7 -15.5t-9 -16.5t-14 -6q-16 0 -27 11.5t-11 28.5q0 15 23 33q20 20 32.5 31.5 t35 24t42.5 12.5q38 0 60 -20q1 0 11 -16q2 -1 7 -3t7 -4q10 -12 27.5 -37.5t29.5 -39t21 -13.5q11 0 34.5 19.5t43 39t20.5 19.5q10 0 10 -13zM455 253q0 -21 -6 -50t-13 -50l-18 -54l-15 -44q-3 -6 -7 -19t-7 -19q-1 -3 -6.5 -10t-6.5 -10l-10 -25q-6 -10 -20 -10 q-11 0 -17.5 12.5t-6.5 24.5q0 6 9 26t10 24q2 5 4.5 20.5t5.5 22.5q5 15 19 51t19 51.5t10.5 45.5t5.5 61q0 36 -18 36q-12 0 -36 -16q-123 -84 -263 -339q-11 -18 -24 -18q-9 0 -19.5 17.5t-10.5 23.5q0 10 7 39l16 66q10 37 14 56q7 27 20 95t23 105q1 4 11 34q1 3 2.5 9 t2.5 9t3.5 7t6.5 5.5t10 1.5q32 0 32 -40q0 -32 -24 -114q-21 -76 -24 -98q0 -10 8 -10q5 0 12 9q43 62 85 113q42 45 95 86q34 23 59 23q62 0 62 -148z" />
<glyph unicode="&#xf2;" horiz-adv-x="388" d="M56 744q0 6 14.5 17.5t20.5 11.5q8 0 22.5 -17.5t32.5 -44t21 -29.5q15 -19 45 -53l50 -57q20 -24 20 -31q0 -6 -10 -16.5t-19 -10.5q-17 0 -107 101.5t-90 128.5zM360 282q0 -69 -49 -154t-107 -129q-40 -33 -81 -33q-6 0 -12 2.5t-13.5 6t-11.5 4.5q-27 9 -51 51 q-5 10 -7 25q-6 27 -6 31q0 57 23 142q11 37 63 114q3 4 13 22.5t18 27.5q4 5 15.5 11t15.5 10q20 20 48 20q18 0 52 -16q46 -19 65 -49q25 -42 25 -86zM310 304q0 26 -14.5 46.5t-39.5 20.5q-35 0 -75.5 -34t-72.5 -103q-3 -7 -13 -47l-7 -20q-4 -15 -6.5 -27t-2.5 -23 q0 -7 -1 -19t-1 -18q0 -58 37 -58q40 0 95.5 53t76.5 122q2 5 7.5 15t7.5 16q9 38 9 76z" />
<glyph unicode="&#xf3;" horiz-adv-x="388" d="M219 544q0 7 25 37l57 64q31 33 36 41q7 10 17 32.5t10 28.5t5 11.5t11 5.5q13 0 25.5 -11.5t12.5 -24.5q0 -26 -25 -65t-56.5 -71t-58.5 -55t-32 -23q-9 0 -18 12t-9 18zM360 282q0 -69 -49 -154t-107 -129q-40 -33 -81 -33q-6 0 -12 2.5t-13.5 6t-11.5 4.5 q-27 9 -51 51q-5 10 -7 25q-6 27 -6 31q0 57 23 142q11 37 63 114q3 4 13 22.5t18 27.5q4 5 15.5 11t15.5 10q20 20 48 20q18 0 52 -16q46 -19 65 -49q25 -42 25 -86zM310 304q0 26 -14.5 46.5t-39.5 20.5q-35 0 -75.5 -34t-72.5 -103q-3 -7 -13 -47l-7 -20q-4 -15 -6.5 -27 t-2.5 -23q0 -7 -1 -19t-1 -18q0 -58 37 -58q40 0 95.5 53t76.5 122q2 5 7.5 15t7.5 16q9 38 9 76z" />
<glyph unicode="&#xf4;" horiz-adv-x="388" d="M421 503q0 -20 -11 -20q-10 0 -21.5 9.5t-15.5 19.5q-3 7 -15 49t-24.5 74.5t-21.5 32.5q-13 0 -48.5 -41.5t-64.5 -83.5q-12 -17 -28 -17q-9 0 -17 7.5t-8 16.5q0 12 11 27t27.5 31.5t21.5 23.5q1 8 12.5 22.5t28 32t19.5 21.5q49 60 69 60q10 0 18 -10t10 -21 q3 -14 22 -121q4 -32 17 -65q2 -6 10.5 -21.5t8.5 -26.5zM360 282q0 -69 -49 -154t-107 -129q-40 -33 -81 -33q-6 0 -12 2.5t-13.5 6t-11.5 4.5q-27 9 -51 51q-5 10 -7 25q-6 27 -6 31q0 57 23 142q11 37 63 114q3 4 13 22.5t18 27.5q4 5 15.5 11t15.5 10q20 20 48 20 q18 0 52 -16q46 -19 65 -49q25 -42 25 -86zM310 304q0 26 -14.5 46.5t-39.5 20.5q-35 0 -75.5 -34t-72.5 -103q-3 -7 -13 -47l-7 -21q-4 -14 -6.5 -26t-2.5 -23q0 -7 -1 -19t-1 -18q0 -58 37 -58q40 0 95.5 53t76.5 122q2 5 7.5 15t7.5 16q9 38 9 76z" />
<glyph unicode="&#xf5;" horiz-adv-x="388" d="M464 632q0 -7 -6 -19v-11q0 -7 -1 -11q-5 -22 -38.5 -52.5t-54.5 -30.5q-19 0 -38.5 12.5t-28.5 22.5t-32 39q-1 1 -8.5 11t-13 16.5t-13 14.5t-14.5 12.5t-13 4.5q-39 0 -75 -44q-3 -5 -7 -15.5t-9 -16.5t-14 -6q-16 0 -27 11.5t-11 28.5q0 15 23 33q20 20 32.5 31.5 t35 24t42.5 12.5q38 0 60 -20q1 0 11 -16q2 -1 7 -3t7 -4q10 -12 27.5 -37.5t29.5 -39t21 -13.5q11 0 34.5 19.5t43 39t20.5 19.5q10 0 10 -13zM360 282q0 -69 -49 -154t-107 -129q-40 -33 -81 -33q-6 0 -12 2.5t-13.5 6t-11.5 4.5q-27 9 -51 51q-5 10 -7 25q-6 27 -6 31 q0 57 23 142q11 37 63 114q3 4 13 22.5t18 27.5q4 5 15.5 11t15.5 10q20 20 48 20q18 0 52 -16q46 -19 65 -49q25 -42 25 -86zM310 304q0 26 -14.5 46.5t-39.5 20.5q-35 0 -75.5 -34t-72.5 -103q-3 -7 -13 -47l-7 -20q-4 -15 -6.5 -27t-2.5 -23q0 -7 -1 -19t-1 -18 q0 -58 37 -58q40 0 95.5 53t76.5 122q2 5 7.5 15t7.5 16q9 38 9 76z" />
<glyph unicode="&#xf6;" horiz-adv-x="388" d="M253 589q0 -11 -9 -20.5t-20 -9.5q-14 0 -27 18t-13 32q0 11 6.5 20.5t16.5 9.5q12 0 29 -19t17 -31zM428 591q0 -12 -12.5 -22t-25.5 -10q-16 0 -27.5 12t-11.5 28q0 13 7 24t19 11q16 0 33.5 -14t17.5 -29zM360 282q0 -69 -49 -154t-107 -129q-40 -33 -81 -33 q-6 0 -12 2.5t-13.5 6t-11.5 4.5q-27 9 -51 51q-5 10 -7 25q-6 27 -6 31q0 57 23 142q11 37 63 114q3 4 13 22.5t18 27.5q4 5 15.5 11t15.5 10q20 20 48 20q18 0 52 -16q46 -19 65 -49q25 -42 25 -86zM310 304q0 26 -14.5 46.5t-39.5 20.5q-35 0 -75.5 -34t-72.5 -103 q-3 -7 -13 -47l-7 -20q-4 -15 -6.5 -27t-2.5 -23q0 -7 -1 -19t-1 -18q0 -58 37 -58q40 0 95.5 53t76.5 122q2 5 7.5 15t7.5 16q9 38 9 76z" />
<glyph unicode="&#xf7;" horiz-adv-x="470" d="M297 416q0 -13 -8 -23t-20 -10t-22.5 14.5t-10.5 27.5t9.5 23t22.5 10q12 0 20.5 -15t8.5 -27zM438 245q0 -10 -10.5 -27.5t-20.5 -17.5q-5 0 -16.5 5.5t-17.5 5.5q-34 0 -105 -7t-105 -7q-65 0 -89 6q-9 1 -18.5 14.5t-9.5 23.5t8.5 20t18.5 10q15 0 45.5 -4.5 t45.5 -4.5q32 0 96 4.5t95 4.5q52 0 62 -1q8 -2 14.5 -10t6.5 -15zM248 64q0 -11 -14 -25.5t-25 -14.5q-14 0 -24.5 16.5t-10.5 31.5q0 12 7 21.5t18 9.5q12 0 30.5 -14t18.5 -25z" />
<glyph unicode="&#xf8;" horiz-adv-x="388" d="M22 99q4 62 23 129q11 37 63 114q3 4 13 22.5t18 27.5q4 5 15.5 11t15.5 10q20 20 48 20q18 0 52 -16q52 -22 65 -49q3 -7 10.5 -9t10.5 2q44 27 58 22q14 -4 9 -20q-2 -11 -11 -14l-46 -31q-8 -3 -8 -23q2 -4 2 -13q0 -69 -49 -154t-107 -129q-40 -33 -81 -33 q-6 0 -12 2.5t-13.5 6t-11.5 4.5q-27 9 -51 51q-5 12 -19 -1q-2 -2 -5.5 -11t-7.5 -13q-16 -18 -35 -13q-6 1 -13 9.5t-4 15.5q6 15 64 65q7 3 7 17zM95 149l198 163q1 1 4 3.5t4 4t2.5 5t1 7t-2.5 7.5q-15 32 -46 32q-35 0 -75.5 -34t-72.5 -103q-16 -36 -18 -46 q-3 -16 -8 -30q-1 -4 3.5 -9t9.5 0zM302 276q-43 -33 -134 -117q-18 -16 -44.5 -36.5t-34.5 -27.5q-5 -3 -9.5 -14.5t-3.5 -18.5q4 -40 38 -40q40 0 95.5 53t76.5 122q2 5 7.5 15t7.5 16q1 4 5.5 19t5.5 21q2 5 -2 8.5t-8 -0.5z" />
<glyph unicode="&#xf9;" horiz-adv-x="471" d="M104 744q0 6 14.5 17.5t20.5 11.5q8 0 22.5 -17.5t32.5 -44t21 -29.5q15 -19 45 -53l50 -57q20 -24 20 -31q0 -6 -10 -16.5t-19 -10.5q-17 0 -107 101.5t-90 128.5zM433 341q0 -33 -57 -209q0 -3 -0.5 -12t-1.5 -12l-8 -29l-9 -31q-4 -13 -4 -19q0 -2 4 -11.5t4 -13.5 q0 -10 -7 -19.5t-16 -9.5q-38 0 -38 49q0 25 33 142q12 40 12 50q0 3 -3.5 6t-5.5 3q-4 0 -11.5 -7t-18 -19.5t-18.5 -19.5q-23 -26 -26 -30q-4 -6 -20 -25l-30 -38l-46 -56t-44.5 -43t-41.5 -21q-15 0 -39 27q-11 16 -11 45q0 43 35 170t59 175l8 24q10 26 25 26 q10 0 17.5 -15t7.5 -27q0 -9 -13 -53l-30 -96q-16 -51 -19 -63q-32 -114 -32 -121q0 -3 5 -6t8 -3q10 0 79 80l174 200q5 7 14 21t14 20q6 10 19 10q1 0 7.5 -6.5t13 -14t8.5 -8.5q3 -3 3 -10z" />
<glyph unicode="&#xfa;" horiz-adv-x="471" d="M267 544q0 7 25 37l57 64q31 33 36 41q7 10 17 32.5t10 28.5t5 11.5t11 5.5q13 0 25.5 -11.5t12.5 -24.5q0 -26 -25 -65t-56.5 -71t-58.5 -55t-32 -23q-9 0 -18 12t-9 18zM433 341q0 -33 -57 -209q0 -3 -0.5 -12t-1.5 -12l-8 -29l-9 -32q-4 -12 -4 -18q0 -2 4 -11.5 t4 -13.5q0 -10 -7 -19.5t-16 -9.5q-38 0 -38 49q0 25 33 142q12 40 12 50q0 3 -3.5 6t-5.5 3q-4 0 -11.5 -7t-18 -19.5t-18.5 -19.5q-23 -26 -26 -30q-4 -6 -20 -25l-30 -38l-46 -56t-44.5 -43t-41.5 -21q-15 0 -39 27q-11 16 -11 45q0 43 35 170t59 175l8 24q10 26 25 26 q10 0 17.5 -15t7.5 -27q0 -9 -13 -53l-30 -96q-16 -51 -19 -63q-32 -114 -32 -121q0 -3 5 -6t8 -3q10 0 79 80l174 200q5 7 14 21t14 20q6 10 19 10q1 0 7.5 -6.5t13 -14t8.5 -8.5q3 -3 3 -10z" />
<glyph unicode="&#xfb;" horiz-adv-x="471" d="M467 503q0 -20 -11 -20q-10 0 -21.5 9.5t-15.5 19.5q-3 7 -15 49t-24.5 74.5t-21.5 32.5q-13 0 -48.5 -41.5t-64.5 -83.5q-12 -17 -28 -17q-9 0 -17 7.5t-8 16.5q0 12 11 27t27.5 31.5t21.5 23.5q1 8 12.5 22.5t28 32t19.5 21.5q49 60 69 60q10 0 18 -10t10 -21 q3 -14 22 -121q4 -32 17 -65q2 -6 10.5 -21.5t8.5 -26.5zM433 341q0 -33 -57 -209q0 -3 -0.5 -12t-1.5 -12l-8 -29l-9 -32q-4 -12 -4 -18q0 -2 4 -11.5t4 -13.5q0 -10 -7 -19.5t-16 -9.5q-38 0 -38 49q0 25 33 142q12 40 12 50q0 3 -3.5 6t-5.5 3q-4 0 -11.5 -7t-18 -19.5 t-18.5 -19.5q-23 -26 -26 -30q-4 -6 -20 -25l-30 -39l-46 -55t-44.5 -43t-41.5 -21q-15 0 -39 27q-11 16 -11 45q0 43 35 170t59 175l8 24q10 26 25 26q10 0 17.5 -15t7.5 -27q0 -9 -13 -54l-30 -95q-16 -51 -19 -63q-32 -114 -32 -121q0 -3 5 -6t8 -3q10 0 79 80l174 200 q5 7 14 21t14 20q6 10 19 10q1 0 7.5 -6.5t13 -14t8.5 -8.5q3 -3 3 -10z" />
<glyph unicode="&#xfc;" horiz-adv-x="471" d="M298 589q0 -11 -9 -20.5t-20 -9.5q-14 0 -27 18t-13 32q0 11 6.5 20.5t16.5 9.5q12 0 29 -19t17 -31zM473 591q0 -12 -12.5 -22t-25.5 -10q-16 0 -27.5 12t-11.5 28q0 13 7 24t19 11q16 0 33.5 -14t17.5 -29zM433 341q0 -33 -57 -209q0 -3 -0.5 -12t-1.5 -12l-8 -29 l-9 -32q-4 -12 -4 -18q0 -2 4 -11.5t4 -13.5q0 -10 -7 -19.5t-16 -9.5q-38 0 -38 49q0 25 33 142q12 40 12 50q0 3 -3.5 6t-5.5 3q-4 0 -11.5 -7t-18 -19.5t-18.5 -19.5q-23 -26 -26 -30q-4 -6 -20 -25l-30 -39l-46 -55t-44.5 -43t-41.5 -21q-15 0 -39 27q-11 16 -11 45 q0 43 35 170t59 175l8 24q10 26 25 26q10 0 17.5 -15t7.5 -27q0 -9 -13 -53l-30 -96q-16 -51 -19 -63q-32 -114 -32 -121q0 -3 5 -6t8 -3q10 0 79 80l174 200q5 7 14 21t14 20q6 10 19 10q1 0 7.5 -6.5t13 -14t8.5 -8.5q3 -3 3 -10z" />
<glyph unicode="&#xfd;" horiz-adv-x="508" d="M275 544q0 7 25 37l57 64q31 33 36 41q7 10 17 32.5t10 28.5t5 11.5t11 5.5q13 0 25.5 -11.5t12.5 -24.5q0 -26 -25 -65t-56.5 -71t-58.5 -55t-32 -23q-9 0 -18 12t-9 18zM471 397q0 -10 -6 -29.5t-15 -43t-11 -29.5q-5 -17 -10 -49.5t-8 -44.5q-1 -6 -6 -20t-6 -22 q-4 -48 -22 -137q-3 -13 -12.5 -37t-12.5 -36v-9q0 -6 -1 -8q-1 -6 -7 -17t-7 -14q-3 -6 -5 -19t-5 -19q-1 -3 -6 -9t-6 -9q-20 -36 -20 -37q-32 -51 -71 -80t-72 -29q-31 0 -48 15.5t-17 30.5q0 5 4.5 12t9.5 7l13 -8q12 -9 29 -9q60 0 118 108q66 124 79 275q0 7 4.5 24 t4.5 25q0 12 -10 12q-4 0 -16 -12q-87 -94 -178 -157l-13 -6q-8 -4 -12 -7t-10.5 -10t-10.5 -10q-21 -14 -39 -14q-21 0 -35 17t-14 53q0 18 8 49t22 71l25 71l27 71l19 47q3 6 5 21t5 21q1 4 7.5 8t10.5 4q9 0 21 -10.5t12 -19.5q0 -15 -4.5 -29.5t-16 -37.5t-13.5 -28 t-5 -16t-5 -16q-4 -11 -22.5 -57.5t-32 -85t-13.5 -51.5q0 -16 13 -16q4 0 12 6l20 13q12 7 13 8q160 122 249 243q7 9 19 40.5t17 48.5q11 38 29 38t28 -41z" />
<glyph unicode="&#xfe;" horiz-adv-x="503" d="M477 275q0 -25 -13.5 -61.5t-30.5 -54.5q-16 -44 -64 -88q-4 -3 -13.5 -13t-17.5 -17t-16 -12l-31 -19l-34 -21q-11 -7 -30.5 -14t-37.5 -8q-5 0 -16.5 -3t-16.5 -3q-11 0 -41 8.5t-33 8.5q-9 0 -23 -44t-27 -113q-15 -87 -21 -107q-3 -9 -10 -9q-9 0 -23 14t-14 24 q0 7 8 52q12 83 67 308q1 3 1 8t1 7l10 32q7 22 10 34q3 26 4 29t6 11t6 13q3 16 4.5 45t3.5 42q1 6 5 19t5 20q1 3 4 27t6 37q5 25 19 105l7 35q5 26 6 32q23 93 44 93q8 0 24.5 -13.5t16.5 -20.5q0 -12 -11 -36t-12 -29q-14 -47 -38 -171q-16 -78 -21 -121l4 -6q1 0 5.5 5 t9.5 12.5t7 9.5q62 73 116 90l18 6l23 7q10 3 18 3q3 0 11 -3t12 -3q33 0 62.5 -30t41.5 -59q9 -20 9 -58zM424 280q0 38 -10.5 61.5t-42.5 34.5q-12 4 -16 4q-11 0 -47 -13q-10 -4 -19.5 -10t-20.5 -15t-17 -13q-3 -3 -11 -6t-11 -6q-28 -26 -56 -70.5t-41 -82.5 q-1 -4 -13.5 -39.5t-20.5 -62t-8 -34.5q0 -10 16 -15t30 -5q82 0 166.5 77t117.5 161q4 9 4 34z" />
<glyph unicode="&#xff;" horiz-adv-x="508" d="M308 589q0 -11 -9 -20.5t-20 -9.5q-14 0 -27 18t-13 32q0 11 6.5 20.5t16.5 9.5q12 0 29 -19t17 -31zM483 591q0 -12 -12.5 -22t-25.5 -10q-16 0 -27.5 12t-11.5 28q0 13 7 24t19 11q16 0 33.5 -14t17.5 -29zM471 397q0 -10 -6 -29.5t-15 -43t-11 -29.5q-5 -17 -10 -49.5 t-8 -44.5q-1 -6 -6 -20t-6 -22q-4 -48 -22 -137q-3 -13 -12.5 -37t-12.5 -36v-9q0 -6 -1 -8q-1 -6 -7 -17t-7 -14q-3 -6 -5 -19t-5 -19q-1 -3 -6 -9t-6 -9q-20 -36 -20 -37q-32 -51 -71 -80t-72 -29q-31 0 -48 15.5t-17 30.5q0 5 4.5 12t9.5 7l13 -8q12 -9 29 -9 q60 0 118 108q66 124 79 275q0 7 4.5 24t4.5 25q0 12 -10 12q-4 0 -16 -12q-87 -94 -178 -157l-13 -6q-8 -4 -12 -7t-10.5 -10t-10.5 -10q-21 -14 -39 -14q-21 0 -35 17t-14 53q0 18 8 49t22 71l25 71l27 71l19 47q3 6 5 21t5 21q1 4 7.5 8t10.5 4q9 0 21 -10.5t12 -19.5 q0 -15 -4.5 -29.5t-16 -37.5t-13.5 -28t-5 -16t-5 -16q-4 -11 -22.5 -57.5t-32 -85t-13.5 -51.5q0 -16 13 -16q4 0 12 5l20 14q12 7 13 8q160 122 249 243q7 9 19 40.5t17 48.5q11 38 29 38t28 -41z" />
<glyph unicode="&#x152;" horiz-adv-x="984" d="M937 276q0 -18 -17 -26.5t-37 -8.5q-2 0 -6.5 0.5t-6.5 0.5q-4 0 -11 -2.5t-11 -2.5t-8 1l-11 1q-8 1 -14 2q-8 1 -29 3l-33 3q-53 8 -75 8q-29 0 -34 -18q-66 -198 -66 -215q0 -43 125 -43q53 0 129 42q4 2 11 8.5t13.5 10t13.5 3.5q11 0 18 -14t7 -26q0 -4 -2.5 -8 t-7 -7t-8 -5t-9.5 -4.5t-7 -3.5q-4 -2 -15 -9t-18 -9l-12 -3l-12 -3q-4 -1 -11 -6t-11 -6t-14 -1t-14 -1q-51 -15 -76 -15q-11 0 -32 4t-33 4q-24 0 -63 26t-39 48q0 14 11.5 46.5t11.5 38.5q0 7 -7 7q-58 -62 -106.5 -99t-111.5 -51q-3 0 -15 -8q-16 -2 -27 -2 q-24 0 -59 11t-55 25q-4 3 -14.5 7.5t-15.5 8.5q-19 16 -41.5 52t-29.5 60q-16 46 -16 86q0 104 33 186q22 54 67 106.5t84 74.5q12 7 26.5 13t25.5 9l28 9q18 5 27 8q4 1 12 5.5t13 6.5q20 8 88 8q52 0 108 -31.5t67 -77.5q11 -57 19 -57q3 0 5.5 2.5t3.5 7t1.5 8.5t1 9 t0.5 6q10 36 10 70q0 4 -2 11t-2 10q0 11 22 29t30 18q1 0 45 -17.5t85 -17.5q18 0 34.5 5.5t22.5 5.5q8 0 22 -13.5t14 -21.5q0 -19 -34 -26.5t-65 -7.5q-24 0 -66 10q-20 8 -30 8q-13 0 -13 -16q0 -22 -7.5 -62.5t-8.5 -45.5q-2 -10 -12 -38t-10 -43q0 -8 7 -14t19 -9.5 t22.5 -5t24 -3t16.5 -1.5q42 -5 71 -5q8 0 25 3t26 3q11 0 28 -9.5t17 -19.5zM578 399q0 58 -8 77q-17 34 -53.5 50t-78.5 16q-110 0 -184 -50q-49 -33 -95 -95q-22 -31 -38 -77t-21 -86q0 -3 -2.5 -14t-2.5 -16q0 -70 28 -124t64 -63q7 -2 18 -10t35 -8h47q13 0 66 29 q64 31 119 99t78 139q6 16 17 68.5t11 64.5z" />
<glyph unicode="&#x153;" horiz-adv-x="630" d="M261 55q-38 -42 -57 -56q-40 -33 -81 -33q-6 0 -12 2.5t-13.5 6t-11.5 4.5q-27 9 -51 51q-5 10 -7 25q-6 27 -6 31q0 36 7 81t22 59q3 4 3 10q0 13 6.5 29t12.5 26t19 28.5t16 22.5t13 22.5t18 27.5q4 5 15.5 11t15.5 10q20 20 48 20q18 0 52 -16q46 -19 65 -49 q10 -14 18 -47q53 68 125 113q29 19 58 19q27 0 42 -19.5t15 -46.5q0 -36 -20 -79q-1 -2 -13 -24q-2 -2 -6.5 -7t-6.5 -7q-11 -19 -29 -37q-28 -28 -67.5 -42.5t-68.5 -14.5q-4 0 -14 2t-15 2q-7 0 -15 -10.5t-14 -33.5t-6 -52q0 -80 68 -80q61 0 120 66q8 9 56 68 q15 17 21 17q5 0 9.5 -4.5t4.5 -8.5q0 -11 -21 -45q-49 -72 -105.5 -106t-110.5 -34q-41 0 -68 24.5t-31 73.5zM537 371q0 16 -17 16q-20 0 -34 -7q-27 -13 -71.5 -62t-44.5 -73q0 -6 7 -13t13 -7q49 0 98 50t49 96zM310 304q0 26 -14.5 46.5t-39.5 20.5q-35 0 -75.5 -34 t-72.5 -103q-3 -7 -13 -47q-6 -24 -17 -50v-2q-1 -2 -1 -3q0 -3 1 -8t1 -7q0 -7 -1 -19t-1 -18q0 -58 37 -58q40 0 95.5 53t76.5 122q2 5 7.5 15t7.5 16q9 38 9 76z" />
<glyph unicode="&#x178;" horiz-adv-x="434" d="M272 714q0 -11 -9 -20.5t-20 -9.5q-14 0 -27 18t-13 32q0 11 6.5 20.5t16.5 9.5q12 0 29 -19t17 -31zM447 716q0 -12 -12.5 -22t-25.5 -10q-16 0 -27.5 12t-11.5 28q0 13 7 24t19 11q16 0 33.5 -14t17.5 -29zM484 612q-7 -23 -35 -70q-26 -43 -87.5 -112.5t-77.5 -90.5 q-16 -15 -22 -51q-6 -43 -13 -62v-5q0 -8 -4 -24q-11 -34 -23 -97t-17 -83l-4 -25q-3 -18 -6.5 -34t-6.5 -22q-3 -8 -17.5 -17.5t-23.5 -9.5t-10 9q-5 20 -5 44q0 20 10.5 66.5t10.5 62.5q0 3 3 12t3 10q11 59 13 65q3 8 21 92q3 10 -10 35l-39 67q-26 44 -41 67l-35 51 q-31 44 -46 68q-9 23 -9 38q-1 9 7 17.5t17 8.5h5q2 0 4 -1.5t4 -2.5t4.5 -3.5l4.5 -4.5l4 -6l5 -7q2 -2 6 -7l5 -8q34 -45 82 -128l19 -31q5 -9 14 -22.5t14 -18.5t9 -4q13 0 42 27q53 56 104 119q21 25 69 101q15 22 31 20q21 0 21 -33z" />
<glyph unicode="&#x2c6;" horiz-adv-x="526" d="M397 503q0 -20 -11 -20q-10 0 -21.5 9.5t-15.5 19.5q-3 7 -15 49t-24.5 74.5t-21.5 32.5q-13 0 -48.5 -41.5t-64.5 -83.5q-12 -17 -28 -17q-9 0 -17 7.5t-8 16.5q0 12 11 27t27.5 31.5t21.5 23.5q1 8 12.5 22.5t28 32t19.5 21.5q49 60 69 60q10 0 18 -10t10 -21 q3 -14 22 -121q4 -32 17 -65q2 -6 10.5 -21.5t8.5 -26.5z" />
<glyph unicode="&#x2dc;" horiz-adv-x="526" d="M499 632q0 -7 -6 -19q-1 -4 -1 -11v-11q-5 -22 -38.5 -52.5t-54.5 -30.5q-19 0 -38.5 12.5t-28.5 22.5t-32 39q-1 1 -8.5 11t-13 16.5t-13 14.5t-14.5 12.5t-13 4.5q-39 0 -75 -44q-3 -5 -7 -15.5t-9 -16.5t-14 -6q-16 0 -27 11.5t-11 28.5q0 15 23 33q20 20 32.5 31.5 t35 24t42.5 12.5q38 0 60 -20l11 -16q2 -1 7 -3t7 -4q10 -12 27.5 -37.5t29.5 -39t21 -13.5q11 0 34.5 19.5t43 39t20.5 19.5q10 0 10 -13z" />
<glyph unicode="&#x2013;" horiz-adv-x="500" d="M464 254q0 -11 -11.5 -18t-20.5 -7q-2 0 -7.5 2.5t-8.5 2.5q-9 0 -28.5 -1t-29.5 -1q-4 0 -14 2t-14 2q-6 0 -18 -3t-18 -3q-164 -2 -241 4q-9 1 -16 7t-7 16q0 16 9.5 24t20.5 8q3 0 9 -1t8 -1q3 0 9 0.5t9 0.5q4 0 42 -5t59 -5q3 0 18 0.5t18 0.5q5 0 14 -3.5t13 -3.5 q7 0 19.5 2t17.5 2q14 2 81 4q9 0 29.5 4.5t30.5 4.5q5 0 16 -16t11 -19z" />
<glyph unicode="&#x2014;" horiz-adv-x="1000" d="M332 228h-81q-104 2 -138 8q-3 0 -8 4.5t-8 4.5t-7 -3t-7 -3q-6 0 -22 4q-26 7 -26 27q0 12 6 21t16 9q8 0 23 -1.5t22 -1.5q15 0 41.5 -6t41.5 -7h51h246q22 0 58.5 2t56.5 2q36 0 108.5 2.5t80.5 2.5q44 0 68 -1q58 -2 69 -4q15 -2 25.5 -12.5t10.5 -26.5 q0 -11 -6 -16.5t-11.5 -6t-15.5 -0.5q-5 0 -15.5 3.5t-12.5 3.5q-5 1 -18 3t-23 5q-3 0 -9 -1.5t-9 -1.5q-216 -4 -254 -4q-11 0 -32.5 2.5t-32.5 2.5q-2 0 -34 -2.5t-77 -5.5t-77 -3z" />
<glyph unicode="&#x2018;" horiz-adv-x="197" d="M179 309q0 -4 -4 -8t-9 -4q-29 0 -57 24t-46 54q-13 22 -13 67q0 43 28 86q14 22 35 41.5t30 19.5q14 0 23 -16.5t9 -31.5q0 -4 -11 -15l-25 -26q-13 -14 -24.5 -40t-11.5 -56q0 -19 14 -38.5t32 -27.5q1 0 5.5 -2.5t6.5 -3.5t6.5 -4t6.5 -5.5t3.5 -6t1.5 -7.5z" />
<glyph unicode="&#x2019;" horiz-adv-x="197" d="M195 501q0 -21 -9 -40q-16 -32 -42.5 -60.5t-43.5 -28.5q-5 0 -9.5 5t-4.5 10q0 6 2 10q53 73 53 117q0 28 -13 44.5t-29 21t-29 10.5t-13 14q0 10 13 16q7 3 28 10.5t26 7.5q6 0 10 -4q31 -17 46 -55t15 -78z" />
<glyph unicode="&#x201a;" horiz-adv-x="197" d="M131 -30q0 -20 -9 -40q-16 -32 -42.5 -60.5t-43.5 -28.5q-5 0 -9.5 5t-4.5 10q0 6 2 10q53 73 53 117q0 28 -13 44.5t-29 21t-29 10.5t-13 14q0 10 13 16q7 3 28 10.5t26 7.5q6 0 10 -4q31 -17 46 -55t15 -78z" />
<glyph unicode="&#x201c;" horiz-adv-x="359" d="M349 537q0 -7 -19.5 -34.5t-38.5 -64t-19 -63.5q0 -17 12.5 -28t12.5 -15q0 -14 -19 -14t-27 4q-27 36 -27 77q0 36 33.5 98t66.5 62q9 0 17 -6.5t8 -15.5zM213 563q0 -14 -13 -27q-35 -32 -59.5 -76t-24.5 -69q0 -41 25 -59q3 -2 14 -7t19.5 -10t8.5 -10 q0 -13 -12.5 -21t-25.5 -8q-2 0 -6 1.5t-6 1.5q-29 11 -47.5 47t-18.5 70q0 36 14 75q16 45 50.5 83.5t52.5 38.5q13 0 21 -9t8 -21z" />
<glyph unicode="&#x201d;" horiz-adv-x="359" d="M355 450q0 -24 -11 -57.5t-29 -33.5q-10 0 -20 7.5t-10 17.5t9 26t9 28q0 21 -19 58t-19 51q0 8 7.5 14t16.5 6q20 0 43 -46.5t23 -70.5zM194 391q0 -86 -51 -86q-16 0 -28 11t-12 27q0 10 5.5 13t17.5 5q8 1 12.5 17t4.5 27q0 19 -16 49q-19 40 -64 68q-7 5 -7 10 q0 11 21 20.5t34 9.5q7 0 28 -21q23 -23 39 -68.5t16 -81.5z" />
<glyph unicode="&#x201e;" horiz-adv-x="349" d="M287 -10q0 -24 -11 -57.5t-29 -33.5q-10 0 -20 7.5t-10 17.5t9 26t9 28q0 21 -19 58t-19 51q0 8 7.5 14t16.5 6q20 0 43 -46.5t23 -70.5zM126 -69q0 -86 -51 -86q-16 0 -28 11t-12 27q0 10 5.5 13t17.5 5q8 1 12.5 17t4.5 27q0 19 -16 49q-19 40 -64 68q-7 5 -7 10 q0 11 21 20.5t34 9.5q7 0 28 -21q23 -23 39 -68.5t16 -81.5z" />
<glyph unicode="&#x2022;" horiz-adv-x="388" d="M313 288q7 -40 -23.5 -89t-71.5 -73q-29 -21 -57 -21q-6 0 -16.5 4t-14.5 5q-17 4 -42 29q-1 1 -8 15q-8 9 -9 18q-4 13 -1.5 42t12.5 37q2 3 2 6q-2 9 2 19t15.5 25.5t12.5 16.5l9 14q6 10 10 15q2 3 11.5 6t12.5 7q13 11 32 11q11 0 43 -9q39 -15 54 -29q24 -26 27 -49 z" />
<glyph unicode="&#x2026;" horiz-adv-x="1000" d="M806 26q0 -39 -36 -39q-21 0 -38 18.5t-17 39.5q0 12 9 25.5t20 13.5q22 0 42 -18t20 -40zM494 18q0 -26 -34 -26q-25 0 -38.5 14t-13.5 40q0 11 8.5 20t20.5 9q20 0 38.5 -18t18.5 -39zM190 13q0 -12 -11.5 -20.5t-25.5 -8.5q-24 0 -38.5 15.5t-14.5 39.5q0 14 9.5 22.5 t22.5 8.5q19 0 38.5 -19t19.5 -38z" />
<glyph unicode="&#x2039;" horiz-adv-x="371" d="M239 75q-6 0 -24.5 17.5t-22.5 19.5q-6 5 -49.5 30t-72 50t-28.5 47q0 19 40 37q43 22 117 56.5t89 34.5q11 0 20 -8.5t9 -19.5q0 -18 -19 -30q-5 -3 -18 -6t-19 -6q-33 -13 -81 -37t-48 -34q0 -11 27 -30.5t59.5 -38t37.5 -23.5q14 -14 11 -30q-3 -9 -11.5 -19 t-16.5 -10z" />
<glyph unicode="&#x203a;" horiz-adv-x="371" d="M279 158q-3 -1 -11 -6.5t-11 -6.5q-7 -3 -20.5 -7.5t-20.5 -8.5q-14 -7 -46.5 -24.5t-42.5 -22.5q-21 -8 -23 -8q-12 0 -26.5 6.5t-14.5 16.5q0 12 11 17q7 5 49.5 25t78 39t35.5 26q0 9 -16 18q-28 18 -108 52q-6 2 -22 2q-17 0 -22 4q-16 11 -14 38q1 7 9 12.5t15 5.5 q14 0 45 -14t33 -15q25 -10 68 -33q2 -1 27 -15t38 -22q4 -2 13 -6t13 -7q16 -14 16 -37q0 -3 -1 -6t-3.5 -5.5t-5 -4t-6.5 -3.5t-7 -3t-8 -2t-7.5 -2t-8 -2t-6.5 -1z" />
<glyph unicode="&#x20ac;" horiz-adv-x="579" d="M548 528q0 -7 -6.5 -18t-12.5 -11q-4 2 -13.5 7.5t-11.5 6.5l-9 5q-7 3 -10 3.5t-9.5 2t-13.5 1.5h-15q-23 0 -75 -13q-5 -2 -12 -7t-10 -6q-38 -15 -78.5 -57.5t-40.5 -61.5q0 -6 5.5 -11t11.5 -5q108 0 169 12q24 8 41 8q2 0 6 -0.5t5 -0.5q3 0 8.5 2.5t13.5 3.5 q5 1 10 -4t5 -11q0 -9 -12 -16.5t-22 -7.5q-9 0 -23.5 -6.5t-19.5 -7.5q-20 -6 -32 -6q-1 0 -11 -2l-13 -4q-63 -10 -113 -10q-30 0 -44 -6q-12 -6 -12 -20q0 -31 27 -31q8 0 23 -1t22 -1q2 0 26 3q4 0 11 -1.5t10 -1.5q5 0 15 2t12 2q1 0 42 3q10 1 28 4.5t33 5.5t28 2 q8 0 21.5 -1t20.5 -1q6 0 6 -10q-10 -8 -52 -23q-67 -22 -115 -25q-43 -3 -144 -3q-19 0 -26 -7t-7 -26q0 -50 20 -108q10 -33 31 -47t56 -14q39 0 72 15q67 24 132 71q20 12 26 12q11 0 11 -12q0 -11 -20 -32.5t-34 -30.5q-106 -78 -192 -78q-35 0 -51.5 8t-42.5 35 q-3 4 -9 14t-7 11q-2 5 -5 14.5t-5 14.5q-1 3 -9 18.5t-11 23.5q-2 6 -2.5 17t-1.5 16q0 3 -4 9.5t-5 10.5v42q0 15 -5 20.5t-20 5.5q-14 0 -38 -2q-4 0 -13.5 -2.5t-14.5 -2.5q-13 0 -13 23q0 6 2.5 11.5t7.5 9t10 6.5t14 4.5t14 2.5t15.5 1.5t14.5 0.5h13h10q5 0 10 8.5 t5 20.5q0 25 -30 25q-8 0 -24.5 -3.5t-24.5 -3.5q-12 0 -22 10.5t-10 22.5q0 13 12.5 18t24.5 2q8 0 31 2t35 2q26 0 35 31q19 53 66.5 97t101 67t97.5 23q59 0 100 -35q10 -10 10 -25z" />
<glyph unicode="&#x2122;" horiz-adv-x="588" d="M221 578q0 -9 -10 -16t-19 -5l-41 4q-4 1 -8 -3.5t-5 -8.5q-1 -6 -1 -73q0 -9 -0.5 -26.5t-0.5 -27.5q0 -3 -1.5 -9.5t-1.5 -9.5q0 -25 -12 -25q-19 0 -24 7.5t-5 27.5q0 12 3.5 36t3.5 37q0 5 0.5 17t0.5 18q0 22 -4 32t-12.5 11t-21 1t-28.5 2q-6 1 -17.5 8t-11.5 12 q0 7 4.5 14t10.5 7q17 0 53.5 -5.5t54.5 -5.5h50q43 0 43 -19zM546 532q0 -8 -2.5 -22t-2.5 -21q0 -3 0.5 -7t0.5 -7t-2 -9t-2 -8v-86q-2 -5 -8.5 -9.5t-11.5 -4.5q-22 0 -22 34v57q0 7 2 21.5t2 20.5v18q0 3 1.5 9t1.5 8q0 13 -10 13q-6 0 -31.5 -31.5t-31.5 -43.5 q-1 -1 -4 -6t-4.5 -8t-5 -8t-6.5 -8t-6.5 -6t-7 -4.5t-7.5 -1.5q-13 0 -41.5 60t-31.5 60q-5 0 -8 -14q-16 -40 -25 -100q-1 -5 -3 -17.5t-4 -19.5q-1 -3 -6 -7.5t-8 -4.5q-9 0 -15 8t-6 17q0 30 20 105q12 53 18 94q1 6 11 9.5t18 3.5q17 0 22 -9q7 -11 17 -39 q24 -52 39 -79q2 -5 7 -5q1 0 27 31t55 61.5t36 30.5q2 0 5 -2t5 -2q16 -5 18.5 -8t2.5 -20v-29q0 -1 2 -6.5t2 -7.5z" />
<glyph unicode="&#xe000;" horiz-adv-x="420" d="M0 420h420v-420h-420v420z" />
<glyph unicode="&#xfb01;" horiz-adv-x="454" d="M184 350q-16 -9 -18 -36l-13 -94q-10 -78 -15 -108q-2 -12 -12 -77l-16 -117q-7 -51 -7 -59v-46q-6 -46 -42 -46q-24 0 -24 59q1 25 12 73t12 54q27 189 47 389q2 15 -11 15q-9 0 -28 -1t-28 -1q-8 0 -19.5 10t-10.5 18q1 14 35 17.5t61 0.5q10 7 10 12q4 39 50 211 q15 50 45.5 90t51.5 40q57 0 107.5 -59t52.5 -95q0 -6 -8 -13t-15 -7q-9 0 -23 17.5t-27 38t-33 38t-40 17.5q-14 0 -25.5 -12t-20.5 -35t-14.5 -40t-12 -43t-6.5 -28q-18 -71 -20 -113q-1 -13 3.5 -16t20.5 -3q22 0 69.5 1.5t53.5 1.5q27 0 45 -27t23.5 -58t2.5 -52 q-15 -104 -39 -197q-3 -7 -6.5 -20.5t-5.5 -17.5q-1 -1 -13 -20q-2 -4 -4.5 -12.5t-4.5 -12.5q-7 -11 -20 -11q-11 0 -17.5 12.5t-7.5 24.5q0 5 3 14t8 20.5t6 15.5q2 7 4.5 22t4.5 22q9 27 14.5 53t8 43.5t7 53t8.5 60.5q2 16 -5 28.5t-20 12.5q-121 0 -134 -8z" />
<glyph unicode="&#xfb02;" horiz-adv-x="470" d="M472 650q0 -114 -27 -188q-1 -4 -4 -30q-4 -20 -15.5 -56.5t-14.5 -55.5l-12 -54q-58 -222 -58 -255q0 -4 3 -13t3 -12q0 -7 -9.5 -14.5t-16.5 -7.5q-9 0 -19 11t-10 20q0 5 -0.5 16.5t-0.5 16.5q0 12 2 34q3 28 16 92q16 69 33 124q6 20 15 62l11 53q21 89 31 135 q9 81 9 93q0 8 -2 24t-2 23q0 23 18 23q13 0 31.5 -14.5t18.5 -26.5zM153 555q12 77 42.5 114t63.5 34q4 0 11 1.5t10 1.5q6 0 18 -3.5t17 -3.5q1 0 4 0.5t5 0.5q12 0 30 -8.5t21 -20.5q3 -27 -8 -27l-21 6q-4 1 -18 5.5t-21 4.5q-36 0 -58.5 -21.5t-39.5 -92.5 q-20 -85 -20 -126q0 -14 3.5 -16.5t19.5 -2.5q23 0 49 2t27 2q16 0 25 -5q2 0 5.5 -8.5t3.5 -11.5q0 -11 -6 -14q-12 -7 -36 -7q-76 0 -85 -6q-17 -11 -20 -36l-28 -161q-34 -178 -34 -222v-24q-1 -18 -12 -32t-31 -14q-15 0 -20 21t-3 38q1 25 11 70t12 57q43 250 47 292 q2 15 -10 15q-10 0 -29 -1t-28 -1q-7 0 -18 9.5t-11 18.5q0 14 34 17.5t61 0.5q10 7 10 12q4 38 27 142z" />
<glyph unicode="&#xfb03;" horiz-adv-x="738" d="M790 589q0 -11 -9 -20.5t-20 -9.5q-14 0 -27.5 17.5t-13.5 32.5q0 11 7 20.5t17 9.5q12 0 29 -19t17 -31zM694 400q0 -6 -2.5 -17.5t-2.5 -15.5l-7 -50q-5 -35 -9.5 -60t-11.5 -49l-31 -111q-22 -60 -27 -69q-1 -2 -4.5 -19.5t-10.5 -27t-20 -9.5q-7 0 -15.5 8.5 t-8.5 15.5q14 31 14 49q0 3 -0.5 7.5t-0.5 6.5q0 5 1 7q25 68 62 229l16 71q1 3 2 25.5t6 34.5q6 15 25 15q12 0 18.5 -13.5t6.5 -27.5zM417 534q15 80 43.5 121t63.5 41q3 0 10.5 2t11.5 2q6 0 45 -12q15 -4 32 -14t20 -21q2 -6 0 -16.5t-9 -10.5l-21 6q-5 1 -26.5 11 t-28.5 10q-31 0 -47.5 -25t-38.5 -103q-18 -66 -18 -105q0 -14 3 -16.5t18 -2.5q23 0 49 2t27 2q16 0 25 -5q2 0 6 -9t3 -11q-2 -11 -7 -14q-12 -7 -36 -7q-77 0 -86 -6q-16 -11 -21 -36q-3 -20 -36 -171q-46 -193 -46 -224q0 -30 -2 -46q-2 -19 -13 -32.5t-30 -13.5 q-16 0 -20.5 20.5t-2.5 38.5q3 24 14.5 68.5t14.5 58.5q52 241 65 326q2 15 -11 15q-9 0 -28 -1t-28 -1q-7 0 -17.5 9.5t-10.5 18.5q0 14 34 17.5t61 0.5q9 7 10 12q6 39 15.5 71.5t12.5 49.5zM155 534q15 80 43.5 121t63.5 41q3 0 10.5 2t11.5 2q6 0 45 -12q15 -4 32 -14 t20 -21q2 -6 0 -16.5t-9 -10.5l-21 6q-5 1 -26.5 11t-28.5 10q-31 0 -47.5 -25t-38.5 -103q-18 -66 -18 -105q0 -14 3 -16.5t18 -2.5q23 0 49 2t27 2q16 0 25 -5q2 0 6 -9t3 -11q-2 -11 -7 -14q-12 -7 -36 -7q-77 0 -86 -6q-16 -11 -21 -36q-3 -20 -36 -171 q-46 -193 -46 -224q0 -30 -2 -46q-2 -19 -13 -32.5t-30 -13.5q-16 0 -20.5 20.5t-2.5 38.5q3 24 14.5 68.5t14.5 58.5q52 241 65 326q2 15 -11 15q-9 0 -28 -1t-28 -1q-7 0 -17.5 9.5t-10.5 18.5q0 14 34 17.5t61 0.5q9 7 10 12q6 39 15.5 71.5t12.5 49.5z" />
<glyph unicode="&#xfb04;" horiz-adv-x="744" d="M746 617q0 -81 -27 -155q-1 -4 -4 -30q-4 -20 -15.5 -56.5t-14.5 -55.5q-2 -11 -12 -54q-58 -222 -58 -255q0 -4 3 -13t3 -12q0 -7 -9.5 -14.5t-16.5 -7.5q-9 0 -19 11t-10 20q0 5 -0.5 16.5t-0.5 16.5q0 12 2 34q2 18 16 92q16 69 33 124q5 20 13.5 59.5t12.5 55.5 q21 89 31 135q0 2 4.5 28t4.5 32q0 8 -2 24t-2 24q0 9 5 15.5t13 6.5q13 0 31.5 -14.5t18.5 -26.5zM417 534q15 80 43.5 121t63.5 41q3 0 10.5 2t11.5 2q6 0 45 -12q15 -4 32 -14t20 -21q2 -6 0 -16.5t-9 -10.5l-21 6q-5 1 -26.5 11t-28.5 10q-31 0 -47.5 -25t-38.5 -103 q-18 -66 -18 -105q0 -14 3 -16.5t18 -2.5q23 0 49 2t27 2q16 0 25 -5q2 0 6 -9t3 -11q-2 -11 -7 -14q-12 -7 -36 -7q-77 0 -86 -6q-16 -11 -21 -36q-3 -20 -36 -171q-46 -193 -46 -224q0 -30 -2 -46q-2 -19 -13 -32.5t-30 -13.5q-16 0 -20.5 20.5t-2.5 38.5q3 24 14.5 68.5 t14.5 58.5q52 241 65 326q2 15 -11 15q-9 0 -28 -1t-28 -1q-7 0 -17.5 9.5t-10.5 18.5q0 14 34 17.5t61 0.5q9 7 10 12q6 39 15.5 71.5t12.5 49.5zM155 534q15 80 43.5 121t63.5 41q3 0 10.5 2t11.5 2q6 0 45 -12q15 -4 32 -14t20 -21q2 -6 0 -16.5t-9 -10.5l-21 6 q-5 1 -26.5 11t-28.5 10q-31 0 -47.5 -25t-38.5 -103q-18 -66 -18 -105q0 -14 3 -16.5t18 -2.5q23 0 49 2t27 2q16 0 25 -5q2 0 6 -9t3 -11q-2 -11 -7 -14q-12 -7 -36 -7q-77 0 -86 -6q-16 -11 -21 -36q-3 -20 -36 -171q-46 -193 -46 -224q0 -30 -2 -46q-2 -19 -13 -32.5 t-30 -13.5q-16 0 -20.5 20.5t-2.5 38.5q3 24 14.5 68.5t14.5 58.5q52 241 65 326q2 15 -11 15q-9 0 -28 -1t-28 -1q-7 0 -17.5 9.5t-10.5 18.5q0 14 34 17.5t61 0.5q9 7 10 12q6 39 15.5 71.5t12.5 49.5z" />
</font>
</defs>
</svg>
