<?xml version="1.0" standalone="no"?>
<!DOCTYPE svg PUBLIC "-//W3C//DTD SVG 1.1//EN" "http://www.w3.org/Graphics/SVG/1.1/DTD/svg11.dtd" >
<svg xmlns="http://www.w3.org/2000/svg">
<metadata>
This is a custom SVG webfont generated by Font Squirrel.
Copyright   :   1997  Inspire Graphics Inc  All rights reserved
</metadata>
<defs>
<font id="ScrapCasualRegular" horiz-adv-x="1109" >
<font-face units-per-em="2048" ascent="1638" descent="-410" />
<missing-glyph horiz-adv-x="651" />
<glyph unicode=" "  horiz-adv-x="651" />
<glyph unicode="&#x09;" horiz-adv-x="651" />
<glyph unicode="&#xa0;" horiz-adv-x="651" />
<glyph unicode="!" horiz-adv-x="430" d="M144 478q0 248 74 805q0 229 89 230q19 0 63 -24q-42 -341 -117 -1017q-15 -151 -16 -154q-5 -14 -55 -14q-38 0 -38 174zM153 57q0 88 69 87q15 0 31 -6q84 -32 83 -99q0 -46 -53 -83h-30q-100 1 -100 101z" />
<glyph unicode="&#x22;" horiz-adv-x="692" d="M152 1381q-4 31 18.5 79t18.5 93q4 23 0 133q-4 22 -18 74q-11 37 -11 56q0 27 23 56.5t48 29.5q26 0 55 -38q34 -38 34 -73q0 -21 -16 -75q-9 -29 -9 -74q0 -30 4.5 -74.5t4.5 -51.5q0 -10 9 -51t9 -84q0 -49 -32 -62q-14 -5 -66 -4q-51 0 -72 66zM406 1450 q36 70 24 219q-1 16 -1 22q1 -7 3 -26q0 3 -2 21q-3 33 -15 71q-10 31 -9 58q0 22 17 52q20 35 49 35q102 11 102 -100q0 -33 -17 -68t-17 -61q0 -7 -4 -74q-3 -38 4 -68q2 -11 21 -52q16 -34 15 -58q0 -29 -19 -59q-30 -45 -64 -44q-15 0 -43 7q-46 12 -44 125z" />
<glyph unicode="#" horiz-adv-x="1037" d="M79 792q0 15 7 40q12 47 127 46q48 -27 161 -28l28 204q-38 -1 -83 -2q-41 -2 -42 -2q-10 0 -32.5 -9t-66.5 -9q-48 0 -60 33q-5 14 -5 66q0 51 65 72q32 4 55.5 -16.5t67.5 -20.5q59 0 115 -2q18 143 14 181q-32 67 -32 96q0 27 23.5 57.5t48.5 30.5t57 -38t32 -73 q0 -22 -15 -73q-5 -18 -26 -183h174q18 152 15 183q-8 83 -8 99q0 21 18 51q21 35 49 35q85 9 84 -99q0 -33 -24 -57.5t-24 -51.5q0 -20 -17 -155q115 27 116 28q27 0 56.5 -22.5t29.5 -48.5q0 -25 -36 -54.5t-44 -29.5q6 0 -57 18q-4 1 -37 -2q-36 -2 -42 -2l-25 -206 q30 1 74 4q34 4 56 16q18 10 43 10q22 0 51 -18q36 -21 36 -50q10 -102 -87 -102q-32 0 -52.5 17.5t-46.5 17.5q-55 0 -86 1q-13 -119 -7 -142q2 -12 20 -52q16 -35 16 -58q0 -30 -20 -59q-20 -31 -43 -31q-16 0 -64 31q-40 25 -40 58q0 34 40 67q25 48 21 188q-28 0 -91 1 t-94 1q-18 -166 -18 -190q0 -12 12.5 -31t12.5 -32q0 -11 -7 -23q-22 -44 -28 -51q-18 -20 -50 -19q-64 0 -93 70q9 39 35 65q19 20 16 65t11 146q-29 -1 -69 -5q-13 -2 -53 -20q-34 -16 -58 -16q-29 0 -58 20q-46 31 -46 65zM483 852q111 0 173 -2q5 84 24 208 q-114 0 -176 -2z" />
<glyph unicode="$" horiz-adv-x="1409" d="M98 1049q0 53 57 118q145 120 367 197q95 32 293 67q40 110 40 175q0 36 -18.5 54t-18.5 40q0 29 20 56.5t44 27.5q118 0 118 -71q0 -13 -4 -28q-10 -36 -35 -154q-21 -103 -22 -100q68 0 124 -7q133 -16 180 -60q45 -42 45 -86q0 -31 -23 -58q-5 0 -24.5 -7.5 t-34.5 -7.5q-23 0 -47 15q-31 19 -39 61q-7 37 -34 44q-48 13 -174 0l-75 -391q510 7 510 -163q0 -117 -106 -214q-77 -70 -183 -111q-170 -66 -329 -72q-15 -47 -52 -155q-4 -24 9 -59q13 -38 12 -49q0 -21 -21 -37q-26 -19 -66 -18q-90 0 -89 57q-2 14 -2 24q0 28 15 43 q23 24 31 39q19 41 36 155q-81 28 -148 56q-159 66 -218 116q-38 50 -38 84q0 21 13 42q23 37 61 37q27 0 49.5 -18t22.5 -40q0 -60 12 -77q15 -20 85 -49q39 -23 183 -59l75 354q-146 13 -256 31q-265 44 -309 108q-36 50 -36 90zM204 1053q0 -76 495 -119l92 391l-167 -36 l-187 -59q-141 -56 -226 -159q-7 -9 -7 -18zM752 466q194 0 306 80q155 110 155 180q0 18 -10 31q-45 66 -388 63z" />
<glyph unicode="%" horiz-adv-x="1546" d="M80 837q0 85 56 149q131 187 357 278q130 52 198 52q81 0 81 -63q0 -64 -118 -188q-109 -114 -213 -175q-165 -96 -296 -95q-65 0 -65 42zM203 132q0 18 5 32q15 44 53 63l45 17q61 52 270 304q185 223 245 306l250 305l92 118q75 97 76 123q1 89 87 89q44 0 74 -31 q21 -21 22 -48q0 -31 -26 -59t-48 -31.5t-85 -84.5l-142 -190q-59 -77 -353 -427q-322 -383 -352 -400q-25 -99 -28 -105q-26 -64 -82 -79q-13 -3 -24 -3q-37 0 -60 32q-19 30 -19 69zM227 926q0 -17 20 -16q27 0 89 25q67 27 105 58l131 99q86 70 80 103q-7 23 -35 23 q-26 0 -101 -34l-79 -40q-84 -54 -190 -173q-20 -28 -20 -45zM900 304q0 11 3 24q25 98 168 204q83 59 113 78q58 38 111 64q47 21 92 21q103 0 103 -90q0 -16 -4 -34q-14 -59 -168 -172q-144 -106 -211 -124q-81 -22 -131 -22q-76 -1 -76 51zM1026 355q0 -13 14 -13 q21 0 141 62q48 24 121 87q86 75 86 110q0 12 -12 11q-13 0 -48 -15q-51 -23 -57 -26q-50 -19 -182 -130q-63 -53 -63 -86z" />
<glyph unicode="&#x26;" horiz-adv-x="1153" d="M73 939q0 15 8 32q41 93 133 173.5t202 119.5q138 49 464 72q25 68 25 122q0 26 -7 45q-21 59 -21 106q0 60 35 93q20 19 45 18q31 0 54 -24t18 -58q-1 -20 -22 -135q-20 -108 0 -146l28 -46q16 -28 15 -47q0 -22 -21 -38q-45 -41 -87 -41q-17 0 -30 8q-54 28 -146 28 q-122 0 -292 -50q-64 -25 -157 -89q-107 -74 -107 -111q0 -21 37 -26q227 -33 300 -33q101 0 187 59q21 15 62 15q75 0 102 -41q8 -12 8 -23q0 -30 -54 -70q-35 -25 -54 -29q-53 -10 -64 -14q-166 -15 -292 -111q-110 -83 -110 -146q0 -28 31 -30q71 -5 225 45 q139 46 192 79q74 48 132 47q36 0 69 -16q80 -39 80 -92q0 -20 -13.5 -40.5t-25.5 -78.5q-14 -69 -41 -131q-47 -105 -47 -136q0 -10 4 -27t4 -25q0 -32 -28.5 -60t-66.5 -28q-14 0 -27 5q-64 22 -64 86q0 33 24 56q28 26 41 55l31 74q48 95 48 173q0 36 -20 36 q-22 0 -238.5 -63.5t-306.5 -63.5q-63 0 -105 33q-46 35 -46 97q0 76 63 130q90 77 191 154q-365 -5 -365 108z" />
<glyph unicode="'" horiz-adv-x="424" d="M136 1154q36 66 25 218q-1 20 -1 22q1 -7 3 -27l-2 23q-3 33 -16 70q-10 30 -9 57q0 21 17 51q21 35 49 35q47 6 74.5 -22t27.5 -76q0 -33 -17 -69t-17 -61q0 -7 -4 -73q-3 -38 4 -67q2 -11 21 -52q16 -33 15 -58q0 -30 -20 -60q-30 -45 -65 -45q-14 0 -41 7 q-46 12 -44 127z" />
<glyph unicode="(" horiz-adv-x="1167" d="M26 754q0 59 7 108q65 465 193 716q222 441 662 417q92 36 154 36q49 -53 48 -79q0 -43 -94 -72q-38 6 -79 6q-228 0 -405 -160q-233 -211 -301 -655l-29 -154q-19 -115 -18 -215q0 -230 96 -447q103 -350 435 -490q174 -73 347 -73q32 26 60 26q64 0 64 -83 q0 -77 -72 -77q-41 0 -98 34q-38 10 -138 13q-91 3 -163 26q-109 36 -246 133q-187 132 -311 445q-112 284 -112 545z" />
<glyph unicode=")" horiz-adv-x="1167" d="M-13 -379q0 84 65 84q28 0 59 -27q174 0 346 72q333 139 436 489q97 218 97 450q0 99 -19 213l-28 154q-68 444 -300 656q-177 160 -406 159q-41 0 -80 -5q-95 29 -95 72q0 25 49 79q62 0 154 -36q440 23 662 -418q128 -251 194 -716q7 -49 6 -108q0 -260 -112 -544 q-124 -313 -311 -445q-137 -97 -246 -131q-72 -24 -163 -28q-99 -3 -138 -12q-58 -34 -98 -34q-72 0 -72 76z" />
<glyph unicode="*" horiz-adv-x="865" d="M74 940q24 60 59 61q27 0 65 -26h172q-33 30 -133 92q-63 39 -63 71q0 23 24 55q28 15 46 14q23 0 54 -63q37 -73 108 -104q5 28 5 57q0 51 -18.5 111.5t-18.5 70.5q0 32 70 32q53 0 52 -40q0 -17 -16.5 -75.5t-16.5 -92.5q0 -35 14 -63q17 23 55 54q35 29 50 56 q18 60 55 60q25 0 46.5 -24.5t21.5 -50.5q0 -36 -46 -36q-45 -30 -129 -103q56 -12 68 -8q26 8 61 8q35 19 61 18q56 0 59 -74q0 -53 -50 -53q-24 0 -70 11q-18 20 -48 20q-9 0 -27 -2.5t-27 -2.5q-17 0 -27 6q53 -70 100 -110q12 5 21 5q37 0 38 -46q0 -61 -59 -61 q-8 -10 -20 -10q-25 0 -52 58q-32 36 -46 65q-8 17 -35 36q0 -5 -10 -24t-10 -43q0 -37 20 -97q19 -24 18 -42q0 -37 -56 -38q-73 0 -73 48q0 21 22 47q16 37 16 54q0 26 -16 95q-29 -25 -118 -88q0 -64 -43 -65q-24 0 -47 20t-23 42q0 37 67 44q75 49 94 71q24 29 37 39 q-108 0 -206 -41q-17 -4 -30 -4q-45 0 -45 66z" />
<glyph unicode="+" horiz-adv-x="1197" d="M121 1007q10 65 53 66q11 0 52.5 -7t73.5 -7q63 0 129 24q13 49 13 88q0 46 -18.5 88.5t-18.5 52.5q0 21 24 45q16 0 53 9q72 -46 72 -40t-8.5 -27.5t-8.5 -88.5q0 -62 11 -148q187 -9 234 -4q3 -3 41 10q44 14 67 14q49 0 47 -53q-4 -113 -82 -113q-40 0 -73 32 q-37 -10 -67 -10q-23 0 -58 8.5t-57 8.5q-23 0 -52 -7q-3 -43 4 -178q27 -62 27 -96q0 -47 -49 -47q-25 -10 -48 -10q-68 0 -68 76q0 33 16 70q5 36 11 38l2 -1q-1 7 -13 126q-58 31 -137 32q-21 0 -57.5 -2.5t-50.5 -2.5q-64 -1 -64 54z" />
<glyph unicode="," horiz-adv-x="367" d="M-15 -87q0 41 40 64l75 43q94 79 94 127q0 9 -3 17q-7 20 -49 47t-59 69q-10 22 -10 46q0 49 35 88q61 35 124 35t72 -47q5 -24 5 -67q0 -145 -28 -271q-11 -47 -104 -131q-97 -88 -150 -88q-27 0 -35 27q-7 23 -7 41z" />
<glyph unicode="-" horiz-adv-x="865" d="M45 656q0 54 80 62q31 3 71.5 -14t84.5 -14q114 -5 316 0q26 5 68 19q32 10 47 10q21 0 43 -17q37 -29 37 -70q0 -28 -19 -39q-50 -29 -84 -29q-24 0 -63 10q-29 9 -121 9q-63 0 -162 -4l-98 -5q-10 0 -43.5 -4t-76.5 -4q-80 -1 -80 90z" />
<glyph unicode="." horiz-adv-x="329" d="M86 219q0 88 69 88q15 0 30 -6q85 -33 85 -100q0 -45 -53 -82h-32q-99 0 -99 100z" />
<glyph unicode="/" horiz-adv-x="1081" d="M142 177q28 63 54 79l40 24q36 34 290 617q257 593 281 622q0 114 31 159q26 37 87 39q47 2 74 -19q32 -24 27 -74q-10 -109 -101 -160q-35 -20 -290 -628q-256 -616 -261 -621q-8 -8 -8 -36v-39q-4 -34 -28 -60q-57 -64 -91 -64q-36 0 -83 64q-43 59 -22 97z" />
<glyph unicode="0" horiz-adv-x="1645" d="M74 284q0 172 81 321q425 786 1031 940q61 16 123 15q246 0 260 -226q1 -21 1 -42q0 -276 -218 -584q-183 -258 -470 -478q-176 -111 -263 -151q-168 -79 -311 -79q-234 28 -234 284zM206 288q0 -148 147 -163q218 0 502 219q220 170 343 343q261 370 261 584 q0 98 -66 143q-56 37 -128 37q-177 0 -446 -224q-108 -91 -312 -304q-79 -83 -178 -269q-123 -227 -123 -366zM651 642q0 68 117.5 185.5t188.5 117.5q44 0 47 -57q5 -84 -108 -184q-100 -89 -167 -99q-15 -2 -27 -2q-51 0 -51 39z" />
<glyph unicode="1" horiz-adv-x="320" d="M58 101q0 29 42 144q13 126 13 305q0 160 -13.5 479t-13.5 442q43 79 77 79q63 0 63 -202q0 -77 -13 -120q-4 -147 12 -467q21 -407 24 -470q12 -82 11 -122q0 -151 -160 -151q-42 32 -42 83z" />
<glyph unicode="2" horiz-adv-x="1472" d="M76 1016q0 143 367 345q355 195 541 184q193 -12 193 -263q0 -97 -29 -220q-60 -171 -325 -467q-233 -261 -385 -370q223 110 527 201q283 85 529 123q41 -11 72.5 -40t31.5 -61q0 -40 -53 -70q-91 25 -146 26q-200 0 -1105 -348q-22 0 -46.5 -4.5t-29.5 -4.5 q-21 0 -43 39q0 98 44 134l75 49q244 178 436 408q216 254 312 505q5 33 4 60q0 153 -143 154q-181 0 -518 -214q-56 -71 -123 -134q-94 -87 -143 -86q-21 0 -34 17q-9 17 -9 37z" />
<glyph unicode="3" horiz-adv-x="1358" d="M62 1259q0 41 53 67t126 26q21 0 42 -2l482 117q24 7 93 38q54 23 85 23q65 0 119 -95q0 -197 -255 -359q21 1 94 5q59 4 96 4q245 0 298 -201q2 -28 2 -57q0 -335 -291 -572q-261 -215 -609 -245q-109 -10 -119 -10q-135 0 -135 99q0 26 10 60q28 33 80 33q76 0 200 -69 q195 18 390 149q190 128 286 298q103 183 45 331q-88 68 -237 68t-305 -63q-151 -61 -215 -145q-69 -74 -165 -74q-102 0 -102 86q0 8 1 17q51 46 74 55q20 8 94 14q166 98 336 216q291 204 291 278q0 10 -5 16q-147 0 -422 -94.5t-386 -94.5q-51 42 -51 81z" />
<glyph unicode="4" horiz-adv-x="1205" d="M104 880q0 29 29 45l127 56l316 218q210 150 297 250q0 29 28 70q32 46 67 46q12 0 23 -5q43 -37 52 -57q15 -31 14 -110q0 -41 -3 -118q-6 -123 17 -446q79 -31 79 -90q0 -49 -70 -54q0 -80 2 -255q3 -209 2 -257q26 -67 27 -102q0 -71 -120 -71q-68 0 -68 72 q0 31 17 54q0 16 12.5 164.5t12.5 233.5q0 151 -36 168q-451 52 -714 52q-43 8 -64 29l-43 53q-4 49 -4 54zM355 874q58 -3 287 -31q177 -21 287 -17q8 60 1 230q-7 173 -21 251q-18 -6 -166 -119l-265 -206z" />
<glyph unicode="5" horiz-adv-x="1614" d="M75 419q0 34 27 76q20 136 161 752q-2 19 -2 36q0 81 42 129q37 42 92 42q51 0 90 -37q371 7 713 128q110 0 110 -73q0 -56 -80 -100q-122 -4 -373 -44q-281 -45 -370 -52q-115 -47 -193 -334q-58 -215 -74 -447q36 9 275 179q292 206 456 301q276 160 423 160 q121 0 159 -106q9 -36 9 -73q0 -229 -349 -531l-539 -425q-19 -1 -34 -1q-89 0 -88 50q0 33 36 88q191 41 509 320q335 293 335 462q0 45 -29 74q-226 0 -528 -191q-167 -106 -453 -348q-78 -113 -215 -113q-110 0 -110 78z" />
<glyph unicode="6" horiz-adv-x="1436" d="M63 502q0 168 114 429q81 188 244 381l138 125q104 95 164 94q46 0 73 -51q15 -27 14 -49q0 -68 -119 -69q-20 0 -42 2q-147 -111 -294 -373q-159 -287 -159 -496q0 -153 96 -226q73 350 510 650q285 140 397 140q150 0 170 -171q3 -24 3 -49q0 -266 -307 -501 q-264 -200 -563 -260q-18 -77 -103 -77q-90 0 -90 72q0 8 2 16q-126 98 -181 183q-67 101 -67 230zM412 237q0 -49 49 -57q50 0 149 22q645 333 645 614q0 23 -5 46q-24 77 -104 77q-96 0 -258 -103q-123 -78 -237 -182l-136 -192q-103 -155 -103 -225z" />
<glyph unicode="7" horiz-adv-x="1419" d="M64 1204q0 51 35 86t85 35q29 0 60 -13q223 30 488 88q341 75 480 145q17 4 31 4q70 0 71 -87q0 -62 -31 -105q-45 -147 -129 -507l-128 -549q3 -164 -36 -247q-33 -70 -86 -71q-40 0 -70 37.5t-30 85.5q0 75 72 128q12 64 143 571q109 417 109 552q-140 0 -399 -73 q-294 -81 -389 -91q-24 -10 -99 -53q-52 -29 -90 -29q-29 0 -62 14q-25 38 -25 79z" />
<glyph unicode="8" horiz-adv-x="1444" d="M66 787q0 62 51 156q50 91 152 207l171 195q69 88 127 88q37 0 65 -41q77 46 202 94q153 59 232 60q30 0 48 -10q128 -94 127 -221q0 -135 -138 -289q-105 -118 -196 -164q204 51 253 51q108 0 190 -112q30 -41 30 -91q0 -138 -215 -321q-187 -161 -439 -281.5 t-365 -104.5q-173 23 -173 139q0 187 420 576q-247 -56 -344 -56q-198 0 -198 125zM216 854q0 -53 76 -63q20 -3 43 -3q195 0 472 164q91 37 197 147q122 127 121 224q0 47 -30 82q-34 22 -91 23q-90 0 -199 -47q-105 -46 -148 -98q-21 -18 -59 -19q-41 -2 -61 -14 l-178 -173q-143 -151 -143 -223zM333 178q0 -57 71 -70q210 47 424 172t354 286q38 66 61 90q0 123 -118 123q-151 0 -505 -215q-64 -50 -159 -158q-128 -149 -128 -228z" />
<glyph unicode="9" horiz-adv-x="1353" d="M60 882q0 107 72 240q63 119 138 183q112 97 287 166q155 61 259 66q123 6 152 6q120 0 186 -38q80 -47 138 -174q-23 -249 -257 -607q-56 -86 -403 -549q-33 -92 -65 -127q-43 -48 -120 -48q-56 13 -56 52q0 36 47 89q37 43 74 68q4 6 303 401q221 292 274 417 q-78 -101 -325 -220q-271 -130 -462 -129q-73 0 -124 21q-118 49 -118 183zM190 926q0 -107 116 -119q210 0 427 100q212 97 356 252q58 62 58 119q0 60 -64 106q-56 39 -135 53q-398 0 -637 -251q-121 -127 -121 -260z" />
<glyph unicode=":" horiz-adv-x="367" d="M47 340q0 62 78 126q25 10 54 10q59 0 103 -33q48 -35 48 -88q0 -157 -115 -157q-65 0 -116.5 45t-51.5 97zM47 931q0 62 78 127q24 10 53 10q59 0 104 -33q48 -36 48 -89q0 -156 -115 -156q-65 0 -116.5 44.5t-51.5 96.5z" />
<glyph unicode=";" horiz-adv-x="367" d="M-15 -87q0 41 40 64l75 43q94 79 94 127q0 9 -3 17q-7 20 -49 47t-59 69q-10 22 -10 46q0 49 35 88q29 34 79 34q69 0 130 -80q30 -40 30 -102q0 -109 -66 -202q-39 -56 -115 -127q-97 -91 -143 -91q-23 0 -31 26q-7 23 -7 41zM61 816q0 61 77 127q25 10 55 10 q59 0 103 -33q48 -36 48 -89q0 -157 -115 -157q-66 0 -117 45t-51 97z" />
<glyph unicode="&#x3c;" d="M56 1087q0 32 39 52q121 32 370 160q203 104 350 196q29 68 90 68q75 0 90 -88q-24 -49 -78.5 -63t-109.5 -25q-184 -129 -516 -305q143 -145 632 -538q66 6 107 -32q35 -33 35 -78q0 -62 -58 -62q-79 0 -200 146l-655 472q-32 7 -64 37t-32 60z" />
<glyph unicode="=" horiz-adv-x="1081" d="M111 1059q0 51 66 72q32 4 79.5 -18.5t90.5 -18.5q151 -7 388 0q27 4 75 18q39 11 57 10q26 0 54 -22t28 -48q0 -25 -37.5 -56t-72.5 -31q-21 0 -74 14q-29 8 -140 8q-76 0 -196 -4t-118 -4q-10 0 -50.5 -9.5t-83.5 -9.5q-49 0 -61 33q-5 12 -5 66zM113 791q0 15 8 41 q9 47 126 46q59 -32 146 -26q137 -4 342 0q33 3 70 16q31 10 58 10q22 0 52 -18q35 -21 35 -50q5 -47 -23.5 -74.5t-76.5 -27.5q-32 0 -68 17.5t-61 17.5q-10 0 -116 2.5t-166 2.5q-90 0 -111 -5q-11 -2 -52 -21q-34 -16 -59 -16q-30 0 -59 21q-45 31 -45 64z" />
<glyph unicode="&#x3e;" d="M46 477q0 46 35 79q41 38 107 32q505 407 632 537q-331 174 -518 306q-55 12 -108.5 25t-77.5 61q15 90 89 90q61 0 91 -68q142 -90 349 -196q249 -128 369 -161q40 -20 40 -52q0 -30 -31.5 -60t-63.5 -38q-99 -62 -318 -224l-339 -247q-121 -145 -200 -146q-56 1 -56 62 z" />
<glyph unicode="?" horiz-adv-x="954" d="M24 1578q0 70 74 108q33 12 126 50q16 1 133 39q113 38 196 38q100 0 184 -50q77 -46 132 -174q52 -122 52 -242q0 -174 -132 -303q-78 -77 -171 -115q-50 -20 -137 -36q-83 -15 -110 -27q-47 -22 -55 -75q-4 -27 23 -168l35 -176q11 -39 11 -59q0 -39 -47 -56 q-18 -7 -36 -7q-35 0 -60 23t-25 59q0 20 7 40q31 83 20 157q0 95 -55 187q-25 43 -25 76t25 62q41 34 60 40t89 6q36 0 38 1l136 36q107 27 180 88q109 91 110 232q0 39 -9 82q-24 123 -57 183q-25 48 -59 67l-59 22q-36 12 -82 12q-87 0 -205 -43q-111 -40 -107 -41 q15 -95 -34.5 -119t-73.5 -24q-25 0 -69 50q-23 26 -23 57zM193 74q0 73 51 99q123 0 123 -84q0 -48 -51 -80h-47q-76 0 -76 65z" />
<glyph unicode="@" horiz-adv-x="1275" d="M-7 794q0 87 53 209.5t126 205.5q238 272 646 307q24 2 49 2q209 0 350 -139q138 -137 139 -332q0 -44 -8 -88q-39 -209 -185 -373q-113 -127 -232 -176q-98 -41 -164 -41q-70 0 -91 41q-214 -99 -347 -100q-127 0 -141 100q-6 42 -6 80q0 106 49 193q21 39 104 140 q133 164 293 164q24 0 48 -5q74 -15 119 -54t45 -86q0 -9 -2 -19q-59 -289 -59 -316q0 -16 28 -15q84 0 202 92q149 116 203 294q31 101 31 188q0 252 -229 320q-77 23 -177 23q-282 0 -467 -142q-117 -90 -194.5 -210t-77.5 -210q0 -19 7 -44t7 -36q0 -44 -48 -54l-55 14 q-16 24 -16 67zM289 510q0 -44 15 -72q14 -24 50 -24t165 51q125 50 157 114q37 73 37 217q0 29 -31 49t-73 20q-27 0 -54 -9q-59 -20 -130.5 -90t-120.5 -156q-15 -52 -15 -100z" />
<glyph unicode="A" horiz-adv-x="1263" d="M15 100q0 27 14 46q24 30 49 104q42 123 94 379q70 163 161.5 445t91.5 335q-10 35 -10 64q0 94 90 93q45 0 66 -24q27 -31 49 -83q38 -91 67 -145q33 -65 110 -258q57 -143 110 -212q51 6 213 46q123 30 263 31q-120 -76 -274 -129q-139 -48 -169 -71q40 -72 151 -335 q100 -238 135 -286q20 -37 20 -64q0 -63 -98 -63q-8 -2 -17 -2q-75 0 -75 117q0 21 3 46q-33 65 -113 283q-76 209 -109 270q-70 0 -273 -70q-159 -55 -262 -99q-3 -10 -108 -329q10 -36 10 -66q0 -115 -98 -115q-37 0 -64 24.5t-27 67.5zM349 687q41 0 206 49l218 65 q-47 75 -127 272.5t-108 240.5q-5 3 -32 -110.5t-34 -113.5q-40 -114 -68 -226q-26 -101 -55 -177z" />
<glyph unicode="B" horiz-adv-x="1576" d="M8 1301q0 111 62 111q49 0 119 -61q72 31 228 54q165 25 320 26q328 0 384 -112q16 -42 15 -83q0 -111 -114 -229l-154 -144q351 50 473 50q114 0 196 -20q20 -25 32 -47q0 -199 -179 -349q-60 -50 -334 -203l-403 -177q-282 -115 -419 -115q-99 99 -115 374 q-62 99 -62 140q0 20 23 61q30 52 46 105q-36 372 -118 619zM189 1171q0 -101 27 -272q31 -199 65 -212q25 0 241 98q150 69 288 191q158 138 158 235q0 75 -103 109q-162 4 -186 4q-352 0 -490 -153zM230 437q0 -79 26 -164q31 -98 76 -124q25 0 49.5 -2t28.5 -2 q22 0 267 110q205 71 427 197q310 177 310 302q0 45 -126 45q-215 0 -564 -101q-369 -106 -490 -218q-4 -16 -4 -43z" />
<glyph unicode="C" horiz-adv-x="1438" d="M19 335q0 178 73 358q95 232 257 427q170 204 376 317q63 26 122 26q130 0 129 -133q0 -76 -222 -76q-177 -63 -337 -258q-134 -164 -219 -369q-51 -164 -51 -281q0 -222 180 -222q42 0 92 13q405 99 517 151q163 76 403 306q0 51 27 98q32 57 80 57q33 0 33 -66 q0 -50 -21 -56q-73 -132 -88 -150q-72 -90 -240 -188q-234 -138 -390 -197q-217 -84 -436 -90h-12q-273 -1 -273 333z" />
<glyph unicode="D" horiz-adv-x="1649" d="M40 1308q0 40 20 71t46 32q59 2 264 19q185 15 306 14q461 0 782 -205q88 -57 122 -122q28 -55 28 -141q-29 -244 -352 -466q-145 -100 -493 -265q-210 -98 -312 -131l-82 -19q-15 -4 -77 -57q-54 -18 -91 -18q-98 0 -99 127q0 16 1.5 42.5t1.5 35.5l1 976 q-66 32 -66 107zM238 930q0 -110 15 -311q13 -178 12 -235v-8q1 -13 -2 -33q-3 -23 -3 -32q0 -33 32 -61h124q361 122 668 321q364 236 364 421q0 93 -97 164q-285 171 -665 170q-225 0 -394 -72q-54 -92 -54 -324z" />
<glyph unicode="E" horiz-adv-x="1645" d="M42 1183q0 55 98 98q91 41 181 41q118 29 423 67q321 40 467 40q137 15 141 14q121 0 139 -121q0 -59 -57 -58q-57 0 -116 58q-228 0 -533 -42q-392 -53 -457 -135q0 -83 17.5 -251.5t17.5 -267.5q77 16 508 140q437 126 515 155q5 0 30.5 8.5t49.5 8.5q41 0 88 -26 q28 -34 28 -58q0 -40 -107 -69l-306 -66q-249 -56 -471 -135q-130 -46 -298 -131q0 -21 -9.5 -88.5t-9.5 -102.5q0 -87 48 -109q627 148 1029 199q164 50 191 50q31 0 103 -41q1 -6 0 -12q0 -122 -307 -122l-501 -80q-306 -52 -470 -145h-166q-80 49 -80 136q0 24 8.5 75 t8.5 77q0 35 -12 62q-114 59 -114 114q0 59 114 100q0 89 -26 276q-30 215 -61 240q-104 47 -104 101z" />
<glyph unicode="F" horiz-adv-x="1492" d="M38 768q16 28 53 28q8 0 24 -1t24 -1q31 0 52 13q0 -4 0 -3q1 0 7 167q1 32 1 58q0 70 -8 92q-85 59 -85 113q0 48 66 76q57 25 140 25q11 0 23 -1l679 63q84 24 160 31q87 3 173 7q28 10 51 9q79 0 79 -86q0 -45 -24.5 -82t-61.5 -37q-42 0 -84 50q-156 0 -544 -37 q-427 -41 -428 -71q0 -88 -5.5 -123t-5.5 -51q0 -42 11 -181q59 0 196 19q133 19 187 33q148 40 398 68q236 27 403 27q36 -36 37 -64q0 -60 -170 -76q-99 -4 -199 -7q-436 -31 -852 -185q-14 -169 -13 -270q0 -110 16 -154q11 -25 39 -40t39 -43q0 -88 -39 -114 q-28 -19 -122 -18q-55 26 -55 166q0 50 9 160t9 158q0 91 -24 126q-101 6 -128.5 33.5t-27.5 122.5z" />
<glyph unicode="G" horiz-adv-x="1805" d="M20 430q0 213 133 463q111 208 315 396q170 157 291 157q76 0 133 -62q26 -59 27 -65q0 -19 -18 -39q-61 -33 -162 -45q-106 -13 -173 -45q-144 -124 -262 -311q-140 -226 -140 -408q0 -163 119 -265q142 -65 278 -66q146 0 318 81q70 33 322 181q53 30 88.5 121 t35.5 186q0 114 -54 169q-27 5 -65 5q-57 0 -207 -19.5t-228 -19.5q-65 -29 -103 -30q-64 0 -102 85q0 123 82 123q3 0 109 -13q77 -30 178 -30q109 0 305 44q225 51 297 59l132 31q124 27 192 27q93 0 93 -51q0 -29 -31 -75q-32 -25 -59 -25q-22 0 -65 20q-84 0 -184 -21 q-134 -28 -187 -79q40 -101 40 -199q0 -159 -101 -297q-85 -117 -217 -194q-304 -223 -592 -223q-69 0 -140 13q-398 71 -398 421z" />
<glyph unicode="H" horiz-adv-x="1616" d="M29 1265q0 38 24.5 64t57.5 26q66 0 100 -93l11 -392q9 -270 39 -371q56 31 376 64q384 38 517 67q12 6 11 59q0 84 -38 365q-33 247 -33 298v7q39 89 80 88q28 0 47 -38.5t19 -86.5q0 -35 -11 -60q11 -53 40 -304q27 -231 49 -309q20 -3 44 -3q38 0 108.5 10.5 t99.5 10.5q60 0 92 -32q0 -31 7 -45q-32 -32 -333 -68q-16 -15 -16 -55q0 -43 23 -142q22 -106 24 -137q-6 -62 -43 -82q-27 -15 -95 -14q-20 59 -21 89q0 20 17.5 47.5t17.5 64.5q0 65 -44 206q-624 -74 -938 -157q-12 -26 -11 -62q0 -28 10 -87t10 -85q0 -90 -100 -105 q-43 8 -55 28q-4 6 -16 58q17 180 17 384q0 366 -50 700q-37 46 -37 92z" />
<glyph unicode="I" horiz-adv-x="1993" d="M97 1167q0 27 19 56q0 90 311 121l389 22v7q0 35 35 62q36 25 83 25q73 0 75 -62q71 -14 146 -13q72 0 226.5 21t254.5 21q78 0 158 -10q32 -11 111 -51q0 -46 5 -72q-22 -21 -78 -21q-36 0 -104 10.5t-87 10.5q-137 0 -312 -20q-248 -28 -302 -33q-29 -67 -29 -233 q0 -138 22 -380q24 -264 25 -294q2 -8 2 -14q0 -13 -6 -22t-6 -10q0 -6 24 -19q74 21 286 57q350 59 364 62q101 19 176 19q136 0 136 -63q0 -34 -50 -46l-77 -12q-176 -14 -311 -43q-174 -38 -299 -55q-76 -22 -134 -23q-46 0 -100 -25q1 -6 1 -12q0 -35 -19 -59 q-22 -29 -54 -29q-52 0 -85 68q-27 0 -150 -12.5t-204 -12.5q-123 0 -211 25q-54 40 -54 68q0 20 29 38l58 36q40 -1 85 -26t107 -25q107 0 340 57q0 173 -15 493q-21 451 -55 474q-62 10 -140 10q-223 0 -391 -63q-16 -85 -97 -85q-39 0 -68.5 23.5t-29.5 58.5z" />
<glyph unicode="J" horiz-adv-x="1904" d="M44 774q0 67 27 112q30 50 80 50q31 0 67 -20q77 -58 93 -76q36 -43 36 -111q187 -258 871 -552q120 -52 214 -52q322 0 321 559q0 225 -53 475l-80 42q-51 35 -51 118q0 48 26 89q27 45 67 45q19 0 38 -12q92 -58 138 -325q37 -214 37 -487q0 -177 -14 -261 q-30 -172 -155 -273q-113 -93 -251 -93q-35 0 -68 7q-401 27 -1140 606l-132 63q-71 40 -71 96z" />
<glyph unicode="K" horiz-adv-x="1552" d="M36 1375q0 33 24 54.5t56 21.5q62 0 93 -67q0 -484 -2 -484q-1 0 -1 102q2 -219 27 -387q31 -10 66 -9q167 0 411 215q190 168 316 352q17 121 86 121q36 0 67 -33.5t31 -70.5q0 -33 -28 -53l-194 -208q-110 -113 -398 -314q22 -18 160 -23q134 -7 142 -18q177 0 341 -24 q201 -30 344 -38q66 -41 66 -75q0 -35 -74 -54q-35 4 -555 72q-264 35 -528 36q-95 -68 -96 -69q-52 -32 -109 -39q-7 -15 -7 -44q0 -22 6.5 -86.5t6.5 -99.5q0 -151 -115 -151q-75 0 -75 73q0 55 39 114q1 46 1 97q-1 487 -101 1089z" />
<glyph unicode="L" horiz-adv-x="1289" d="M58 1214q0 166 95 166q46 0 94 -43q23 -46 23 -118q0 -20 -3 -99.5t-3 -146.5q0 -59 2 -123q5 -141 39 -345q29 -181 59 -280l357 41q241 29 391 76q105 33 155 33q57 0 108 -33q-22 -58 -173 -98q-80 -21 -288 -55q-329 -53 -501 -116q-121 -45 -205 -45t-84 99 q0 66 38 66q17 30 16 143q0 200 -41 505t-79 373z" />
<glyph unicode="M" horiz-adv-x="2323" d="M33 117q0 72 30 107q23 359 56 1035q-2 14 -2 27q0 52 33 82q29 27 73 28q42 0 72 -27q33 -30 33 -81q0 -14 -3 -29q21 -21 121 -177q95 -147 283 -377q229 -276 309 -299l271 335q168 208 277 322q94 74 386 378q32 13 61 13q98 0 98 -97q0 -47 -32 -98l72 -647 q48 -421 102 -421q22 -74 23 -112q0 -47 -38 -59q-26 -9 -115 -9q-50 29 -50 65q0 2 4 55q3 31 2 62v31q-6 145 -32 411l-43 410q-8 16 -20 100.5t-18 93.5q-102 -48 -461.5 -447.5t-396.5 -505.5q0 -88 -91 -88q-46 0 -46 26l-735 858q-20 -44 -41 -265q-21 -227 -22 -408 q0 -188 26 -227q0 -90 -12 -121q-20 -51 -88 -50q-86 0 -86 106z" />
<glyph unicode="N" horiz-adv-x="1499" d="M30 167q0 43 16 91q20 60 30 138q17 132 17 377q0 158 -7 364q-42 52 -42 93q0 71 95 71q33 0 69 -12q38 -39 466 -352q454 -332 621 -482q9 9 9 114q0 162 -20 550q-19 373 -20 373v-1q-18 0 -38 31.5t-20 64.5q0 79 116 79q70 -24 83 -47q6 -10 6 -66 q-21 -116 -21 -367q0 -249 19 -546q18 -276 38 -393q35 -103 35 -111q0 -23 -35 -61q-61 -64 -76 -64q-20 0 -49 28.5t-29 106.5q0 88 -29 137q-38 89 -486 436q-456 354 -555 354q-11 0 -15 -6q-5 -111 -5.5 -331.5t5.5 -550.5q6 -49 6 -77q0 -106 -109 -106q-12 13 -35 36 t-34 37q-6 58 -6 92z" />
<glyph unicode="O" horiz-adv-x="2108" d="M33 331q0 161 104 334l170 214q107 115 320 243q58 35 126 36q31 0 76 -9t56 -9q113 62 295 106q200 49 381 49q343 0 466 -173q57 -80 56 -167q0 -258 -423 -514q-577 -349 -1084 -428q-81 -13 -151 -13q-198 0 -299 96q-93 87 -93 235zM177 325q0 -98 68 -149t221 -70 q135 0 447 113q335 122 604 283q321 190 413 363q15 38 15 73q0 134 -243 244q-60 4 -121 4q-575 0 -993 -384q-91 -61 -116 -62q-20 0 -39 26q-46 0 -114 -84q-17 -20 -90 -128q-52 -144 -52 -229z" />
<glyph unicode="P" horiz-adv-x="1504" d="M26 563q0 36 20 75t39 44q4 38 4 87q0 60 -8.5 200t-8.5 209q0 101 13 170q0 75 54 75q29 0 54.5 -25t25.5 -60q0 -18 -6 -35q291 146 758 146q233 0 368 -47q210 -98 210 -210q0 -149 -373 -329q-235 -112 -776 -248q-118 -29 -158 -91q-32 -51 -32 -167 q0 -22 1.5 -82.5t1.5 -97.5q20 0 39.5 -28.5t19.5 -60.5q0 -55 -59 -77q-135 0 -135 80q0 13 3.5 41.5t3.5 44.5q0 24 6 106t6 125q0 66 -12 94q-59 1 -59 61zM213 1190q1 -42 9 -280q7 -188 7 -239q370 93 714 239q145 43 286 113q194 97 194 169q0 20 -14 36 q-23 50 -163 82q-136 31 -313 31q-208 0 -366 -44q-183 -50 -246 -143q-20 -15 -43 -15q-40 0 -65 51z" />
<glyph unicode="Q" horiz-adv-x="2254" d="M43 274q0 43 10 96q65 125 138 209t211 194q290 326 760 494q230 82 516 82q177 0 307 -35q258 -71 258 -257q0 -83 -56 -184q-90 -112 -230 -207q-89 -59 -229 -130q-124 -61 -145 -79l187 -252q37 -44 91 -44q20 0 35.5 -21.5t15.5 -46.5q0 -62 -88 -63 q-106 15 -186 146l-157 264q-224 -138 -523 -244q-374 -133 -662 -133q-253 0 -253 211zM188 299q0 -121 141 -121h20q255 14 577 124q320 108 487 235q0 41 -43.5 110.5t-43.5 98.5q0 40 51 72q12 6 21 6q36 0 71 -78l62 -164q90 0 301 139q225 147 264 260q12 34 11 63 q0 190 -493 191q-407 0 -802 -254q-135 -109 -174 -172q-22 -37 -23 -91q-23 -63 -42 -84q-25 -29 -76 -29q-36 0 -95 13q-81 -37 -147.5 -136t-66.5 -183z" />
<glyph unicode="R" horiz-adv-x="1747" d="M59 1341q0 79 108 79q60 -40 202 -40q52 0 144 6.5t122 6.5q141 14 280 13q432 0 514 -128q27 -43 27 -93q0 -129 -162 -275q-142 -128 -268 -164h17q143 0 411 -92q257 -89 363 -161q21 -32 21 -61q0 -72 -84 -72q-39 0 -71 25q-217 118 -334 164q-167 64 -312 64 q-266 0 -612 -228h-90q-15 -28 -14 -81q0 -44 12 -129q14 -96 13 -119q0 -54 -80 -54q-99 0 -99 91q0 17 5 35q39 156 39 355q0 272 -85 718q-67 71 -67 140zM253 1259q0 -85 25 -358t41 -357l140 42q142 49 221 109q287 79 598 381q44 64 43 105q0 61 -111 77l-184 18 q-55 4 -104 4q-67 0 -174.5 -11.5t-182.5 -11.5q-26 0 -55 1l-118 8q-23 1 -44 1q-57 0 -95 -8z" />
<glyph unicode="S" horiz-adv-x="2009" d="M42 997q0 110 106 210q80 76 230 153l219 105q224 77 521 107q131 0 153 -9q11 -5 68 -68q18 -20 18 -38q0 -20 -24 -42q-31 -30 -32 -32q-68 0 -86 12q-52 36 -65 42q-56 19 -128 18q-252 0 -560 -178q-301 -176 -301 -308q0 -67 104 -94t365 -56q273 -30 434 -30 q30 0 54 1q237 13 280 13q531 0 581 -257q2 -9 2 -17q0 -119 -290 -238q-219 -90 -426 -124l-297 -57q-152 -31 -231 -108q-196 0 -196 73q0 24 23 56q30 56 91 55q36 0 82 -19q69 0 339 62q308 71 514 149q266 100 266 180q0 13 -7 24q-117 102 -363 103q-91 0 -276 -4 t-278 -4q-491 0 -796 102q-94 114 -94 218z" />
<glyph unicode="T" horiz-adv-x="1095" d="M-167 1452q0 36 44 67t108 31q28 0 193.5 19t261.5 19q73 0 124 -10q184 0 265 8q133 12 266 17q28 10 54 10q50 0 80 -34q28 -30 28 -72q0 -21 -9 -40q-44 -59 -94 -60q-32 0 -59 26q-34 20 -106 20q-55 0 -208 -18q-161 -19 -251 -21q-33 -76 -49 -292l-16 -337 q-16 -292 -15 -592q26 -35 26 -77q0 -85 -98 -105q-104 16 -104 59q0 15 9 50q13 46 16 73q19 56 36 376q15 306 14 570q0 232 -14 269q-58 20 -135 21q-72 0 -256 -36q-111 0 -111 59z" />
<glyph unicode="U" horiz-adv-x="1623" d="M21 440q0 133 34 453t34 452q0 96 81 95q36 0 61 -25q29 -28 29 -73q0 -26 -10 -56q-22 -63 -49 -277q-30 -241 -30 -431q0 -300 79 -334q36 -12 75 -12q206 0 527 322l339 403q212 274 211 402q0 12 -2 22q28 68 93 68q47 0 88 -35.5t41 -77.5q0 -27 -20 -50 q-50 -57 -49 -385q0 -406 49 -729q22 -24 23 -64q0 -40 -23.5 -71t-62.5 -31q-67 0 -84 80q0 742 1 741l1 -243q-1 315 -19 470q-198 -276 -440 -526q-442 -456 -715 -457q-126 0 -211 101q-51 74 -51 268z" />
<glyph unicode="V" horiz-adv-x="1499" d="M28 1308q0 54 46 75q18 0 41 3.5t31 3.5q43 0 99 -112q500 -1015 595 -1075l194 483q182 422 323 592q9 11 54 105q22 48 83 48q87 0 87 -75q0 -55 -51 -78q-56 0 -265 -400q-207 -396 -274 -623l-48 -195q-13 -50 -48 -55q-82 -1 -164 -3q-45 178 -317 680.5t-280 537.5 q-106 0 -106 88z" />
<glyph unicode="W" horiz-adv-x="2220" d="M23 1346q0 49 83 83q12 2 23 2q93 0 92 -112q0 -60 -24 -108l121 -498q87 -344 167 -492q29 61 136 369q111 317 128 355q56 172 230 354q141 148 252 148q57 0 105 -39q69 -98 88 -170l77 -352l76 -371q72 -312 132 -312q61 137 183 542t180 536q0 127 60 127 q82 0 101 -27q15 -20 15 -100q-146 -195 -280 -600q-101 -308 -142 -544q0 -93 -16 -113q-18 -22 -101 -22q-32 0 -104 81q-94 106 -169 429q-20 81 -105 536q-49 263 -84 264q-12 2 -24 2q-184 0 -409 -517q-84 -193 -262 -733q-29 -63 -27 -63q3 0 -20 5t-55 5 q-39 0 -55 17q-27 31 -27 127l-149 547q-111 404 -155 509q-5 24 -24 74q-17 41 -17 61z" />
<glyph unicode="X" horiz-adv-x="1538" d="M21 68q0 46 38 98q58 52 146 157q81 94 147 148q256 282 356 375q0 45 -124 149l-155 123q-91 12 -118 22q-36 15 -36 46q0 29 31 100q30 11 54 11q36 0 68 -28q14 -12 64 -70q68 -39 301 -262l174 170q111 109 153 179q0 110 86 111q62 0 88 -46q10 -11 10 -25 q0 -31 -122 -147q-180 -174 -308 -333q67 -63 272 -301q173 -198 285 -285q89 -32 88 -105q0 -37 -25 -64.5t-61 -27.5q-42 0 -82 39q-9 34 -17 70q-20 45 -111 125q-10 9 -223 230q-166 172 -226 198q-308 -274 -559 -559q0 -70 -16 -102q-26 -54 -105 -53q-73 -1 -73 57z " />
<glyph unicode="Y" horiz-adv-x="1277" d="M30 1376q0 47 48 80q31 13 55 13q71 0 120 -135q50 -33 204 -254q199 -286 215 -306q113 113 267 314l170 227q0 130 76 129q28 0 49.5 -21t21.5 -51q2 -6 2 -13q0 -67 -217 -332q-253 -304 -286 -368q10 -17 10 -38q0 -78 -69 -78q-20 0 -42 11q-227 -272 -280 -418 q-16 -120 -90 -120q-39 0 -73 34t-34 74q0 59 76 84l302 451q0 46 -183 321q-177 266 -214 295q-56 0 -92 30t-36 71z" />
<glyph unicode="Z" horiz-adv-x="1774" d="M100 194q0 44 59 57q44 11 171 10q245 164 484 403q216 215 364 426q111 158 111 169q-29 11 -105 11q-106 0 -400 -28t-376 -28q-2 1 -28 1t-74 -1h-6q-68 0 -87 45q0 120 66 120q26 0 73 -21.5t56 -21.5q132 19 469 32q428 18 480 22q49 27 86 27q70 0 71 -65 q0 -29 -20 -54l-119 -172q-182 -256 -328 -428q-302 -358 -507 -449q179 55 489 54q451 0 746 -84q92 -26 92 -81q0 -58 -129 -57l-123 38q-47 15 -204 23q-177 10 -351 10q-338 0 -575 -36q-30 -8 -130 -44q-75 -27 -115 -27q-70 0 -115 71q-25 50 -25 78z" />
<glyph unicode="[" d="M140 -146q0 20 6 51q11 53 45 87q12 36 65 967q17 298 16 350q0 71 -7 91q-28 80 -28 103q0 53 46 99q38 39 74 39q21 0 41.5 -12.5t39.5 -25.5q21 -9 88 -6q115 5 103 5q171 0 245 28q26 10 62 9q73 0 73 -37q0 -42 -30 -76q-34 -40 -91 -40q-41 0 -187.5 -9.5 t-160.5 -9.5q-67 0 -78 -3q-50 -11 -51 -62q-7 -176 -73 -1164q-17 -250 -16 -246q0 -37 4 -42q7 -8 48 -8q300 0 383 20q43 10 104 10q155 0 155 -65q0 -14 -7 -28q-25 -56 -105 -56q-38 0 -103 15q-60 14 -72 13q-142 -7 -330 -28q-2 0 -56 -33q-39 -23 -105 -23 q-98 0 -98 87z" />
<glyph unicode="\" horiz-adv-x="1081" d="M74 1624q-5 50 26 75q28 22 75 18q60 0 86 -38q32 -46 33 -160q22 -28 279 -622q253 -583 290 -617l40 -24q25 -17 54 -79q6 -11 6 -27q0 -33 -28 -70q-48 -64 -84 -64q-33 0 -90 64q-27 30 -28 65q1 54 -1 60t-6 10t-262 621q-255 609 -289 628q-90 51 -101 160z" />
<glyph unicode="]" d="M94 1552q0 13 6 26q23 50 95 50q43 0 118 -20q69 -19 81 -16q142 7 333 27q4 1 55 38q40 28 106 28q116 0 116 -89q0 -16 -3 -32q-12 -55 -41 -120q-20 -60 -72 -951q-5 -92 -3 -241q2 -175 14 -210q30 -86 30 -105q0 -50 -41 -98q-20 -24 -65 -24q-54 0 -96 23 q-21 9 -89 6q-114 -5 -103 -5q-169 0 -244 -27q-26 -10 -62 -10q-74 0 -74 37q0 43 29 77q35 39 91 39q42 0 188.5 10t160.5 10q64 0 79 4q50 13 52 63l47 1157v250q0 60 -16 61q-11 0 -31 -10q-29 -15 -161 -16q-87 0 -173 1q-35 -1 -53 -5q-31 -9 -83 -8q-191 0 -191 80z " />
<glyph unicode="^" horiz-adv-x="981" d="M72 1162q0 52 65 79q60 94 148 175l145 126q49 46 89 46q30 0 80 -46q102 -122 279 -314q37 -40 37 -75q0 -62 -73 -63q-72 0 -73 76q0 16 4 35q-129 162 -257 257q-46 0 -158.5 -103.5t-112.5 -153.5q4 -16 4 -31q0 -78 -87 -78q-90 1 -90 70z" />
<glyph unicode="_" horiz-adv-x="1171" d="M0 -85h1171v-106h-1171v106z" />
<glyph unicode="`" horiz-adv-x="418" d="M28 1459q0 88 70 88q14 0 30 -6q50 -19 136 -182q92 -172 92 -270q0 -46 -24 -62q-6 0 -103 166t-101 166q-100 0 -100 100z" />
<glyph unicode="a" horiz-adv-x="1090" d="M33 124q0 39 23 105q211 367 787 699q25 15 51 15q75 0 75 -85q0 -13 -2 -26q0 -35 -6.5 -115t-6.5 -122q0 -60 11 -109q0 -274 22 -320q47 -76 47 -89q0 -27 -38 -52q-47 -20 -78 -19q-65 0 -66 110q0 12 1 34v35q0 42 -6 64l4 87q3 68 4 113q0 11 -1 21q-1 69 -11 74 q-125 -212 -301 -354q-198 -160 -414 -192q-95 41 -95 126zM149 165q0 -43 60 -49q59 0 222 131q167 134 275 273q98 124 98 194q0 21 -9 38q-49 0 -145 -63l-134 -89q-367 -334 -367 -435z" />
<glyph unicode="b" horiz-adv-x="943" d="M39 1256q-1 8 -1 15q0 41 31 80q37 46 78 47q39 0 56 -50q14 -31 14 -57q0 -17 -23.5 -89t-23.5 -160q0 -111 33 -271q22 0 62 30l56 45q114 42 265 41q147 0 237 -47q108 -58 108 -176q0 -24 -5 -52q-16 -89 -177 -236q-153 -138 -335 -240q-70 -143 -267 -144 q-90 69 -89 161q0 32 10 86q15 77 18 96q0 586 -47 921zM214 275q0 -82 19 -93q70 7 168 78l154 120l144 134q87 89 87 147q0 70 -121 110q-312 0 -432 -216q0 -16 -9.5 -121t-9.5 -159z" />
<glyph unicode="c" horiz-adv-x="1026" d="M39 211q0 26 3 55q74 238 310 426q161 130 347 203q92 36 153 36q62 -66 63 -95q0 -32 -41 -65q-30 -19 -58 -18q-16 0 -49 10t-55 10q-77 0 -194 -99q-333 -282 -333 -435q0 -59 57 -93q51 -30 125 -30q142 0 321 101q166 94 233 196q20 11 37 10q43 0 43 -56 q0 -23 -10 -50q-163 -149 -238 -187q-27 -14 -277 -96q-120 -39 -214 -39q-223 0 -223 216z" />
<glyph unicode="d" horiz-adv-x="1122" d="M-51 138q0 118 180 302q22 22 256 231q82 73 223 120q121 41 207 41q31 47 35 237q0 130 1 258q1 72 8 106q25 52 39 58q8 3 73 3q54 -21 54 -59t-54 -101q-2 -78 -1 -182q0 -207 6 -517q67 -8 68 -43q0 -44 -73 -84q-1 -40 -1 -92q0 -86 3 -203q20 -52 21 -97 q0 -131 -142 -131q-37 34 -37 101q56 98 56 204q0 61 -19 123l-322 -226q-299 -194 -449 -202q-132 52 -132 153zM74 153q0 -21 7 -40q22 -5 38.5 -5t27.5 5q107 47 376 214q318 198 321 200q22 69 22 103q0 2 -14 74q-16 25 -62 25q-85 0 -200 -58q-226 -157 -301 -220 q-215 -182 -215 -298z" />
<glyph unicode="e" horiz-adv-x="1083" d="M67 214q0 25 3 52q51 163 145 287q67 91 158 161l103 74q57 47 160 88q110 45 184 45q18 0 32 -3q174 -35 174 -156q0 -33 -15 -72q-44 -83 -140 -139q-77 -45 -331 -147q-174 -70 -204 -86q-135 -68 -134 -128q0 -39 55 -74q33 -12 78 -12q151 0 381 113 q211 103 295 199q20 22 43 23q48 0 48 -53q0 -20 -13 -37q-169 -154 -266 -207q-73 -39 -304 -115q-114 -37 -211 -37q-241 1 -241 224zM217 337q72 69 286 166q263 118 309 147q84 51 84 95q0 23 -22 43q-20 20 -61 19q-126 0 -326 -152q-208 -158 -270 -318z" />
<glyph unicode="f" horiz-adv-x="709" d="M-34 675q0 16 11 41q24 23 72 41q41 15 57 39q0 481 49 642q80 182 212 183q113 0 271 -138q58 -21 57 -61q0 -27 -24 -50t-51 -23q-45 0 -44 65v17q-87 101 -165 101q-119 0 -169 -207q-9 -35 -9 -139q0 -68 4.5 -197t4.5 -157q186 49 316 97q67 25 103 26q23 0 53 -12 q49 -20 66 -24q10 -15 10 -26q0 -13 -47 -36q-130 -12 -247 -57l-233 -105q-2 -11 -2 -48q0 -38 2 -45q3 -46 3 -128q0 -73 -2 -174q-2 -113 -3 -190q0 -68 2 -108q46 -41 46 -75q0 -58 -82 -58q-64 0 -72 50q0 167 -10 391q-15 317 -39 367q-6 -1 -54 -16q-37 -12 -57 -11 q-29 0 -29 25z" />
<glyph unicode="g" horiz-adv-x="1045" d="M-187 -232q0 34 23 57q21 20 52 21q54 0 76 -61q47 -50 210 -89q148 -35 292 -42q159 23 259 121q57 55 125 180q20 38 21 141q0 179 -56 497q-64 -92 -253 -193q-207 -111 -359 -111q-144 0 -192 110q-9 28 -9 56q0 154 261 295q191 103 391 145q19 4 38 4q37 0 158 -47 q46 17 76 17q45 0 44 -39q0 -36 -39 -101q3 -103 30 -320q23 -202 23 -301q0 -333 -235 -488q-141 -94 -300 -94q-122 0 -304 62q-279 96 -303 102q-29 41 -29 78zM119 449q0 -40 82 -40q20 0 43 2q77 0 241 84t250 167q53 51 54 82q0 27 -40 38q-19 8 -45 8 q-140 0 -444 -190q-141 -89 -141 -151z" />
<glyph unicode="h" horiz-adv-x="1119" d="M53 1419q0 40 40 69q37 28 80 28q53 0 66 -43q23 -42 23 -73q0 -13 -18.5 -85.5t-18.5 -162.5q0 -82 14 -187q10 -80 10 -211q0 -52 -1 -112q-3 -86 -3 -155q0 -107 7 -168q1 -18 4 -28q74 135 284 301q238 189 398 189q36 0 66 -11q70 -41 70 -147q0 -33 -7 -93 q-9 -74 -11 -101q-20 -87 -19 -145q0 -75 30 -126q0 -82 -16.5 -99.5t-93.5 -19.5q-56 23 -56 64q0 24 20 61l18 135q17 125 17 200q0 98 -28 113q-23 6 -47 6q-137 0 -317 -155q-146 -126 -236 -266l-39 -138q-27 -61 -111 -61q-78 36 -78 83q0 32 38 96q-5 528 -8 626 q-17 405 -77 616z" />
<glyph unicode="i" horiz-adv-x="329" d="M74 664q0 36 42 85q34 24 60 24q8 0 49 -24q18 -20 18 -61q0 -17 -10 -111.5t-10 -179.5q0 -102 13 -214q37 -76 37 -118q0 -67 -88 -67q-82 12 -82 88q0 20 5 78q7 65 8 110q1 29 1 99t-1 181q-6 20 -26 59q-16 31 -16 51zM104 1158q0 88 69 87q15 0 30 -5 q84 -33 84 -100q0 -46 -53 -82h-31q-99 1 -99 100z" />
<glyph unicode="j" horiz-adv-x="585" d="M-410 -180q0 29 30.5 59.5t61.5 30.5q41 0 58 -56q-18 -50 -18 -77q0 -29 24 -48l48 -35q75 -99 222 -100q167 0 270 100q169 162 168 344q0 36 -7 107.5t-7 109.5q0 59 -11 116q-15 74 -15 84q-40 80 -40 133q0 60 55 71q43 -4 55 -9q18 -9 41 -45q2 -71 22 -263 q20 -177 20 -277q0 -437 -352 -566q-74 -27 -161 -28q-204 0 -346 125q-1 3 -70 88q-46 56 -46 125q-2 5 -2 11zM190 1042q0 78 109 78q42 0 72.5 -26t30.5 -60q0 -28 -24 -53q-42 -43 -87 -43q-41 0 -71 32.5t-30 71.5z" />
<glyph unicode="k" horiz-adv-x="1225" d="M44 1366q0 87 87 87q63 -68 63 -187q0 -19 -1.5 -61t-1.5 -65q4 -24 30 -339q23 -284 39 -335q237 70 474 355l71 96q41 60 41 121q14 114 82 114q61 0 62 -114q-84 -151 -202 -320q-32 -46 -84 -101l-92 -98h7q81 0 174 24q97 25 182 25q72 6 132 5q230 0 230 -78 q0 -15 -12 -29q-1 1 -12 1q-57 0 -380 -25q-398 -32 -461 -54q-57 -75 -107 -75q-11 0 -79 22q-25 -51 -26 -105q0 -39 15 -93q12 -44 12 -76q0 -79 -71 -79q-34 0 -86 20q-14 16 -14 58q0 36 11 106.5t11.5 83t0.5 25.5q0 184 -26 480l-47 503q-22 64 -22 108z" />
<glyph unicode="l" horiz-adv-x="440" d="M88 1420q0 89 75 89q33 0 79 -18q46 -39 46 -72q0 -15 -17.5 -57t-17.5 -79q0 -812 48 -1137q38 -36 38 -82q0 -36 -24 -59q-21 -20 -56 -20h-12q-88 8 -88 72v-3q2 0 14 92q0 605 -39 1102q-46 98 -46 172z" />
<glyph unicode="m" horiz-adv-x="1868" d="M23 61q0 31 38 91q22 141 56 284q24 105 24 129q0 37 -43 70q-20 34 -20 66q0 84 78 84q37 0 73 -31q20 -31 21 -107q0 -56 -13 -157.5t-13 -119.5q0 -19 5 -21q243 244 401 322q186 92 291 92q142 0 168 -153q0 -148 -26 -278q130 159 417 389q110 69 182 69 q123 0 142 -206q-17 -276 -16 -404q20 -40 19 -75q0 -45 -30 -70.5t-71 -25.5q-83 0 -104 77q5 35 12 63q31 33 52 125q21 88 21 179q0 185 -79 191q-176 -56 -344 -246q-155 -175 -226 -368q-40 -30 -80 -30q-39 0 -65 27.5t-26 66.5t28 73q1 6 29 153q22 119 22 185 q0 80 -30 105q-8 0 -16 1q-193 0 -414 -164q-215 -160 -286 -339q8 -29 8 -51q0 -71 -97 -72q-18 0 -42 2q-46 36 -46 74z" />
<glyph unicode="n" horiz-adv-x="1283" d="M57 76q0 32 15 115q17 90 20 131q4 69 4 125q0 144 -27 212q-7 17 -7 37q0 37 18.5 66.5t45.5 29.5q8 0 14 -2q93 -29 93 -120q0 -13 -2 -20.5t-2 -0.5q0 -14 -11.5 -95t-11.5 -136q0 -37 5 -69q32 119 260 300q100 80 257.5 136.5t281.5 56.5q61 0 104 -16 q70 -25 85 -95q7 -70 12 -140q0 -7 -16 -135q-14 -109 -14 -172q0 -101 31 -126q20 -73 20 -108q0 -65 -64 -66q-41 0 -112 25q-27 20 -27 61q0 47 34 110q19 162 19 282q0 122 -19 212q-19 50 -91 50q-103 0 -275 -90q-157 -83 -226 -158q-100 -91 -136 -134 q-59 -71 -97 -170q18 -47 18 -83q0 -97 -94 -97q-39 0 -77 23q-28 10 -28 61z" />
<glyph unicode="o" horiz-adv-x="1137" d="M11 210q0 92 89 214q70 95 150 158l267 215q150 111 231 119q27 -18 79 -33q42 20 91 20q78 0 148.5 -49.5t106.5 -134.5q12 -22 12 -50q0 -117 -195 -283q-186 -159 -424 -260q-195 -83 -332 -83q-42 0 -79 8q-144 46 -144 159zM180 303q-27 -52 -27 -86q0 -53 64 -65 q34 -7 63 -7q72 0 173 51l282 156q157 86 207 135l106 123q18 32 18 60q0 52 -53 83q-49 28 -118 28q-109 0 -160 -62q-21 13 -45 12q-19 0 -126 -44q-59 -17 -189 -143q-139 -134 -195 -241z" />
<glyph unicode="p" horiz-adv-x="1225" d="M52 -484q0 19 20 112q11 241 11 466q0 316 -22 599q-2 23 11 55q42 38 86 38q54 0 54 -66q0 -40 -21 -99q430 108 675 108q123 0 207 -25q131 -40 130 -115q0 -85 -161 -208q-102 -78 -235 -148q-202 -107 -203 -107q-164 -72 -421 -124q-1 -18 0 -40q0 -56 5 -133 q9 -120 9 -171q4 -30 24 -89q20 -54 20 -75q0 -57 -104 -57q-85 0 -85 79zM186 284q1 -152 14 -162q36 13 214 62q127 36 233 85q182 85 241 121q135 81 135 147q0 10 -3 20q-31 48 -164 48q-162 0 -398 -62q-222 -58 -265 -99q-7 -7 -7 -110v-50z" />
<glyph unicode="q" horiz-adv-x="1735" d="M42 229q8 78 122 201l265 211q90 69 161 69q38 0 92 -15l166 61q120 37 248 37q77 0 162 -13q104 -46 104 -142q0 -58 -42 -119q-99 -70 -111 -89q-30 -50 -30 -121q0 -117 60 -204q57 134 171 219q145 107 353 107q40 0 81 -4q63 -17 64 -81q0 -64 -72 -64 q-53 0 -128 46q-295 -77 -402 -341q-57 -139 -83 -497q17 -20 17 -45q0 -60 -67 -60q-43 0 -102 36q-7 25 -7 50q0 46 45 147.5t45 188.5q0 34 -6 71q-35 237 -94 450q-42 -23 -162 -71q-104 -40 -129 -46q-91 -46 -226 -86q-170 -51 -288 -51q-207 0 -207 155zM151 245 q0 -43 66 -54q52 0 51 25q0 12 -5 33q5 49 57 117q59 76 69 111q-58 -15 -144 -93q-94 -84 -94 -139zM366 208q125 9 309 87q97 40 315 151q86 43 94 49q23 17 32 54q29 43 48 43q5 0 29 -8t48 -8v36q-51 77 -170 77q-161 0 -469 -154q-111 -96 -150 -141q-86 -99 -86 -186z " />
<glyph unicode="r" horiz-adv-x="959" d="M38 802q0 56 47 63q63 0 81 -13q23 -17 23 -60q0 -20 -8 -79t-8 -95q0 -45 10 -83q29 80 100 156q84 93 177 118q75 20 140 21q79 0 150 -33q4 -2 107 -63q4 0 8 1q32 0 61 -28q31 -32 31 -60l-17 -37q-36 -21 -67 -22q-32 0 -62 24l-32 28l-9 7q-60 62 -158 62 q-141 0 -250 -117q-124 -133 -124 -342q0 -69 15 -145q0 -74 -4 -85q-14 -35 -83 -38h-8q-73 0 -72 75q0 37 24 69q0 226 -36 445.5t-36 230.5z" />
<glyph unicode="s" horiz-adv-x="1120" d="M39 484q0 49 36 107l61 89q86 99 202 173q141 89 257 89q101 0 170 -71q11 -45 10 -73q0 -59 -47 -60q-15 0 -35 6q-54 48 -137 48q-133 0 -254 -102q-126 -106 -125 -237q31 -38 132 -39q65 0 178 18q127 20 140 21q177 41 398 40q92 0 120 -11q43 -38 43 -77 q0 -41 -50 -88q-12 -11 -88 -67q-15 -41 -303 -149q-281 -103 -350 -103q-86 20 -86 113q0 81 80 81q31 0 72 -17q22 0 46.5 -14.5t47.5 -14.5q37 0 109 29l173 76q169 77 168 111q0 8 -6 12q-7 13 -63 13q-93 0 -466 -57q-168 -26 -240 -27q-81 0 -113 25q-80 80 -80 156z " />
<glyph unicode="t" horiz-adv-x="707" d="M-24 761q0 24 32 39q9 4 77 23q61 21 176 53q16 149 16 316q-29 95 -29 154q0 74 46 91q18 5 32 4q71 0 71 -94q0 -53 -23 -114v-329q62 24 217 78q30 32 60 32q29 0 50 -25.5t21 -55.5q0 -47 -48 -47q-12 0 -27 4q-52 -11 -273 -110q-13 -204 -12 -371q0 -96 4.5 -195.5 t4.5 -114.5q0 -67 -41 -101q-9 -12 -26 -12q-24 0 -44 22q-22 25 -22 65q0 41 23 91v597q-15 2 -30 2q-54 0 -125.5 -31t-86.5 -31q-43 1 -43 60z" />
<glyph unicode="u" horiz-adv-x="1067" d="M56 243q0 135 22 237q33 151 33 227q-28 47 -28 85q0 81 115 81q62 -44 62 -126q0 -48 -21 -91q-70 -223 -70 -393q0 -63 20 -74q17 -14 43 -13q107 0 317 199q200 191 283 354l14 120q6 38 73 65q110 0 110 -67q0 -6 -34 -143q-17 -313 -17 -369q0 -178 36 -260 q-16 -77 -85 -77q-65 0 -82 82l21 146q17 115 17 202q0 82 -14 151q-129 -189 -317 -354q-216 -188 -384 -223q-5 -1 -10 -1q-104 1 -104 242z" />
<glyph unicode="v" horiz-adv-x="845" d="M55 675q0 36 55 84q34 18 59 17q54 0 66 -94l18 -139q12 -29 33 -158q19 -107 49 -147q125 256 295 510q62 70 138 172q33 45 80 70h112q23 -30 23 -54q0 -32 -45 -56l-90 -45l-271 -374q-144 -219 -177 -417q-10 -32 -42 -40l-64 -6q-98 15 -98 121q0 8 2 63v24 q0 152 -81 360q-62 77 -62 109z" />
<glyph unicode="w" horiz-adv-x="1398" d="M54 752q46 45 86 45q55 0 91 -80q30 -69 30 -149q20 -177 92 -287q-4 -1 -4 5q0 51 127 237q142 210 253 261q26 13 48 13q46 0 50 -57q17 -80 82 -277q74 -226 108 -265q57 237 128 418q150 382 292 383q57 -20 56 -73q0 -34 -44 -44q-77 -18 -136 -132 q-37 -70 -88.5 -234t-79.5 -217q-56 -106 -56 -189v-23q1 -14 1 -19q0 -40 -70 -65q-94 0 -121 44q-14 22 -19 112q-6 94 -37 154q0 30 -39 150q-25 125 -81 125q-73 0 -180 -194q-69 -85 -103 -203l-2 -145q-14 -48 -114 -48h-16q-11 7 -25 27q-7 175 -64 351 q-62 195 -160 313q-5 36 -5 63z" />
<glyph unicode="x" horiz-adv-x="1197" d="M34 90q0 62 124 108q43 34 134 165q117 171 179 245q-117 161 -193 160q-20 0 -29 41q0 97 50 97q48 0 147 -90l118 -109q90 53 153 166q50 90 99 90q23 -20 43 -32q16 -66 16 -76q0 -15 -49 -50q-81 -59 -179 -184l281 -222l129 -102q126 -102 126 -154q0 -16 -12 -26 q-44 -40 -79 -40q-70 0 -70 103q-59 33 -221 171q-170 142 -210 168q-50 -43 -183 -206q-157 -191 -159 -194q-27 -74 -47 -93q-29 -28 -103 -28q-65 48 -65 92z" />
<glyph unicode="y" horiz-adv-x="917" d="M25 703q0 76 101 76q48 -6 70 -53l51 -135q46 -111 127 -219q1 -1 63 -97q36 -57 76 -86q114 165 212 491q-3 18 -17 57q-12 34 -12 53q0 43 59 69q113 0 113 -103q0 -54 -39 -162q-40 -77 -113 -249t-112 -247q38 -31 38 -78q0 -33 -19 -58t-47 -25q-11 0 -22 4 q-107 -151 -157 -407q-30 -67 -91 -67q-32 0 -56.5 20.5t-24.5 48.5q0 47 67 82l97 207q66 143 66 208q-176 259 -345 587q-85 11 -85 83z" />
<glyph unicode="z" horiz-adv-x="1113" d="M49 54q0 89 66 115l154 46l322 290q220 207 220 284q0 12 -4 20l-246 -29q-169 -21 -255 -79q-25 -69 -98 -69q-78 0 -79 62q0 4 1 7q7 93 61 125q35 20 115 21q230 52 482 67q50 26 98 26q109 0 109 -110q0 -20 -4 -40l-179 -214l-156 -178q-119 -130 -223 -183 q442 104 581 104q155 0 155 -60q0 -45 -65 -44q-199 0 -275 -14q-100 -18 -459 -121l-101 -54q-55 -26 -95 -26q-60 0 -125 54z" />
<glyph unicode="{" horiz-adv-x="665" d="M73 -43q0 37 21 70l159 226q116 167 108 200q-12 48 -19 60q-12 21 -40 25q-41 5 -94 38q-61 39 -55 73q5 21 86 75q78 53 78 82q0 11 -7 20l-133 179q-102 165 -102 307q0 53 15 102q78 263 266 263q69 0 139 -41q84 -49 84 -92q0 -22 -21 -36.5t-39 -12.5l-53 30 q-46 24 -84 25q-50 0 -90 -39q-96 -90 -96 -230q0 -110 64 -233q32 -61 66 -87q20 -16 53.5 -26t49.5 -25q32 -28 57 -79.5t25 -88.5q0 -14 -4 -23q-6 -20 -43 -45q-33 -23 -33 -34q0 -5 4 -10q95 -109 95 -174q0 -27 -11 -52q-32 -76 -114 -208q-75 -123 -116 -173 q-68 -83 -69 -99q0 -20 37 -26q113 -19 151 -19q57 0 78 22q52 53 105 52q40 0 61 -39q11 -20 11 -37q0 -44 -55 -70q-4 0 -103 -4t-166 -4q-97 0 -139 8q-53 10 -90 53t-37 97z" />
<glyph unicode="|" horiz-adv-x="389" d="M130 162v1496h125v-1496h-125z" />
<glyph unicode="}" horiz-adv-x="665" d="M45 1667q0 44 55 69q7 0 147.5 14t212.5 14q39 0 62 -4q54 -10 91 -53t37 -96q0 -38 -21 -70q-14 -21 -176 -210q-134 -155 -126 -186q13 -51 17 -62q12 -22 39 -25q42 -5 96 -38q62 -38 54 -72q-5 -21 -84 -74t-79 -82q0 -11 6 -21q53 -70 125 -250q94 -238 94 -407 q0 -67 -16 -120q-77 -262 -266 -262q-69 0 -140 41q-84 49 -84 91q0 23 23 39q20 14 37 11l53 -29q47 -24 84 -24q50 0 90 39q91 86 91 236q0 83 -29 166q-112 325 -181 385q-32 27 -56 78.5t-24 88.5q0 14 3 24q6 20 41 44.5t35 34.5q0 5 -3 8q-97 109 -97 175q0 27 11 53 q29 68 132 194l135 159q68 80 68 98q0 21 -37 28q-41 7 -89 6q-119 0 -155 -37q-50 -51 -103 -50q-41 0 -62 39q-11 19 -11 37z" />
<glyph unicode="~" horiz-adv-x="720" d="M20 846q0 99 86 183q76 92 137 92q59 0 125.5 -107.5t96.5 -107.5q34 0 73 67q81 140 126 141q29 0 29 -59q0 -101 -66 -190q-108 -144 -176 -144q-56 0 -111.5 126t-97.5 126t-91.5 -110.5t-78.5 -110.5q-52 0 -52 94z" />
<glyph unicode="&#xaa;" horiz-adv-x="1090" d="M33 124q0 39 23 105q211 367 787 699q25 15 51 15q75 0 75 -85q0 -13 -2 -26q0 -35 -6.5 -115t-6.5 -122q0 -60 11 -109q0 -274 22 -320q47 -76 47 -89q0 -27 -38 -52q-47 -20 -78 -19q-65 0 -66 110q0 12 1 34v35q0 42 -6 64l4 87q3 68 4 113q0 11 -1 21q-1 69 -11 74 q-125 -212 -301 -354q-198 -160 -414 -192q-95 41 -95 126zM149 165q0 -43 60 -49q59 0 222 131q167 134 275 273q98 124 98 194q0 21 -9 38q-49 0 -145 -63l-134 -89q-367 -334 -367 -435z" />
<glyph unicode="&#xad;" horiz-adv-x="865" d="M45 656q0 54 80 62q31 3 71.5 -14t84.5 -14q114 -5 316 0q26 5 68 19q32 10 47 10q21 0 43 -17q37 -29 37 -70q0 -28 -19 -39q-50 -29 -84 -29q-24 0 -63 10q-29 9 -121 9q-63 0 -162 -4l-98 -5q-10 0 -43.5 -4t-76.5 -4q-80 -1 -80 90z" />
<glyph unicode="&#xb2;" horiz-adv-x="1472" d="M76 1016q0 143 367 345q355 195 541 184q193 -12 193 -263q0 -97 -29 -220q-60 -171 -325 -467q-233 -261 -385 -370q223 110 527 201q283 85 529 123q41 -11 72.5 -40t31.5 -61q0 -40 -53 -70q-91 25 -146 26q-200 0 -1105 -348q-22 0 -46.5 -4.5t-29.5 -4.5 q-21 0 -43 39q0 98 44 134l75 49q244 178 436 408q216 254 312 505q5 33 4 60q0 153 -143 154q-181 0 -518 -214q-56 -71 -123 -134q-94 -87 -143 -86q-21 0 -34 17q-9 17 -9 37z" />
<glyph unicode="&#xb3;" horiz-adv-x="1358" d="M62 1259q0 41 53 67t126 26q21 0 42 -2l482 117q24 7 93 38q54 23 85 23q65 0 119 -95q0 -197 -255 -359q21 1 94 5q59 4 96 4q245 0 298 -201q2 -28 2 -57q0 -335 -291 -572q-261 -215 -609 -245q-109 -10 -119 -10q-135 0 -135 99q0 26 10 60q28 33 80 33q76 0 200 -69 q195 18 390 149q190 128 286 298q103 183 45 331q-88 68 -237 68t-305 -63q-151 -61 -215 -145q-69 -74 -165 -74q-102 0 -102 86q0 8 1 17q51 46 74 55q20 8 94 14q166 98 336 216q291 204 291 278q0 10 -5 16q-147 0 -422 -94.5t-386 -94.5q-51 42 -51 81z" />
<glyph unicode="&#xb9;" horiz-adv-x="320" d="M58 101q0 29 42 144q13 126 13 305q0 160 -13.5 479t-13.5 442q43 79 77 79q63 0 63 -202q0 -77 -13 -120q-4 -147 12 -467q21 -407 24 -470q12 -82 11 -122q0 -151 -160 -151q-42 32 -42 83z" />
<glyph unicode="&#xba;" horiz-adv-x="1137" d="M11 210q0 92 89 214q70 95 150 158l267 215q150 111 231 119q27 -18 79 -33q42 20 91 20q78 0 148.5 -49.5t106.5 -134.5q12 -22 12 -50q0 -117 -195 -283q-186 -159 -424 -260q-195 -83 -332 -83q-42 0 -79 8q-144 46 -144 159zM180 303q-27 -52 -27 -86q0 -53 64 -65 q34 -7 63 -7q72 0 173 51l282 156q157 86 207 135l106 123q18 32 18 60q0 52 -53 83q-49 28 -118 28q-109 0 -160 -62q-21 13 -45 12q-19 0 -126 -44q-59 -17 -189 -143q-139 -134 -195 -241z" />
<glyph unicode="&#xc0;" horiz-adv-x="1263" d="M195 2121q0 88 70 88q14 0 30 -6q50 -19 136 -182q92 -172 92 -270q0 -46 -24 -62q-6 0 -103 166t-101 166q-100 0 -100 100zM15 100q0 27 14 46q24 30 49 104q42 123 94 379q70 163 161.5 445t91.5 335q-10 35 -10 64q0 94 90 93q45 0 66 -24q27 -31 49 -83 q38 -91 67 -145q33 -65 110 -258q57 -143 110 -212q51 6 213 46q123 30 263 31q-120 -76 -274 -129q-139 -48 -169 -71q40 -72 151 -335q100 -238 135 -286q20 -37 20 -64q0 -63 -98 -63q-8 -2 -17 -2q-75 0 -75 117q0 21 3 46q-33 65 -113 283q-76 209 -109 270 q-70 0 -273 -70q-159 -55 -262 -99q-3 -10 -108 -329q10 -36 10 -66q0 -115 -98 -115q-37 0 -64 24.5t-27 67.5zM349 687q41 0 206 49l218 65q-47 75 -127 272.5t-108 240.5q-5 3 -32 -110.5t-34 -113.5q-40 -114 -68 -226q-26 -101 -55 -177z" />
<glyph unicode="&#xc2;" horiz-adv-x="1263" d="M74 1761q0 52 65 79q60 94 148 175l145 126q49 46 89 46q30 0 80 -46q102 -122 279 -314q37 -40 37 -75q0 -62 -73 -63q-72 0 -73 76q0 16 4 35q-129 162 -257 257q-46 0 -158.5 -103.5t-112.5 -153.5q4 -16 4 -31q0 -78 -87 -78q-90 1 -90 70zM15 100q0 27 14 46 q24 30 49 104q42 123 94 379q70 163 161.5 445t91.5 335q-10 35 -10 64q0 94 90 93q45 0 66 -24q27 -31 49 -83q38 -91 67 -145q33 -65 110 -258q57 -143 110 -212q51 6 213 46q123 30 263 31q-120 -76 -274 -129q-139 -48 -169 -71q40 -72 151 -335q100 -238 135 -286 q20 -37 20 -64q0 -63 -98 -63q-8 -2 -17 -2q-75 0 -75 117q0 21 3 46q-33 65 -113 283q-76 209 -109 270q-70 0 -273 -70q-159 -55 -262 -99q-3 -10 -108 -329q10 -36 10 -66q0 -115 -98 -115q-37 0 -64 24.5t-27 67.5zM349 687q41 0 206 49l218 65q-47 75 -127 272.5 t-108 240.5q-5 3 -32 -110.5t-34 -113.5q-40 -114 -68 -226q-26 -101 -55 -177z" />
<glyph unicode="&#xc3;" horiz-adv-x="1263" d="M150 1814q0 99 86 183q76 92 137 92q59 0 125.5 -107.5t96.5 -107.5q34 0 73 67q81 140 126 141q29 0 29 -59q0 -101 -66 -190q-108 -144 -176 -144q-56 0 -111.5 126t-97.5 126t-91.5 -110.5t-78.5 -110.5q-52 0 -52 94zM15 100q0 27 14 46q24 30 49 104q42 123 94 379 q70 163 161.5 445t91.5 335q-10 35 -10 64q0 94 90 93q45 0 66 -24q27 -31 49 -83q38 -91 67 -145q33 -65 110 -258q57 -143 110 -212q51 6 213 46q123 30 263 31q-120 -76 -274 -129q-139 -48 -169 -71q40 -72 151 -335q100 -238 135 -286q20 -37 20 -64q0 -63 -98 -63 q-8 -2 -17 -2q-75 0 -75 117q0 21 3 46q-33 65 -113 283q-76 209 -109 270q-70 0 -273 -70q-159 -55 -262 -99q-3 -10 -108 -329q10 -36 10 -66q0 -115 -98 -115q-37 0 -64 24.5t-27 67.5zM349 687q41 0 206 49l218 65q-47 75 -127 272.5t-108 240.5q-5 3 -32 -110.5 t-34 -113.5q-40 -114 -68 -226q-26 -101 -55 -177z" />
<glyph unicode="&#xc8;" horiz-adv-x="1645" d="M1041 1998q0 88 70 88q14 0 30 -6q50 -19 136 -182q92 -172 92 -270q0 -46 -24 -62q-6 0 -103 166t-101 166q-100 0 -100 100zM42 1183q0 55 98 98q91 41 181 41q118 29 423 67q321 40 467 40q137 15 141 14q121 0 139 -121q0 -59 -57 -58q-57 0 -116 58q-228 0 -533 -42 q-392 -53 -457 -135q0 -83 17.5 -251.5t17.5 -267.5q77 16 508 140q437 126 515 155q5 0 30.5 8.5t49.5 8.5q41 0 88 -26q28 -34 28 -58q0 -40 -107 -69l-306 -66q-249 -56 -471 -135q-130 -46 -298 -131q0 -21 -9.5 -88.5t-9.5 -102.5q0 -87 48 -109q627 148 1029 199 q164 50 191 50q31 0 103 -41q1 -6 0 -12q0 -122 -307 -122l-501 -80q-306 -52 -470 -145h-166q-80 49 -80 136q0 24 8.5 75t8.5 77q0 35 -12 62q-114 59 -114 114q0 59 114 100q0 89 -26 276q-30 215 -61 240q-104 47 -104 101z" />
<glyph unicode="&#xca;" horiz-adv-x="1645" d="M920 1638q0 52 65 79q60 94 148 175l145 126q49 46 89 46q30 0 80 -46q102 -122 279 -314q37 -40 37 -75q0 -62 -73 -63q-72 0 -73 76q0 16 4 35q-129 162 -257 257q-46 0 -158.5 -103.5t-112.5 -153.5q4 -16 4 -31q0 -78 -87 -78q-90 1 -90 70zM42 1183q0 55 98 98 q91 41 181 41q118 29 423 67q321 40 467 40q137 15 141 14q121 0 139 -121q0 -59 -57 -58q-57 0 -116 58q-228 0 -533 -42q-392 -53 -457 -135q0 -83 17.5 -251.5t17.5 -267.5q77 16 508 140q437 126 515 155q5 0 30.5 8.5t49.5 8.5q41 0 88 -26q28 -34 28 -58 q0 -40 -107 -69l-306 -66q-249 -56 -471 -135q-130 -46 -298 -131q0 -21 -9.5 -88.5t-9.5 -102.5q0 -87 48 -109q627 148 1029 199q164 50 191 50q31 0 103 -41q1 -6 0 -12q0 -122 -307 -122l-501 -80q-306 -52 -470 -145h-166q-80 49 -80 136q0 24 8.5 75t8.5 77 q0 35 -12 62q-114 59 -114 114q0 59 114 100q0 89 -26 276q-30 215 -61 240q-104 47 -104 101z" />
<glyph unicode="&#xcc;" horiz-adv-x="1993" d="M624 2015q0 88 70 88q14 0 30 -6q50 -19 136 -182q92 -172 92 -270q0 -46 -24 -62q-6 0 -103 166t-101 166q-100 0 -100 100zM97 1167q0 27 19 56q0 90 311 121l389 22v7q0 35 35 62q36 25 83 25q73 0 75 -62q71 -14 146 -13q72 0 226.5 21t254.5 21q78 0 158 -10 q32 -11 111 -51q0 -46 5 -72q-22 -21 -78 -21q-36 0 -104 10.5t-87 10.5q-137 0 -312 -20q-248 -28 -302 -33q-29 -67 -29 -233q0 -138 22 -380q24 -264 25 -294q2 -8 2 -14q0 -13 -6 -22t-6 -10q0 -6 24 -19q74 21 286 57q350 59 364 62q101 19 176 19q136 0 136 -63 q0 -34 -50 -46l-77 -12q-176 -14 -311 -43q-174 -38 -299 -55q-76 -22 -134 -23q-46 0 -100 -25q1 -6 1 -12q0 -35 -19 -59q-22 -29 -54 -29q-52 0 -85 68q-27 0 -150 -12.5t-204 -12.5q-123 0 -211 25q-54 40 -54 68q0 20 29 38l58 36q40 -1 85 -26t107 -25q107 0 340 57 q0 173 -15 493q-21 451 -55 474q-62 10 -140 10q-223 0 -391 -63q-16 -85 -97 -85q-39 0 -68.5 23.5t-29.5 58.5z" />
<glyph unicode="&#xce;" horiz-adv-x="1993" d="M503 1654q0 52 65 79q60 94 148 175l145 126q49 46 89 46q30 0 80 -46q102 -122 279 -314q37 -40 37 -75q0 -62 -73 -63q-72 0 -73 76q0 16 4 35q-129 162 -257 257q-46 0 -158.5 -103.5t-112.5 -153.5q4 -16 4 -31q0 -78 -87 -78q-90 1 -90 70zM97 1167q0 27 19 56 q0 90 311 121l389 22v7q0 35 35 62q36 25 83 25q73 0 75 -62q71 -14 146 -13q72 0 226.5 21t254.5 21q78 0 158 -10q32 -11 111 -51q0 -46 5 -72q-22 -21 -78 -21q-36 0 -104 10.5t-87 10.5q-137 0 -312 -20q-248 -28 -302 -33q-29 -67 -29 -233q0 -138 22 -380 q24 -264 25 -294q2 -8 2 -14q0 -13 -6 -22t-6 -10q0 -6 24 -19q74 21 286 57q350 59 364 62q101 19 176 19q136 0 136 -63q0 -34 -50 -46l-77 -12q-176 -14 -311 -43q-174 -38 -299 -55q-76 -22 -134 -23q-46 0 -100 -25q1 -6 1 -12q0 -35 -19 -59q-22 -29 -54 -29 q-52 0 -85 68q-27 0 -150 -12.5t-204 -12.5q-123 0 -211 25q-54 40 -54 68q0 20 29 38l58 36q40 -1 85 -26t107 -25q107 0 340 57q0 173 -15 493q-21 451 -55 474q-62 10 -140 10q-223 0 -391 -63q-16 -85 -97 -85q-39 0 -68.5 23.5t-29.5 58.5z" />
<glyph unicode="&#xd1;" horiz-adv-x="1499" d="M967 1914q0 99 86 183q76 92 137 92q59 0 125.5 -107.5t96.5 -107.5q34 0 73 67q81 140 126 141q29 0 29 -59q0 -101 -66 -190q-108 -144 -176 -144q-56 0 -111.5 126t-97.5 126t-91.5 -110.5t-78.5 -110.5q-52 0 -52 94zM30 167q0 43 16 91q20 60 30 138q17 132 17 377 q0 158 -7 364q-42 52 -42 93q0 71 95 71q33 0 69 -12q38 -39 466 -352q454 -332 621 -482q9 9 9 114q0 162 -20 550q-19 373 -20 373v-1q-18 0 -38 31.5t-20 64.5q0 79 116 79q70 -24 83 -47q6 -10 6 -66q-21 -116 -21 -367q0 -249 19 -546q18 -276 38 -393q35 -103 35 -111 q0 -23 -35 -61q-61 -64 -76 -64q-20 0 -49 28.5t-29 106.5q0 88 -29 137q-38 89 -486 436q-456 354 -555 354q-11 0 -15 -6q-5 -111 -5.5 -331.5t5.5 -550.5q6 -49 6 -77q0 -106 -109 -106q-12 13 -35 36t-34 37q-6 58 -6 92z" />
<glyph unicode="&#xd2;" horiz-adv-x="2108" d="M1251 1850q0 88 70 88q14 0 30 -6q50 -19 136 -182q92 -172 92 -270q0 -46 -24 -62q-6 0 -103 166t-101 166q-100 0 -100 100zM33 331q0 161 104 334l170 214q107 115 320 243q58 35 126 36q31 0 76 -9t56 -9q113 62 295 106q200 49 381 49q343 0 466 -173 q57 -80 56 -167q0 -258 -423 -514q-577 -349 -1084 -428q-81 -13 -151 -13q-198 0 -299 96q-93 87 -93 235zM177 325q0 -98 68 -149t221 -70q135 0 447 113q335 122 604 283q321 190 413 363q15 38 15 73q0 134 -243 244q-60 4 -121 4q-575 0 -993 -384q-91 -61 -116 -62 q-20 0 -39 26q-46 0 -114 -84q-17 -20 -90 -128q-52 -144 -52 -229z" />
<glyph unicode="&#xd4;" horiz-adv-x="2108" d="M1130 1490q0 52 65 79q60 94 148 175l145 126q49 46 89 46q30 0 80 -46q102 -122 279 -314q37 -40 37 -75q0 -62 -73 -63q-72 0 -73 76q0 16 4 35q-129 162 -257 257q-46 0 -158.5 -103.5t-112.5 -153.5q4 -16 4 -31q0 -78 -87 -78q-90 1 -90 70zM33 331q0 161 104 334 l170 214q107 115 320 243q58 35 126 36q31 0 76 -9t56 -9q113 62 295 106q200 49 381 49q343 0 466 -173q57 -80 56 -167q0 -258 -423 -514q-577 -349 -1084 -428q-81 -13 -151 -13q-198 0 -299 96q-93 87 -93 235zM177 325q0 -98 68 -149t221 -70q135 0 447 113 q335 122 604 283q321 190 413 363q15 38 15 73q0 134 -243 244q-60 4 -121 4q-575 0 -993 -384q-91 -61 -116 -62q-20 0 -39 26q-46 0 -114 -84q-17 -20 -90 -128q-52 -144 -52 -229z" />
<glyph unicode="&#xd5;" horiz-adv-x="2108" d="M1206 1543q0 99 86 183q76 92 137 92q59 0 125.5 -107.5t96.5 -107.5q34 0 73 67q81 140 126 141q29 0 29 -59q0 -101 -66 -190q-108 -144 -176 -144q-56 0 -111.5 126t-97.5 126t-91.5 -110.5t-78.5 -110.5q-52 0 -52 94zM33 331q0 161 104 334l170 214q107 115 320 243 q58 35 126 36q31 0 76 -9t56 -9q113 62 295 106q200 49 381 49q343 0 466 -173q57 -80 56 -167q0 -258 -423 -514q-577 -349 -1084 -428q-81 -13 -151 -13q-198 0 -299 96q-93 87 -93 235zM177 325q0 -98 68 -149t221 -70q135 0 447 113q335 122 604 283q321 190 413 363 q15 38 15 73q0 134 -243 244q-60 4 -121 4q-575 0 -993 -384q-91 -61 -116 -62q-20 0 -39 26q-46 0 -114 -84q-17 -20 -90 -128q-52 -144 -52 -229z" />
<glyph unicode="&#xd9;" horiz-adv-x="1623" d="M1183 2004q0 88 70 88q14 0 30 -6q50 -19 136 -182q92 -172 92 -270q0 -46 -24 -62q-6 0 -103 166t-101 166q-100 0 -100 100zM21 440q0 133 34 453t34 452q0 96 81 95q36 0 61 -25q29 -28 29 -73q0 -26 -10 -56q-22 -63 -49 -277q-30 -241 -30 -431q0 -300 79 -334 q36 -12 75 -12q206 0 527 322l339 403q212 274 211 402q0 12 -2 22q28 68 93 68q47 0 88 -35.5t41 -77.5q0 -27 -20 -50q-50 -57 -49 -385q0 -406 49 -729q22 -24 23 -64q0 -40 -23.5 -71t-62.5 -31q-67 0 -84 80q0 742 1 741l1 -243q-1 315 -19 470q-198 -276 -440 -526 q-442 -456 -715 -457q-126 0 -211 101q-51 74 -51 268z" />
<glyph unicode="&#xdb;" horiz-adv-x="1623" d="M1062 1644q0 52 65 79q60 94 148 175l145 126q49 46 89 46q30 0 80 -46q102 -122 279 -314q37 -40 37 -75q0 -62 -73 -63q-72 0 -73 76q0 16 4 35q-129 162 -257 257q-46 0 -158.5 -103.5t-112.5 -153.5q4 -16 4 -31q0 -78 -87 -78q-90 1 -90 70zM21 440q0 133 34 453 t34 452q0 96 81 95q36 0 61 -25q29 -28 29 -73q0 -26 -10 -56q-22 -63 -49 -277q-30 -241 -30 -431q0 -300 79 -334q36 -12 75 -12q206 0 527 322l339 403q212 274 211 402q0 12 -2 22q28 68 93 68q47 0 88 -35.5t41 -77.5q0 -27 -20 -50q-50 -57 -49 -385q0 -406 49 -729 q22 -24 23 -64q0 -40 -23.5 -71t-62.5 -31q-67 0 -84 80q0 742 1 741l1 -243q-1 315 -19 470q-198 -276 -440 -526q-442 -456 -715 -457q-126 0 -211 101q-51 74 -51 268z" />
<glyph unicode="&#xe0;" horiz-adv-x="1090" d="M584 1498q0 88 70 88q14 0 30 -6q50 -19 136 -182q92 -172 92 -270q0 -46 -24 -62q-6 0 -103 166t-101 166q-100 0 -100 100zM33 124q0 39 23 105q211 367 787 699q25 15 51 15q75 0 75 -85q0 -13 -2 -26q0 -35 -6.5 -115t-6.5 -122q0 -60 11 -109q0 -274 22 -320 q47 -76 47 -89q0 -27 -38 -52q-47 -20 -78 -19q-65 0 -66 110q0 12 1 34v35q0 42 -6 64l4 87q3 68 4 113q0 11 -1 21q-1 69 -11 74q-125 -212 -301 -354q-198 -160 -414 -192q-95 41 -95 126zM149 165q0 -43 60 -49q59 0 222 131q167 134 275 273q98 124 98 194q0 21 -9 38 q-49 0 -145 -63l-134 -89q-367 -334 -367 -435z" />
<glyph unicode="&#xe2;" horiz-adv-x="1090" d="M463 1138q0 52 65 79q60 94 148 175l145 126q49 46 89 46q30 0 80 -46q102 -122 279 -314q37 -40 37 -75q0 -62 -73 -63q-72 0 -73 76q0 16 4 35q-129 162 -257 257q-46 0 -158.5 -103.5t-112.5 -153.5q4 -16 4 -31q0 -78 -87 -78q-90 1 -90 70zM33 124q0 39 23 105 q211 367 787 699q25 15 51 15q75 0 75 -85q0 -13 -2 -26q0 -35 -6.5 -115t-6.5 -122q0 -60 11 -109q0 -274 22 -320q47 -76 47 -89q0 -27 -38 -52q-47 -20 -78 -19q-65 0 -66 110q0 12 1 34v35q0 42 -6 64l4 87q3 68 4 113q0 11 -1 21q-1 69 -11 74q-125 -212 -301 -354 q-198 -160 -414 -192q-95 41 -95 126zM149 165q0 -43 60 -49q59 0 222 131q167 134 275 273q98 124 98 194q0 21 -9 38q-49 0 -145 -63l-134 -89q-367 -334 -367 -435z" />
<glyph unicode="&#xe3;" horiz-adv-x="1090" d="M539 1191q0 99 86 183q76 92 137 92q59 0 125.5 -107.5t96.5 -107.5q34 0 73 67q81 140 126 141q29 0 29 -59q0 -101 -66 -190q-108 -144 -176 -144q-56 0 -111.5 126t-97.5 126t-91.5 -110.5t-78.5 -110.5q-52 0 -52 94zM33 124q0 39 23 105q211 367 787 699 q25 15 51 15q75 0 75 -85q0 -13 -2 -26q0 -35 -6.5 -115t-6.5 -122q0 -60 11 -109q0 -274 22 -320q47 -76 47 -89q0 -27 -38 -52q-47 -20 -78 -19q-65 0 -66 110q0 12 1 34v35q0 42 -6 64l4 87q3 68 4 113q0 11 -1 21q-1 69 -11 74q-125 -212 -301 -354q-198 -160 -414 -192 q-95 41 -95 126zM149 165q0 -43 60 -49q59 0 222 131q167 134 275 273q98 124 98 194q0 21 -9 38q-49 0 -145 -63l-134 -89q-367 -334 -367 -435z" />
<glyph unicode="&#xe8;" horiz-adv-x="1083" d="M510 1476q0 88 70 88q14 0 30 -6q50 -19 136 -182q92 -172 92 -270q0 -46 -24 -62q-6 0 -103 166t-101 166q-100 0 -100 100zM67 214q0 25 3 52q51 163 145 287q67 91 158 161l103 74q57 47 160 88q110 45 184 45q18 0 32 -3q174 -35 174 -156q0 -33 -15 -72 q-44 -83 -140 -139q-77 -45 -331 -147q-174 -70 -204 -86q-135 -68 -134 -128q0 -39 55 -74q33 -12 78 -12q151 0 381 113q211 103 295 199q20 22 43 23q48 0 48 -53q0 -20 -13 -37q-169 -154 -266 -207q-73 -39 -304 -115q-114 -37 -211 -37q-241 1 -241 224zM217 337 q72 69 286 166q263 118 309 147q84 51 84 95q0 23 -22 43q-20 20 -61 19q-126 0 -326 -152q-208 -158 -270 -318z" />
<glyph unicode="&#xea;" horiz-adv-x="1083" d="M389 1115q0 52 65 79q60 94 148 175l145 126q49 46 89 46q30 0 80 -46q102 -122 279 -314q37 -40 37 -75q0 -62 -73 -63q-72 0 -73 76q0 16 4 35q-129 162 -257 257q-46 0 -158.5 -103.5t-112.5 -153.5q4 -16 4 -31q0 -78 -87 -78q-90 1 -90 70zM67 214q0 25 3 52 q51 163 145 287q67 91 158 161l103 74q57 47 160 88q110 45 184 45q18 0 32 -3q174 -35 174 -156q0 -33 -15 -72q-44 -83 -140 -139q-77 -45 -331 -147q-174 -70 -204 -86q-135 -68 -134 -128q0 -39 55 -74q33 -12 78 -12q151 0 381 113q211 103 295 199q20 22 43 23 q48 0 48 -53q0 -20 -13 -37q-169 -154 -266 -207q-73 -39 -304 -115q-114 -37 -211 -37q-241 1 -241 224zM217 337q72 69 286 166q263 118 309 147q84 51 84 95q0 23 -22 43q-20 20 -61 19q-126 0 -326 -152q-208 -158 -270 -318z" />
<glyph unicode="&#xec;" horiz-adv-x="329" d="M-138 1800q0 88 70 88q14 0 30 -6q50 -19 136 -182q92 -172 92 -270q0 -46 -24 -62q-6 0 -103 166t-101 166q-100 0 -100 100zM74 664q0 36 42 85q34 24 60 24q8 0 49 -24q18 -20 18 -61q0 -17 -10 -111.5t-10 -179.5q0 -102 13 -214q37 -76 37 -118q0 -67 -88 -67 q-82 12 -82 88q0 20 5 78q7 65 8 110q1 29 1 99t-1 181q-6 20 -26 59q-16 31 -16 51zM104 1158q0 88 69 87q15 0 30 -5q84 -33 84 -100q0 -46 -53 -82h-31q-99 1 -99 100z" />
<glyph unicode="&#xee;" horiz-adv-x="329" d="M-259 1440q0 52 65 79q60 94 148 175l145 126q49 46 89 46q30 0 80 -46q102 -122 279 -314q37 -40 37 -75q0 -62 -73 -63q-72 0 -73 76q0 16 4 35q-129 162 -257 257q-46 0 -158.5 -103.5t-112.5 -153.5q4 -16 4 -31q0 -78 -87 -78q-90 1 -90 70zM74 664q0 36 42 85 q34 24 60 24q8 0 49 -24q18 -20 18 -61q0 -17 -10 -111.5t-10 -179.5q0 -102 13 -214q37 -76 37 -118q0 -67 -88 -67q-82 12 -82 88q0 20 5 78q7 65 8 110q1 29 1 99t-1 181q-6 20 -26 59q-16 31 -16 51zM104 1158q0 88 69 87q15 0 30 -5q84 -33 84 -100q0 -46 -53 -82h-31 q-99 1 -99 100z" />
<glyph unicode="&#xf1;" horiz-adv-x="1283" d="M250 1164q0 99 86 183q76 92 137 92q59 0 125.5 -107.5t96.5 -107.5q34 0 73 67q81 140 126 141q29 0 29 -59q0 -101 -66 -190q-108 -144 -176 -144q-56 0 -111.5 126t-97.5 126t-91.5 -110.5t-78.5 -110.5q-52 0 -52 94zM57 76q0 32 15 115q17 90 20 131q4 69 4 125 q0 144 -27 212q-7 17 -7 37q0 37 18.5 66.5t45.5 29.5q8 0 14 -2q93 -29 93 -120q0 -13 -2 -20.5t-2 -0.5q0 -14 -11.5 -95t-11.5 -136q0 -37 5 -69q32 119 260 300q100 80 257.5 136.5t281.5 56.5q61 0 104 -16q70 -25 85 -95q7 -70 12 -140q0 -7 -16 -135 q-14 -109 -14 -172q0 -101 31 -126q20 -73 20 -108q0 -65 -64 -66q-41 0 -112 25q-27 20 -27 61q0 47 34 110q19 162 19 282q0 122 -19 212q-19 50 -91 50q-103 0 -275 -90q-157 -83 -226 -158q-100 -91 -136 -134q-59 -71 -97 -170q18 -47 18 -83q0 -97 -94 -97 q-39 0 -77 23q-28 10 -28 61z" />
<glyph unicode="&#xf2;" horiz-adv-x="1137" d="M438 1471q0 88 70 88q14 0 30 -6q50 -19 136 -182q92 -172 92 -270q0 -46 -24 -62q-6 0 -103 166t-101 166q-100 0 -100 100zM11 210q0 92 89 214q70 95 150 158l267 215q150 111 231 119q27 -18 79 -33q42 20 91 20q78 0 148.5 -49.5t106.5 -134.5q12 -22 12 -50 q0 -117 -195 -283q-186 -159 -424 -260q-195 -83 -332 -83q-42 0 -79 8q-144 46 -144 159zM180 303q-27 -52 -27 -86q0 -53 64 -65q34 -7 63 -7q72 0 173 51l282 156q157 86 207 135l106 123q18 32 18 60q0 52 -53 83q-49 28 -118 28q-109 0 -160 -62q-21 13 -45 12 q-19 0 -126 -44q-59 -17 -189 -143q-139 -134 -195 -241z" />
<glyph unicode="&#xf4;" horiz-adv-x="1137" d="M317 1110q0 52 65 79q60 94 148 175l145 126q49 46 89 46q30 0 80 -46q102 -122 279 -314q37 -40 37 -75q0 -62 -73 -63q-72 0 -73 76q0 16 4 35q-129 162 -257 257q-46 0 -158.5 -103.5t-112.5 -153.5q4 -16 4 -31q0 -78 -87 -78q-90 1 -90 70zM11 210q0 92 89 214 q70 95 150 158l267 215q150 111 231 119q27 -18 79 -33q42 20 91 20q78 0 148.5 -49.5t106.5 -134.5q12 -22 12 -50q0 -117 -195 -283q-186 -159 -424 -260q-195 -83 -332 -83q-42 0 -79 8q-144 46 -144 159zM180 303q-27 -52 -27 -86q0 -53 64 -65q34 -7 63 -7q72 0 173 51 l282 156q157 86 207 135l106 123q18 32 18 60q0 52 -53 83q-49 28 -118 28q-109 0 -160 -62q-21 13 -45 12q-19 0 -126 -44q-59 -17 -189 -143q-139 -134 -195 -241z" />
<glyph unicode="&#xf5;" horiz-adv-x="1137" d="M393 1164q0 99 86 183q76 92 137 92q59 0 125.5 -107.5t96.5 -107.5q34 0 73 67q81 140 126 141q29 0 29 -59q0 -101 -66 -190q-108 -144 -176 -144q-56 0 -111.5 126t-97.5 126t-91.5 -110.5t-78.5 -110.5q-52 0 -52 94zM11 210q0 92 89 214q70 95 150 158l267 215 q150 111 231 119q27 -18 79 -33q42 20 91 20q78 0 148.5 -49.5t106.5 -134.5q12 -22 12 -50q0 -117 -195 -283q-186 -159 -424 -260q-195 -83 -332 -83q-42 0 -79 8q-144 46 -144 159zM180 303q-27 -52 -27 -86q0 -53 64 -65q34 -7 63 -7q72 0 173 51l282 156 q157 86 207 135l106 123q18 32 18 60q0 52 -53 83q-49 28 -118 28q-109 0 -160 -62q-21 13 -45 12q-19 0 -126 -44q-59 -17 -189 -143q-139 -134 -195 -241z" />
<glyph unicode="&#xf9;" horiz-adv-x="1067" d="M608 1471q0 88 70 88q14 0 30 -6q50 -19 136 -182q92 -172 92 -270q0 -46 -24 -62q-6 0 -103 166t-101 166q-100 0 -100 100zM56 243q0 135 22 237q33 151 33 227q-28 47 -28 85q0 81 115 81q62 -44 62 -126q0 -48 -21 -91q-70 -223 -70 -393q0 -63 20 -74q17 -14 43 -13 q107 0 317 199q200 191 283 354l14 120q6 38 73 65q110 0 110 -67q0 -6 -34 -143q-17 -313 -17 -369q0 -178 36 -260q-16 -77 -85 -77q-65 0 -82 82l21 146q17 115 17 202q0 82 -14 151q-129 -189 -317 -354q-216 -188 -384 -223q-5 -1 -10 -1q-104 1 -104 242z" />
<glyph unicode="&#xfb;" horiz-adv-x="1067" d="M487 1110q0 52 65 79q60 94 148 175l145 126q49 46 89 46q30 0 80 -46q102 -122 279 -314q37 -40 37 -75q0 -62 -73 -63q-72 0 -73 76q0 16 4 35q-129 162 -257 257q-46 0 -158.5 -103.5t-112.5 -153.5q4 -16 4 -31q0 -78 -87 -78q-90 1 -90 70zM56 243q0 135 22 237 q33 151 33 227q-28 47 -28 85q0 81 115 81q62 -44 62 -126q0 -48 -21 -91q-70 -223 -70 -393q0 -63 20 -74q17 -14 43 -13q107 0 317 199q200 191 283 354l14 120q6 38 73 65q110 0 110 -67q0 -6 -34 -143q-17 -313 -17 -369q0 -178 36 -260q-16 -77 -85 -77q-65 0 -82 82 l21 146q17 115 17 202q0 82 -14 151q-129 -189 -317 -354q-216 -188 -384 -223q-5 -1 -10 -1q-104 1 -104 242z" />
<glyph unicode="&#x152;" horiz-adv-x="3753" d="M2150 1183q0 55 98 98q91 41 181 41q118 29 423 67q321 40 467 40q137 15 141 14q121 0 139 -121q0 -59 -57 -58q-57 0 -116 58q-228 0 -533 -42q-392 -53 -457 -135q0 -83 17.5 -251.5t17.5 -267.5q77 16 508 140q437 126 515 155q5 0 30.5 8.5t49.5 8.5q41 0 88 -26 q28 -34 28 -58q0 -40 -107 -69l-306 -66q-249 -56 -471 -135q-130 -46 -298 -131q0 -21 -9.5 -88.5t-9.5 -102.5q0 -87 48 -109q627 148 1029 199q164 50 191 50q31 0 103 -41q1 -6 0 -12q0 -122 -307 -122l-501 -80q-306 -52 -470 -145h-166q-80 49 -80 136q0 24 8.5 75 t8.5 77q0 35 -12 62q-114 59 -114 114q0 59 114 100q0 89 -26 276q-30 215 -61 240q-104 47 -104 101zM33 331q0 161 104 334l170 214q107 115 320 243q58 35 126 36q31 0 76 -9t56 -9q113 62 295 106q200 49 381 49q343 0 466 -173q57 -80 56 -167q0 -258 -423 -514 q-577 -349 -1084 -428q-81 -13 -151 -13q-198 0 -299 96q-93 87 -93 235zM177 325q0 -98 68 -149t221 -70q135 0 447 113q335 122 604 283q321 190 413 363q15 38 15 73q0 134 -243 244q-60 4 -121 4q-575 0 -993 -384q-91 -61 -116 -62q-20 0 -39 26q-46 0 -114 -84 q-17 -20 -90 -128q-52 -144 -52 -229z" />
<glyph unicode="&#x153;" horiz-adv-x="2220" d="M1204 214q0 25 3 52q51 163 145 287q67 91 158 161l103 74q57 47 160 88q110 45 184 45q18 0 32 -3q174 -35 174 -156q0 -33 -15 -72q-44 -83 -140 -139q-77 -45 -331 -147q-174 -70 -204 -86q-135 -68 -134 -128q0 -39 55 -74q33 -12 78 -12q151 0 381 113 q211 103 295 199q20 22 43 23q48 0 48 -53q0 -20 -13 -37q-169 -154 -266 -207q-73 -39 -304 -115q-114 -37 -211 -37q-241 1 -241 224zM1354 337q72 69 286 166q263 118 309 147q84 51 84 95q0 23 -22 43q-20 20 -61 19q-126 0 -326 -152q-208 -158 -270 -318zM11 210 q0 92 89 214q70 95 150 158l267 215q150 111 231 119q27 -18 79 -33q42 20 91 20q78 0 148.5 -49.5t106.5 -134.5q12 -22 12 -50q0 -117 -195 -283q-186 -159 -424 -260q-195 -83 -332 -83q-42 0 -79 8q-144 46 -144 159zM180 303q-27 -52 -27 -86q0 -53 64 -65q34 -7 63 -7 q72 0 173 51l282 156q157 86 207 135l106 123q18 32 18 60q0 52 -53 83q-49 28 -118 28q-109 0 -160 -62q-21 13 -45 12q-19 0 -126 -44q-59 -17 -189 -143q-139 -134 -195 -241z" />
<glyph unicode="&#x2c6;" horiz-adv-x="981" d="M72 1162q0 52 65 79q60 94 148 175l145 126q49 46 89 46q30 0 80 -46q102 -122 279 -314q37 -40 37 -75q0 -62 -73 -63q-72 0 -73 76q0 16 4 35q-129 162 -257 257q-46 0 -158.5 -103.5t-112.5 -153.5q4 -16 4 -31q0 -78 -87 -78q-90 1 -90 70z" />
<glyph unicode="&#x2dc;" horiz-adv-x="651" d="M-355 248q0 99 86 183q76 92 137 92q59 0 125.5 -107.5t96.5 -107.5q34 0 73 67q81 140 126 141q29 0 29 -59q0 -101 -66 -190q-108 -144 -176 -144q-56 0 -111.5 126t-97.5 126t-91.5 -110.5t-78.5 -110.5q-52 0 -52 94z" />
<glyph unicode="&#x2013;" horiz-adv-x="1024" d="M205 512v205h614v-205h-614z" />
<glyph unicode="&#x2014;" horiz-adv-x="2048" d="M205 512v205h1638v-205h-1638z" />
<glyph unicode="&#x2018;" horiz-adv-x="388" d="M86 1286q-12 81 16 242q9 33 75 93q70 62 109 62q19 0 24 -18t5 -31q0 -28 -27 -44l-55 -32q-66 -56 -66 -88q0 -8 3 -15q4 -12 34 -32t43 -50q7 -16 7 -32q0 -35 -27 -63q-43 -25 -88 -26q-44 0 -53 34z" />
<glyph unicode="&#x2019;" horiz-adv-x="398" d="M84 1244q0 28 28 44l54 31q65 56 65 90q0 7 -2 14q-5 14 -34 33t-42 49q-7 17 -7 33q0 34 26 62q43 25 87 26q45 0 52 -34q13 -65 -15 -242q-9 -33 -75 -93q-69 -62 -107 -62q-30 -1 -30 49z" />
<glyph unicode="&#x201c;" horiz-adv-x="750" d="M86 1331q-12 81 16 242q9 33 75 93q70 62 109 62q19 0 24 -18t5 -32q0 -28 -27 -44l-55 -31q-66 -56 -66 -88q0 -8 3 -15q4 -12 34 -32t43 -49q7 -17 7 -33q0 -35 -27 -64q-44 -25 -89 -25q-43 0 -52 34zM368 1331q-14 70 15 242q9 33 77 94t106 61q30 0 30 -50 q0 -28 -28 -44l-55 -31q-66 -56 -66 -89q0 -7 3 -14q5 -13 35 -32.5t43 -48.5q7 -17 6 -33q0 -35 -26 -64q-45 -25 -89 -25t-51 34z" />
<glyph unicode="&#x201d;" horiz-adv-x="656" d="M84 1263q0 28 28 44l54 30q65 55 65 90q0 8 -2 14q-5 14 -34 33t-42 48q-7 17 -7 34q0 34 26 63q44 25 87 25q45 0 52 -35q13 -64 -15 -242q-10 -32 -75 -91q-69 -62 -107 -63q-20 0 -25 18.5t-5 31.5zM365 1262q0 29 28 45l54 30q65 55 65 91q0 7 -2 13q-5 14 -33.5 33 t-41.5 48q-8 17 -8 34q0 35 26 63q44 25 88 25q45 0 52 -35q13 -68 -17 -242q-9 -32 -74 -91q-69 -62 -107 -63q-20 0 -25 20q-5 16 -5 29z" />
<glyph unicode="&#x2026;" horiz-adv-x="988" d="M745 219q0 88 69 88q15 0 30 -6q85 -33 85 -100q0 -45 -53 -82h-32q-99 0 -99 100zM416 219q0 88 69 88q15 0 30 -6q85 -33 85 -100q0 -45 -53 -82h-32q-99 0 -99 100zM86 219q0 88 69 88q15 0 30 -6q85 -33 85 -100q0 -45 -53 -82h-32q-99 0 -99 100z" />
<glyph unicode="&#x2039;" d="M56 1087q0 32 39 52q121 32 370 160q203 104 350 196q29 68 90 68q75 0 90 -88q-24 -49 -78.5 -63t-109.5 -25q-184 -129 -516 -305q143 -145 632 -538q66 6 107 -32q35 -33 35 -78q0 -62 -58 -62q-79 0 -200 146l-655 472q-32 7 -64 37t-32 60z" />
<glyph unicode="&#x203a;" d="M46 477q0 46 35 79q41 38 107 32q505 407 632 537q-331 174 -518 306q-55 12 -108.5 25t-77.5 61q15 90 89 90q61 0 91 -68q142 -90 349 -196q249 -128 369 -161q40 -20 40 -52q0 -30 -31.5 -60t-63.5 -38q-99 -62 -318 -224l-339 -247q-121 -145 -200 -146q-56 1 -56 62 z" />
<glyph unicode="&#x2122;" horiz-adv-x="3419" d="M1128 117q0 72 30 107q23 359 56 1035q-2 14 -2 27q0 52 33 82q29 27 73 28q42 0 72 -27q33 -30 33 -81q0 -14 -3 -29q21 -21 121 -177q95 -147 283 -377q229 -276 309 -299l271 335q168 208 277 322q94 74 386 378q32 13 61 13q98 0 98 -97q0 -47 -32 -98l72 -647 q48 -421 102 -421q22 -74 23 -112q0 -47 -38 -59q-26 -9 -115 -9q-50 29 -50 65q0 2 4 55q3 31 2 62v31q-6 145 -32 411l-43 410q-8 16 -20 100.5t-18 93.5q-102 -48 -461.5 -447.5t-396.5 -505.5q0 -88 -91 -88q-46 0 -46 26l-735 858q-20 -44 -41 -265q-21 -227 -22 -408 q0 -188 26 -227q0 -90 -12 -121q-20 -51 -88 -50q-86 0 -86 106zM-167 1452q0 36 44 67t108 31q28 0 193.5 19t261.5 19q73 0 124 -10q184 0 265 8q133 12 266 17q28 10 54 10q50 0 80 -34q28 -30 28 -72q0 -21 -9 -40q-44 -59 -94 -60q-32 0 -59 26q-34 20 -106 20 q-55 0 -208 -18q-161 -19 -251 -21q-33 -76 -49 -292l-16 -337q-16 -292 -15 -592q26 -35 26 -77q0 -85 -98 -105q-104 16 -104 59q0 15 9 50q13 46 16 73q19 56 36 376q15 306 14 570q0 232 -14 269q-58 20 -135 21q-72 0 -256 -36q-111 0 -111 59z" />
<glyph unicode="&#xe000;" horiz-adv-x="965" d="M0 965h965v-965h-965v965z" />
<glyph unicode="&#xfb01;" horiz-adv-x="1039" d="M784 664q0 36 42 85q34 24 60 24q8 0 49 -24q18 -20 18 -61q0 -17 -10 -111.5t-10 -179.5q0 -102 13 -214q37 -76 37 -118q0 -67 -88 -67q-82 12 -82 88q0 20 5 78q7 65 8 110q1 29 1 99t-1 181q-6 20 -26 59q-16 31 -16 51zM814 1158q0 88 69 87q15 0 30 -5 q84 -33 84 -100q0 -46 -53 -82h-31q-99 1 -99 100zM-34 675q0 16 11 41q24 23 72 41q41 15 57 39q0 481 49 642q80 182 212 183q113 0 271 -138q58 -21 57 -61q0 -27 -24 -50t-51 -23q-45 0 -44 65v17q-87 101 -165 101q-119 0 -169 -207q-9 -35 -9 -139q0 -68 4.5 -197 t4.5 -157q186 49 316 97q67 25 103 26q23 0 53 -12q49 -20 66 -24q10 -15 10 -26q0 -13 -47 -36q-130 -12 -247 -57l-233 -105q-2 -11 -2 -48q0 -38 2 -45q3 -46 3 -128q0 -73 -2 -174q-2 -113 -3 -190q0 -68 2 -108q46 -41 46 -75q0 -58 -82 -58q-64 0 -72 50 q0 167 -10 391q-15 317 -39 367q-6 -1 -54 -16q-37 -12 -57 -11q-29 0 -29 25z" />
<glyph unicode="&#xfb02;" horiz-adv-x="1150" d="M798 1420q0 89 75 89q33 0 79 -18q46 -39 46 -72q0 -15 -17.5 -57t-17.5 -79q0 -812 48 -1137q38 -36 38 -82q0 -36 -24 -59q-21 -20 -56 -20h-12q-88 8 -88 72v-3q2 0 14 92q0 605 -39 1102q-46 98 -46 172zM-34 675q0 16 11 41q24 23 72 41q41 15 57 39q0 481 49 642 q80 182 212 183q113 0 271 -138q58 -21 57 -61q0 -27 -24 -50t-51 -23q-45 0 -44 65v17q-87 101 -165 101q-119 0 -169 -207q-9 -35 -9 -139q0 -68 4.5 -197t4.5 -157q186 49 316 97q67 25 103 26q23 0 53 -12q49 -20 66 -24q10 -15 10 -26q0 -13 -47 -36q-130 -12 -247 -57 l-233 -105q-2 -11 -2 -48q0 -38 2 -45q3 -46 3 -128q0 -73 -2 -174q-2 -113 -3 -190q0 -68 2 -108q46 -41 46 -75q0 -58 -82 -58q-64 0 -72 50q0 167 -10 391q-15 317 -39 367q-6 -1 -54 -16q-37 -12 -57 -11q-29 0 -29 25z" />
<glyph unicode="&#xfb03;" horiz-adv-x="1749" d="M1494 664q0 36 42 85q34 24 60 24q8 0 49 -24q18 -20 18 -61q0 -17 -10 -111.5t-10 -179.5q0 -102 13 -214q37 -76 37 -118q0 -67 -88 -67q-82 12 -82 88q0 20 5 78q7 65 8 110q1 29 1 99t-1 181q-6 20 -26 59q-16 31 -16 51zM1524 1158q0 88 69 87q15 0 30 -5 q84 -33 84 -100q0 -46 -53 -82h-31q-99 1 -99 100zM676 675q0 16 11 41q24 23 72 41q41 15 57 39q0 481 49 642q80 182 212 183q113 0 271 -138q58 -21 57 -61q0 -27 -24 -50t-51 -23q-45 0 -44 65v17q-87 101 -165 101q-119 0 -169 -207q-9 -35 -9 -139q0 -68 4.5 -197 t4.5 -157q186 49 316 97q67 25 103 26q23 0 53 -12q49 -20 66 -24q10 -15 10 -26q0 -13 -47 -36q-130 -12 -247 -57l-233 -105q-2 -11 -2 -48q0 -38 2 -45q3 -46 3 -128q0 -73 -2 -174q-2 -113 -3 -190q0 -68 2 -108q46 -41 46 -75q0 -58 -82 -58q-64 0 -72 50 q0 167 -10 391q-15 317 -39 367q-6 -1 -54 -16q-37 -12 -57 -11q-29 0 -29 25zM-34 675q0 16 11 41q24 23 72 41q41 15 57 39q0 481 49 642q80 182 212 183q113 0 271 -138q58 -21 57 -61q0 -27 -24 -50t-51 -23q-45 0 -44 65v17q-87 101 -165 101q-119 0 -169 -207 q-9 -35 -9 -139q0 -68 4.5 -197t4.5 -157q186 49 316 97q67 25 103 26q23 0 53 -12q49 -20 66 -24q10 -15 10 -26q0 -13 -47 -36q-130 -12 -247 -57l-233 -105q-2 -11 -2 -48q0 -38 2 -45q3 -46 3 -128q0 -73 -2 -174q-2 -113 -3 -190q0 -68 2 -108q46 -41 46 -75 q0 -58 -82 -58q-64 0 -72 50q0 167 -10 391q-15 317 -39 367q-6 -1 -54 -16q-37 -12 -57 -11q-29 0 -29 25z" />
<glyph unicode="&#xfb04;" horiz-adv-x="1860" d="M1508 1420q0 89 75 89q33 0 79 -18q46 -39 46 -72q0 -15 -17.5 -57t-17.5 -79q0 -812 48 -1137q38 -36 38 -82q0 -36 -24 -59q-21 -20 -56 -20h-12q-88 8 -88 72v-3q2 0 14 92q0 605 -39 1102q-46 98 -46 172zM676 675q0 16 11 41q24 23 72 41q41 15 57 39q0 481 49 642 q80 182 212 183q113 0 271 -138q58 -21 57 -61q0 -27 -24 -50t-51 -23q-45 0 -44 65v17q-87 101 -165 101q-119 0 -169 -207q-9 -35 -9 -139q0 -68 4.5 -197t4.5 -157q186 49 316 97q67 25 103 26q23 0 53 -12q49 -20 66 -24q10 -15 10 -26q0 -13 -47 -36q-130 -12 -247 -57 l-233 -105q-2 -11 -2 -48q0 -38 2 -45q3 -46 3 -128q0 -73 -2 -174q-2 -113 -3 -190q0 -68 2 -108q46 -41 46 -75q0 -58 -82 -58q-64 0 -72 50q0 167 -10 391q-15 317 -39 367q-6 -1 -54 -16q-37 -12 -57 -11q-29 0 -29 25zM-34 675q0 16 11 41q24 23 72 41q41 15 57 39 q0 481 49 642q80 182 212 183q113 0 271 -138q58 -21 57 -61q0 -27 -24 -50t-51 -23q-45 0 -44 65v17q-87 101 -165 101q-119 0 -169 -207q-9 -35 -9 -139q0 -68 4.5 -197t4.5 -157q186 49 316 97q67 25 103 26q23 0 53 -12q49 -20 66 -24q10 -15 10 -26q0 -13 -47 -36 q-130 -12 -247 -57l-233 -105q-2 -11 -2 -48q0 -38 2 -45q3 -46 3 -128q0 -73 -2 -174q-2 -113 -3 -190q0 -68 2 -108q46 -41 46 -75q0 -58 -82 -58q-64 0 -72 50q0 167 -10 391q-15 317 -39 367q-6 -1 -54 -16q-37 -12 -57 -11q-29 0 -29 25z" />
</font>
</defs>
</svg>
